SplineFontDB: 3.0
FontName: mini-wakuwaku
FullName: mini-wakuwaku
FamilyName: mini-wakuwaku
Weight: Regular
Copyright: (c) miniyama, Yamashita Kaoru
Version: 1.00
ItalicAngle: 0
UnderlinePosition: -100
UnderlineWidth: 50
Ascent: 830
Descent: 170
InvalidEm: 0
sfntRevision: 0x00044ccc
LayerCount: 2
Layer: 0 0 "Back" 1
Layer: 1 0 "Fore" 0
HasVMetrics: 1
XUID: [1400 240933248 1]
StyleMap: 0x0040
FSType: 8
OS2Version: 2
OS2_WeightWidthSlopeOnly: 0
OS2_UseTypoMetrics: 0
CreationTime: -2082844800
ModificationTime: -2082844800
PfmFamily: 17
TTFWeight: 400
TTFWidth: 5
LineGap: 0
VLineGap: 0
Panose: 2 0 6 0 0 0 0 0 0 0
OS2TypoAscent: 830
OS2TypoAOffset: 0
OS2TypoDescent: -170
OS2TypoDOffset: 0
OS2TypoLinegap: 0
OS2WinAscent: 830
OS2WinAOffset: 0
OS2WinDescent: 170
OS2WinDOffset: 0
HheadAscent: 830
HheadAOffset: 0
HheadDescent: -170
HheadDOffset: 0
OS2SubXSize: 650
OS2SubYSize: 600
OS2SubXOff: 0
OS2SubYOff: 75
OS2SupXSize: 650
OS2SupYSize: 600
OS2SupXOff: 0
OS2SupYOff: 350
OS2StrikeYSize: 50
OS2StrikeYPos: 300
OS2CapHeight: 738
OS2XHeight: 501
OS2Vendor: 'Take'
OS2CodePages: 0002000d.00000000
OS2UnicodeRanges: a00002ff.68c7feff.00000012.00000000
Lookup: 1 0 0 "'aalt' Access All Alternates lookup 0" { "'aalt' Access All Alternates lookup 0 subtable"  } ['aalt' ('cyrl' <'dflt' > 'grek' <'dflt' > 'hani' <'dflt' > 'kana' <'dflt' > 'latn' <'dflt' > ) ]
Lookup: 3 0 0 "'aalt' Access All Alternates lookup 1" { "'aalt' Access All Alternates lookup 1 per glyph data 0"  "'aalt' Access All Alternates lookup 1 per glyph data 1"  } ['aalt' ('cyrl' <'dflt' > 'grek' <'dflt' > 'hani' <'dflt' > 'kana' <'dflt' > 'latn' <'dflt' > ) ]
Lookup: 4 0 0 "'afrc' Vertical Fractions lookup 2" { "'afrc' Vertical Fractions lookup 2 subtable"  } ['afrc' ('cyrl' <'dflt' > 'grek' <'dflt' > 'hani' <'dflt' > 'kana' <'dflt' > 'latn' <'dflt' > ) ]

StartChar: Japan1.2
Encoding: 2 33 2
Width: 298
Flags: W
LayerCount: 2
Fore
SplineSet
220 726 m 0
 239 704 248 669 246 631 c 0
 241 576 216 281 210 249 c 0
 204 215 182 196 150 194 c 2
 147 194 l 2
 118 194 96 215 88 250 c 0
 81 278 57 591 55 637 c 0
 53 671 61 700 80 721 c 0
 98 742 126 754 157 754 c 0
 182 754 204 744 220 726 c 0
161 168 m 0
 193 161 216 146 229 125 c 0
 240 105 243 80 237 52 c 0
 228 8 192 -23 150 -23 c 0
 92 -23 55 26 55 71 c 0
 55 112 82 170 140 170 c 0
 147 170 154 169 161 168 c 0
EndSplineSet
Substitution2: "'vrt2' Vertical Rotation & Alternates lookup 13 subtable" Japan1.8721
Substitution2: "'hwid' Half Widths lookup 7 subtable" Japan1.232
Substitution2: "'fwid' Full Widths lookup 6 subtable" Japan1.642
AlternateSubs2: "'aalt' Access All Alternates lookup 1 per glyph data 0" Japan1.232 Japan1.642 Japan1.9445 Japan1.8721
EndChar

StartChar: Japan1.3
Encoding: 3 34 3
Width: 450
Flags: W
LayerCount: 2
Fore
SplineSet
127 625 m 1
 127 625 58 628 46 675 c 0
 33 722 65 778 118 780 c 0
 164 782 202 740 205 700 c 0
 208 659 194 608 173 580 c 0
 152 553 129 544 117 550 c 0
 104 557 96 569 108 588 c 1
 127 592 124 603 127 625 c 1
333 625 m 1
 333 625 264 628 252 675 c 0
 239 722 270 778 323 780 c 0
 370 782 407 740 410 700 c 0
 414 659 399 608 378 580 c 0
 357 553 335 544 322 550 c 0
 310 556 301 569 314 588 c 0
 326 606 329 603 333 625 c 1
EndSplineSet
Substitution2: "'vrt2' Vertical Rotation & Alternates lookup 13 subtable" Japan1.8722
Substitution2: "'hwid' Half Widths lookup 7 subtable" Japan1.12087
Substitution2: "'fwid' Full Widths lookup 6 subtable" Japan1.8007
AlternateSubs2: "'aalt' Access All Alternates lookup 1 per glyph data 0" Japan1.108 Japan1.121 Japan1.122 Japan1.233 Japan1.423 Japan1.424 Japan1.503 Japan1.672 Japan1.673 Japan1.7608 Japan1.7609 Japan1.7956 Japan1.7957 Japan1.8007 Japan1.8277 Japan1.8278 Japan1.8279 Japan1.8280 Japan1.12080 Japan1.12081 Japan1.12087 Japan1.12169 Japan1.12170 Japan1.9446 Japan1.8722
EndChar

StartChar: Japan1.4
Encoding: 4 35 4
Width: 787
Flags: W
LayerCount: 2
Fore
SplineSet
667 478 m 0
 663 478 657 478 649 478 c 1
 640 422 630 359 621 299 c 1
 640 298 654 298 661 297 c 0
 711 294 738 256 737 212 c 0
 736 174 706 137 638 137 c 0
 629 137 613 137 594 137 c 1
 586 92 580 59 576 48 c 0
 562 -2 536 -12 500 -12 c 0
 464 -12 428 13 433 74 c 0
 434 84 438 107 442 138 c 1
 391 139 337 139 287 140 c 1
 281 102 275 75 272 65 c 0
 258 19 232 -10 192 -10 c 0
 153 -10 117 25 124 89 c 0
 125 99 128 118 132 142 c 1
 126 143 122 143 119 143 c 0
 55 148 30 183 27 224 c 0
 27 264 70 303 134 303 c 0
 140 303 148 303 158 303 c 1
 168 362 179 425 189 482 c 1
 174 483 163 483 157 483 c 0
 89 488 64 518 61 561 c 0
 57 604 100 649 161 649 c 0
 171 649 192 649 220 649 c 1
 221 657 223 663 224 667 c 0
 238 732 254 782 319 775 c 0
 373 769 387 710 376 660 c 0
 376 657 375 653 374 648 c 1
 425 647 478 647 526 646 c 1
 529 662 531 674 532 679 c 0
 543 752 586 769 622 762 c 0
 658 755 687 719 680 672 c 0
 679 667 677 656 675 642 c 0
 677 641 678 641 680 641 c 0
 733 635 760 586 756 554 c 0
 753 521 720 478 667 478 c 0
469 301 m 1
 478 359 489 422 498 479 c 1
 449 479 395 480 345 480 c 1
 336 424 326 361 316 302 c 1
 365 302 419 301 469 301 c 1
EndSplineSet
Substitution2: "'vrt2' Vertical Rotation & Alternates lookup 13 subtable" Japan1.8723
Substitution2: "'hwid' Half Widths lookup 7 subtable" Japan1.234
Substitution2: "'fwid' Full Widths lookup 6 subtable" Japan1.716
AlternateSubs2: "'aalt' Access All Alternates lookup 1 per glyph data 0" Japan1.234 Japan1.716 Japan1.9447 Japan1.8723
EndChar

StartChar: Japan1.5
Encoding: 5 36 5
Width: 529
Flags: W
LayerCount: 2
Fore
SplineSet
337 399 m 1
 423 354 518 280 501 182 c 0
 485 93 424 39 324 24 c 1
 323 16 321 9 320 6 c 0
 309 -17 284 -25 265 -25 c 0
 256 -25 248 -24 241 -20 c 0
 223 -12 211 4 206 25 c 1
 132 36 94 67 61 93 c 2
 55 97 l 2
 35 113 23 135 24 157 c 0
 24 170 29 191 54 209 c 0
 67 218 80 223 94 223 c 0
 114 223 137 212 158 200 c 0
 166 196 183 187 204 178 c 1
 205 227 205 273 206 316 c 1
 120 357 69 393 41 453 c 0
 9 521 28 607 85 657 c 0
 124 691 169 707 210 714 c 1
 210 728 215 740 225 751 c 0
 238 766 260 776 278 776 c 0
 293 776 307 769 319 757 c 0
 331 744 338 728 339 711 c 1
 354 709 368 705 381 700 c 0
 464 671 494 618 494 579 c 0
 494 532 442 515 408 529 c 0
 394 535 384 543 374 552 c 0
 364 560 354 569 338 576 c 1
 338 558 338 540 338 521 c 0
 338 481 337 439 337 399 c 1
169 528 m 0
 163 509 177 487 208 465 c 1
 208 507 209 545 209 576 c 1
 191 568 176 553 169 528 c 0
361 184 m 0
 368 198 370 210 366 221 c 0
 362 233 350 244 336 254 c 1
 335 241 335 231 335 226 c 0
 335 225 335 196 334 160 c 1
 346 165 355 172 361 184 c 0
EndSplineSet
Substitution2: "'vrt2' Vertical Rotation & Alternates lookup 13 subtable" Japan1.8724
Substitution2: "'hwid' Half Widths lookup 7 subtable" Japan1.235
Substitution2: "'fwid' Full Widths lookup 6 subtable" Japan1.712
AlternateSubs2: "'aalt' Access All Alternates lookup 1 per glyph data 0" Japan1.235 Japan1.712 Japan1.9448 Japan1.8724
EndChar

StartChar: Japan1.6
Encoding: 6 37 6
Width: 761
Flags: W
LayerCount: 2
Fore
SplineSet
667 707 m 0
 700 667 676 631 657 602 c 1
 656 600 l 2
 643 581 527 441 433 329 c 0
 383 269 340 217 324 198 c 2
 311 181 l 2
 268 128 215 63 181 30 c 0
 168 17 152 11 134 11 c 0
 113 11 94 20 83 29 c 0
 61 48 67 91 97 132 c 0
 114 155 176 232 236 305 c 0
 288 369 341 434 364 464 c 0
 396 506 454 573 496 622 c 0
 517 647 535 668 545 681 c 0
 570 711 599 729 625 729 c 0
 641 729 656 721 667 707 c 0
320 676 m 0
 354 627 360 550 333 492 c 0
 315 451 264 407 196 407 c 0
 193 407 189 407 185 408 c 0
 100 413 46 453 29 521 c 0
 12 588 37 683 118 727 c 0
 139 738 161 744 185 744 c 0
 242 744 296 710 320 676 c 0
230 556 m 0
 237 576 232 601 219 612 c 0
 213 617 204 619 195 619 c 0
 172 619 147 605 144 589 c 0
 141 576 144 556 155 542 c 0
 163 533 174 528 186 528 c 0
 216 528 227 546 230 556 c 0
724 222 m 0
 750 153 705 74 667 43 c 0
 642 22 604 10 568 10 c 0
 544 10 522 15 503 24 c 0
 451 50 409 119 409 177 c 0
 409 254 454 310 532 333 c 0
 546 337 560 339 573 339 c 0
 639 339 698 293 724 222 c 0
566 218 m 0
 537 218 526 184 526 170 c 0
 526 156 543 129 567 129 c 0
 568 129 569 129 570 129 c 0
 603 132 613 159 612 180 c 0
 611 196 594 218 566 218 c 0
EndSplineSet
Substitution2: "'vrt2' Vertical Rotation & Alternates lookup 13 subtable" Japan1.8725
Substitution2: "'hwid' Half Widths lookup 7 subtable" Japan1.236
Substitution2: "'fwid' Full Widths lookup 6 subtable" Japan1.715
AlternateSubs2: "'aalt' Access All Alternates lookup 1 per glyph data 0" Japan1.236 Japan1.715 Japan1.9449 Japan1.8725
EndChar

StartChar: Japan1.7
Encoding: 7 38 7
Width: 665
Flags: W
LayerCount: 2
Fore
SplineSet
631 103 m 0
 643 72 623 44 601 29 c 0
 583 16 550 17 525 30 c 0
 513 36 499 47 490 56 c 1
 463 31 398 -21 315 -24 c 0
 311 -24 307 -24 303 -24 c 0
 211 -24 92 16 49 103 c 0
 18 169 20 241 54 307 c 0
 74 346 113 381 135 399 c 1
 119 416 93 448 77 482 c 0
 50 542 50 597 77 655 c 0
 110 726 191 775 279 775 c 0
 304 775 328 771 350 763 c 0
 457 725 492 628 489 551 c 0
 487 486 441 430 399 405 c 0
 385 398 369 387 358 379 c 1
 405 333 454 286 475 267 c 1
 488 277 508 291 530 291 c 2
 532 291 l 2
 569 289 604 259 609 226 c 0
 613 201 604 173 590 155 c 1
 604 142 624 122 631 103 c 0
261 487 m 1
 313 515 338 550 329 584 c 0
 323 611 297 630 268 630 c 0
 262 630 256 630 251 628 c 0
 240 625 225 615 217 599 c 0
 210 586 209 571 214 555 c 0
 224 523 248 498 261 487 c 1
230 299 m 1
 211 285 172 250 175 210 c 0
 179 159 216 125 276 118 c 0
 322 112 359 145 375 162 c 1
 230 299 l 1
EndSplineSet
Substitution2: "'vrt2' Vertical Rotation & Alternates lookup 13 subtable" Japan1.8726
Substitution2: "'hwid' Half Widths lookup 7 subtable" Japan1.237
Substitution2: "'fwid' Full Widths lookup 6 subtable" Japan1.717
AlternateSubs2: "'aalt' Access All Alternates lookup 1 per glyph data 0" Japan1.237 Japan1.717 Japan1.9450 Japan1.8726
EndChar

StartChar: Japan1.8
Encoding: 8 39 8
Width: 298
Flags: W
LayerCount: 2
Fore
SplineSet
151 625 m 1
 151 625 83 628 70 675 c 0
 58 722 89 778 142 780 c 0
 188 782 226 740 229 700 c 0
 232 659 218 608 197 580 c 0
 176 553 153 544 141 550 c 0
 128 556 120 569 132 588 c 0
 145 606 148 603 151 625 c 1
EndSplineSet
Substitution2: "'vrt2' Vertical Rotation & Alternates lookup 13 subtable" Japan1.8727
Substitution2: "'hwid' Half Widths lookup 7 subtable" Japan1.12086
Substitution2: "'fwid' Full Widths lookup 6 subtable" Japan1.8006
AlternateSubs2: "'aalt' Access All Alternates lookup 1 per glyph data 0" Japan1.96 Japan1.98 Japan1.238 Japan1.295 Japan1.670 Japan1.671 Japan1.8006 Japan1.8275 Japan1.8276 Japan1.8281 Japan1.8282 Japan1.12086 Japan1.12171 Japan1.12172 Japan1.12173 Japan1.12174 Japan1.9451 Japan1.8727
EndChar

StartChar: Japan1.9
Encoding: 9 40 9
Width: 400
Flags: W
LayerCount: 2
Fore
SplineSet
294 677 m 0
 265 645 192 537 189 376 c 0
 187 216 284 113 318 63 c 0
 351 13 347 -20 328 -37 c 0
 309 -54 270 -70 224 -35 c 0
 178 1 55 126 49 359 c 0
 43 578 148 720 196 766 c 0
 244 812 288 813 318 783 c 0
 340 760 332 720 294 677 c 0
EndSplineSet
Substitution2: "'vrt2' Vertical Rotation & Alternates lookup 13 subtable" Japan1.8728
Substitution2: "'hwid' Half Widths lookup 7 subtable" Japan1.239
Substitution2: "'fwid' Full Widths lookup 6 subtable" Japan1.674
AlternateSubs2: "'aalt' Access All Alternates lookup 1 per glyph data 0" Japan1.239 Japan1.674 Japan1.7899 Japan1.9452 Japan1.9752 Japan1.9772 Japan1.8728
EndChar

StartChar: Japan1.10
Encoding: 10 41 10
Width: 400
Flags: W
LayerCount: 2
Fore
SplineSet
90 677 m 0
 52 720 44 760 66 783 c 0
 96 813 140 812 188 766 c 0
 236 720 340 578 335 359 c 0
 329 126 206 1 160 -35 c 0
 114 -70 75 -54 56 -37 c 0
 37 -20 33 13 66 63 c 0
 100 113 197 216 195 376 c 0
 192 537 119 645 90 677 c 0
EndSplineSet
Substitution2: "'vrt2' Vertical Rotation & Alternates lookup 13 subtable" Japan1.8729
Substitution2: "'hwid' Half Widths lookup 7 subtable" Japan1.240
Substitution2: "'fwid' Full Widths lookup 6 subtable" Japan1.675
AlternateSubs2: "'aalt' Access All Alternates lookup 1 per glyph data 0" Japan1.240 Japan1.675 Japan1.7900 Japan1.9453 Japan1.9753 Japan1.9773 Japan1.8729
EndChar

StartChar: Japan1.11
Encoding: 11 42 11
Width: 508
Flags: W
LayerCount: 2
Fore
SplineSet
436 436 m 0
 475 404 464 376 454 362 c 0
 444 348 428 340 410 340 c 0
 396 340 382 345 370 353 c 0
 362 358 337 378 304 403 c 1
 304 389 303 374 303 359 c 2
 303 349 l 2
 302 305 295 284 254 280 c 0
 252 280 251 280 249 280 c 0
 219 280 198 306 195 344 c 0
 195 352 195 372 194 399 c 1
 166 378 145 362 137 357 c 0
 121 346 107 340 93 340 c 0
 80 340 69 346 60 357 c 0
 40 383 47 418 76 443 c 0
 84 450 119 477 163 510 c 1
 119 544 84 571 78 576 c 0
 54 596 32 621 48 652 c 0
 57 670 74 681 95 681 c 0
 108 681 121 677 134 669 c 0
 141 664 165 647 195 623 c 1
 195 651 195 672 195 681 c 0
 193 703 200 722 213 736 c 0
 225 748 240 755 256 755 c 0
 299 754 305 718 306 683 c 0
 307 673 307 652 307 620 c 1
 326 634 343 647 357 658 c 2
 360 660 l 2
 377 673 396 685 416 685 c 0
 429 685 442 679 453 666 c 0
 461 656 465 645 464 634 c 0
 462 611 441 590 420 572 c 0
 411 565 379 540 341 510 c 1
 389 473 428 442 436 436 c 0
EndSplineSet
Substitution2: "'vrt2' Vertical Rotation & Alternates lookup 13 subtable" Japan1.8730
Substitution2: "'hwid' Half Widths lookup 7 subtable" Japan1.241
Substitution2: "'fwid' Full Widths lookup 6 subtable" Japan1.718
AlternateSubs2: "'aalt' Access All Alternates lookup 1 per glyph data 0" Japan1.241 Japan1.718 Japan1.9454 Japan1.8730
EndChar

StartChar: Japan1.12
Encoding: 12 43 12
Width: 703
Flags: W
LayerCount: 2
Fore
SplineSet
578 452 m 0
 625 452 668 445 671 392 c 0
 672 377 668 364 659 354 c 0
 640 333 604 329 572 327 c 0
 552 326 467 326 418 326 c 1
 417 225 416 136 415 121 c 0
 412 63 380 51 354 51 c 0
 316 51 286 85 286 130 c 0
 286 138 286 165 286 203 c 0
 285 237 285 280 285 326 c 1
 199 326 121 327 105 328 c 0
 41 331 32 363 32 383 c 0
 32 423 62 450 108 453 c 0
 118 454 161 454 210 454 c 0
 232 454 257 454 284 454 c 1
 284 550 284 634 285 646 c 0
 288 685 298 726 340 731 c 0
 383 737 415 705 418 656 c 0
 419 638 419 552 419 454 c 1
 455 453 488 453 514 453 c 0
 547 453 571 452 578 452 c 0
EndSplineSet
Substitution2: "'vrt2' Vertical Rotation & Alternates lookup 13 subtable" Japan1.8731
Substitution2: "'hwid' Half Widths lookup 7 subtable" Japan1.242
Substitution2: "'fwid' Full Widths lookup 6 subtable" Japan1.692
AlternateSubs2: "'aalt' Access All Alternates lookup 1 per glyph data 0" Japan1.242 Japan1.692 Japan1.12188 Japan1.12190 Japan1.12191 Japan1.12240 Japan1.12241 Japan1.9455 Japan1.8731
EndChar

StartChar: Japan1.13
Encoding: 13 44 13
Width: 297
Flags: W
LayerCount: 2
Fore
SplineSet
153 -4 m 1
 153 -4 86 -1 74 44 c 0
 62 89 92 143 144 145 c 0
 189 147 225 107 228 68 c 0
 231 29 217 -21 197 -47 c 0
 177 -73 155 -82 143 -76 c 0
 131 -70 122 -58 135 -40 c 1
 158 -29 150 -25 153 -4 c 1
EndSplineSet
Substitution2: "'vrt2' Vertical Rotation & Alternates lookup 13 subtable" Japan1.8732
Substitution2: "'hwid' Half Widths lookup 7 subtable" Japan1.243
Substitution2: "'fwid' Full Widths lookup 6 subtable" Japan1.636
AlternateSubs2: "'aalt' Access All Alternates lookup 1 per glyph data 0" Japan1.120 Japan1.243 Japan1.636 Japan1.8268 Japan1.9456 Japan1.9751 Japan1.9771 Japan1.8732
EndChar

StartChar: Japan1.14
Encoding: 14 45 14
Width: 491
Flags: W
LayerCount: 2
Fore
SplineSet
141 201 m 0
 89 201 58 211 47 253 c 1
 46 292 81 331 133 333 c 1
 201 329 306 333 350 333 c 0
 395 333 439 310 442 278 c 0
 445 247 429 204 374 202 c 1
 330 190 181 201 141 201 c 0
EndSplineSet
Substitution2: "'vrt2' Vertical Rotation & Alternates lookup 13 subtable" Japan1.8733
Substitution2: "'hwid' Half Widths lookup 7 subtable" Japan1.244
Substitution2: "'fwid' Full Widths lookup 6 subtable" Japan1.662
AlternateSubs2: "'aalt' Access All Alternates lookup 1 per glyph data 0" Japan1.244 Japan1.662 Japan1.7893 Japan1.9457 Japan1.9749 Japan1.9769 Japan1.8733
EndChar

StartChar: Japan1.15
Encoding: 15 46 15
Width: 281
Flags: W
LayerCount: 2
Fore
SplineSet
146 -26 m 0
 94 -21 62 14 59 52 c 0
 55 90 87 145 149 141 c 0
 212 138 226 86 226 51 c 0
 226 16 188 -29 146 -26 c 0
EndSplineSet
Substitution2: "'vrt2' Vertical Rotation & Alternates lookup 13 subtable" Japan1.8734
Substitution2: "'hwid' Half Widths lookup 7 subtable" Japan1.245
Substitution2: "'fwid' Full Widths lookup 6 subtable" Japan1.637
AlternateSubs2: "'aalt' Access All Alternates lookup 1 per glyph data 0" Japan1.245 Japan1.637 Japan1.8274 Japan1.9458 Japan1.9754 Japan1.9774 Japan1.8734
EndChar

StartChar: Japan1.16
Encoding: 16 47 16
Width: 518
Flags: W
LayerCount: 2
Fore
SplineSet
340 711 m 0
 359 754 394 801 446 773 c 0
 498 745 484 697 465 663 c 0
 447 628 301 322 269 256 c 0
 237 189 172 66 145 31 c 0
 119 -5 80 -3 57 8 c 0
 34 20 22 57 47 114 c 0
 71 171 176 374 207 448 c 0
 238 523 322 671 340 711 c 0
EndSplineSet
Substitution2: "'vrt2' Vertical Rotation & Alternates lookup 13 subtable" Japan1.8735
Substitution2: "'hwid' Half Widths lookup 7 subtable" Japan1.246
Substitution2: "'fwid' Full Widths lookup 6 subtable" Japan1.663
AlternateSubs2: "'aalt' Access All Alternates lookup 1 per glyph data 0" Japan1.104 Japan1.246 Japan1.663 Japan1.12116 Japan1.12187 Japan1.9459 Japan1.9755 Japan1.9775 Japan1.8735
EndChar

StartChar: Japan1.17
Encoding: 17 48 17
Width: 700
Flags: W
LayerCount: 2
Fore
SplineSet
357 760 m 0
 498 758 616 666 662 537 c 0
 715 388 672 147 558 49 c 0
 458 -36 280 -52 158 50 c 0
 36 152 -2 306 20 462 c 0
 43 619 184 763 357 760 c 0
242 200 m 0
 305 149 393 141 455 191 c 0
 523 246 531 365 517 442 c 0
 501 524 434 588 370 593 c 0
 321 598 232 570 200 491 c 0
 139 341 199 235 242 200 c 0
EndSplineSet
Substitution2: "'vrt2' Vertical Rotation & Alternates lookup 13 subtable" Japan1.8736
Substitution2: "'hwid' Half Widths lookup 7 subtable" Japan1.247
Substitution2: "'fwid' Full Widths lookup 6 subtable" Japan1.780
AlternateSubs2: "'aalt' Access All Alternates lookup 1 per glyph data 0" Japan1.230 Japan1.247 Japan1.632 Japan1.780 Japan1.8061 Japan1.8224 Japan1.8227 Japan1.8228 Japan1.9377 Japan1.9384 Japan1.9872 Japan1.9882 Japan1.10152 Japan1.10162 Japan1.10503 Japan1.10764 Japan1.11037 Japan1.11307 Japan1.11576 Japan1.9460 Japan1.9738 Japan1.9758 Japan1.8736
EndChar

StartChar: Japan1.18
Encoding: 18 49 18
Width: 700
Flags: W
LayerCount: 2
Fore
SplineSet
229 528 m 0
 184 529 155 547 145 580 c 0
 134 614 136 649 203 695 c 0
 269 740 327 781 396 765 c 0
 464 749 468 675 468 615 c 0
 468 556 461 111 457 64 c 0
 454 17 403 -11 371 -9 c 0
 343 -7 297 15 291 68 c 0
 286 114 296 547 296 547 c 1
 308 546 244 528 229 528 c 0
EndSplineSet
Substitution2: "'vrt2' Vertical Rotation & Alternates lookup 13 subtable" Japan1.8737
Substitution2: "'hwid' Half Widths lookup 7 subtable" Japan1.248
Substitution2: "'fwid' Full Widths lookup 6 subtable" Japan1.781
AlternateSubs2: "'aalt' Access All Alternates lookup 1 per glyph data 0" Japan1.160 Japan1.248 Japan1.781 Japan1.7555 Japan1.8062 Japan1.8071 Japan1.8286 Japan1.9385 Japan1.9873 Japan1.10153 Japan1.10163 Japan1.10766 Japan1.11039 Japan1.11309 Japan1.11578 Japan1.9461 Japan1.9739 Japan1.9759 Japan1.8737
EndChar

StartChar: Japan1.19
Encoding: 19 50 19
Width: 700
Flags: W
LayerCount: 2
Fore
SplineSet
233 557 m 0
 214 525 173 507 132 523 c 0
 90 538 66 590 102 653 c 0
 141 723 258 793 398 758 c 0
 537 723 600 581 586 479 c 0
 571 364 532 309 471 242 c 0
 426 194 378 155 378 155 c 1
 380 150 493 151 546 151 c 1
 608 143 628 116 628 73 c 1
 633 21 598 -2 529 -2 c 0
 459 -2 217 -2 178 -2 c 1
 155 -6 97 26 95 69 c 0
 93 113 120 139 199 212 c 0
 278 286 396 388 419 467 c 0
 438 530 417 576 367 594 c 0
 328 608 299 606 279 597 c 0
 254 586 242 573 233 557 c 0
EndSplineSet
Substitution2: "'vrt2' Vertical Rotation & Alternates lookup 13 subtable" Japan1.8738
Substitution2: "'hwid' Half Widths lookup 7 subtable" Japan1.249
Substitution2: "'fwid' Full Widths lookup 6 subtable" Japan1.782
AlternateSubs2: "'aalt' Access All Alternates lookup 1 per glyph data 0" Japan1.157 Japan1.249 Japan1.782 Japan1.7556 Japan1.8063 Japan1.8072 Japan1.8287 Japan1.9386 Japan1.9874 Japan1.10154 Japan1.10164 Japan1.10768 Japan1.11041 Japan1.11311 Japan1.11580 Japan1.9462 Japan1.9740 Japan1.9760 Japan1.8738
EndChar

StartChar: Japan1.20
Encoding: 20 51 20
Width: 700
Flags: W
LayerCount: 2
Fore
SplineSet
487 388 m 1
 487 388 581 309 582 209 c 0
 583 103 516 7 410 -9 c 0
 392 -11 374 -13 357 -13 c 0
 256 -13 188 29 149 68 c 0
 98 120 93 174 113 205 c 0
 139 244 203 251 240 216 c 0
 268 187 300 160 335 156 c 0
 340 156 345 156 350 156 c 0
 380 156 417 167 421 198 c 0
 429 247 384 282 364 291 c 2
 349 298 l 2
 314 313 281 327 268 360 c 0
 253 399 279 438 312 456 c 0
 340 471 386 494 397 516 c 0
 409 540 416 567 383 595 c 0
 374 603 360 608 342 608 c 0
 316 608 281 598 271 593 c 0
 230 572 192 575 163 600 c 0
 149 612 141 632 142 652 c 0
 143 679 158 704 185 724 c 0
 222 750 290 766 348 766 c 0
 387 766 444 759 493 726 c 0
 563 679 582 614 572 526 c 0
 564 456 487 388 487 388 c 1
EndSplineSet
Substitution2: "'vrt2' Vertical Rotation & Alternates lookup 13 subtable" Japan1.8739
Substitution2: "'hwid' Half Widths lookup 7 subtable" Japan1.250
Substitution2: "'fwid' Full Widths lookup 6 subtable" Japan1.783
AlternateSubs2: "'aalt' Access All Alternates lookup 1 per glyph data 0" Japan1.158 Japan1.250 Japan1.783 Japan1.7557 Japan1.8064 Japan1.8073 Japan1.8288 Japan1.9387 Japan1.9875 Japan1.10155 Japan1.10165 Japan1.10770 Japan1.11043 Japan1.11313 Japan1.11582 Japan1.9463 Japan1.9741 Japan1.9761 Japan1.8739
EndChar

StartChar: Japan1.21
Encoding: 21 52 21
Width: 700
Flags: W
LayerCount: 2
Fore
SplineSet
352 721 m 0
 384 757 420 759 451 755 c 0
 482 752 531 726 531 678 c 0
 530 578 529 368 529 352 c 1
 529 352 583 350 610 348 c 0
 637 347 668 312 668 273 c 0
 668 233 646 189 597 189 c 0
 548 189 525 188 525 188 c 1
 534 180 524 88 522 51 c 0
 520 13 484 -13 453 -13 c 0
 422 -13 377 9 372 47 c 0
 366 85 370 189 370 189 c 1
 382 184 202 190 147 192 c 0
 93 194 66 219 48 252 c 0
 30 285 41 333 70 371 c 0
 100 410 314 679 352 721 c 0
248 359 m 1
 368 360 l 1
 372 512 l 1
 248 359 l 1
EndSplineSet
Substitution2: "'vrt2' Vertical Rotation & Alternates lookup 13 subtable" Japan1.8740
Substitution2: "'hwid' Half Widths lookup 7 subtable" Japan1.251
Substitution2: "'fwid' Full Widths lookup 6 subtable" Japan1.784
AlternateSubs2: "'aalt' Access All Alternates lookup 1 per glyph data 0" Japan1.251 Japan1.784 Japan1.7558 Japan1.8065 Japan1.8074 Japan1.8289 Japan1.9378 Japan1.9388 Japan1.9876 Japan1.10156 Japan1.10166 Japan1.10772 Japan1.11045 Japan1.11315 Japan1.11584 Japan1.9464 Japan1.9742 Japan1.9762 Japan1.8740
EndChar

StartChar: Japan1.22
Encoding: 22 53 22
Width: 700
Flags: W
LayerCount: 2
Fore
SplineSet
195 741 m 0
 282 743 440 745 478 745 c 0
 528 745 572 716 570 660 c 0
 569 614 536 579 474 579 c 0
 411 579 285 577 285 577 c 1
 286 467 l 1
 286 467 431 484 508 428 c 0
 588 371 615 277 595 168 c 0
 575 66 481 -20 347 -16 c 0
 216 -12 154 37 129 83 c 0
 105 126 127 172 158 188 c 0
 195 208 237 190 277 162 c 0
 321 131 404 137 434 177 c 0
 467 221 452 286 396 314 c 0
 349 337 284 326 251 319 c 0
 190 307 137 336 137 385 c 0
 137 423 137 589 137 680 c 0
 138 716 161 741 195 741 c 0
EndSplineSet
Substitution2: "'vrt2' Vertical Rotation & Alternates lookup 13 subtable" Japan1.8741
Substitution2: "'hwid' Half Widths lookup 7 subtable" Japan1.252
Substitution2: "'fwid' Full Widths lookup 6 subtable" Japan1.785
AlternateSubs2: "'aalt' Access All Alternates lookup 1 per glyph data 0" Japan1.252 Japan1.785 Japan1.7559 Japan1.8066 Japan1.8075 Japan1.8290 Japan1.9379 Japan1.9389 Japan1.9877 Japan1.10157 Japan1.10167 Japan1.10774 Japan1.11047 Japan1.11317 Japan1.11586 Japan1.9465 Japan1.9743 Japan1.9763 Japan1.8741
EndChar

StartChar: Japan1.23
Encoding: 23 54 23
Width: 700
Flags: W
LayerCount: 2
Fore
SplineSet
450 440 m 0
 547 415 625 300 588 153 c 0
 561 43 452 -7 363 -7 c 0
 331 -7 302 -1 274 10 c 0
 141 64 85 191 98 409 c 0
 112 617 219 719 316 746 c 0
 335 751 356 754 377 754 c 0
 432 754 485 735 523 703 c 0
 559 673 554 635 538 611 c 0
 532 600 515 583 483 583 c 0
 471 583 458 585 444 590 c 0
 425 596 405 599 385 599 c 0
 350 599 322 589 307 571 c 0
 271 527 255 482 255 421 c 1
 273 433 310 451 368 451 c 0
 394 451 421 447 450 440 c 0
455 236 m 0
 453 273 424 307 386 318 c 0
 379 320 372 321 364 321 c 0
 332 321 292 305 280 271 c 0
 271 247 268 210 283 188 c 0
 302 162 328 148 362 148 c 0
 370 148 378 149 387 151 c 0
 431 158 456 201 455 236 c 0
EndSplineSet
Substitution2: "'vrt2' Vertical Rotation & Alternates lookup 13 subtable" Japan1.8742
Substitution2: "'hwid' Half Widths lookup 7 subtable" Japan1.253
Substitution2: "'fwid' Full Widths lookup 6 subtable" Japan1.786
AlternateSubs2: "'aalt' Access All Alternates lookup 1 per glyph data 0" Japan1.253 Japan1.786 Japan1.7560 Japan1.8067 Japan1.8076 Japan1.8291 Japan1.9380 Japan1.9390 Japan1.9878 Japan1.10158 Japan1.10168 Japan1.10776 Japan1.11049 Japan1.11319 Japan1.11588 Japan1.9466 Japan1.9744 Japan1.9764 Japan1.8742
EndChar

StartChar: Japan1.24
Encoding: 24 55 24
Width: 700
Flags: W
LayerCount: 2
Fore
SplineSet
229 594 m 1
 463 592 l 1
 463 592 290 147 278 99 c 0
 266 51 289 13 328 4 c 0
 376 -8 393 8 422 47 c 0
 446 79 621 567 633 620 c 0
 650 695 596 737 548 739 c 0
 499 741 280 746 199 748 c 0
 118 749 82 698 80 642 c 0
 79 605 78 500 82 467 c 0
 85 434 118 414 151 414 c 0
 183 414 222 433 225 462 c 0
 229 491 229 594 229 594 c 1
EndSplineSet
Substitution2: "'vrt2' Vertical Rotation & Alternates lookup 13 subtable" Japan1.8743
Substitution2: "'hwid' Half Widths lookup 7 subtable" Japan1.254
Substitution2: "'fwid' Full Widths lookup 6 subtable" Japan1.787
AlternateSubs2: "'aalt' Access All Alternates lookup 1 per glyph data 0" Japan1.254 Japan1.787 Japan1.7561 Japan1.8068 Japan1.8077 Japan1.8292 Japan1.9381 Japan1.9391 Japan1.9879 Japan1.10159 Japan1.10169 Japan1.10778 Japan1.11051 Japan1.11321 Japan1.11590 Japan1.9467 Japan1.9745 Japan1.9765 Japan1.8743
EndChar

StartChar: Japan1.25
Encoding: 25 56 25
Width: 700
Flags: W
LayerCount: 2
Fore
SplineSet
201 405 m 1
 201 405 138 459 137 542 c 0
 135 625 165 701 240 741 c 0
 315 781 451 775 521 705 c 0
 591 636 584 528 571 485 c 0
 558 442 510 400 510 400 c 1
 524 394 581 336 598 250 c 0
 618 148 570 50 482 14 c 0
 404 -17 283 -28 198 38 c 0
 115 103 98 172 108 257 c 0
 119 348 201 405 201 405 c 1
420 521 m 0
 439 538 443 570 434 594 c 0
 429 608 409 639 354 637 c 0
 299 634 285 588 284 569 c 0
 282 550 297 509 338 502 c 0
 369 496 397 500 420 521 c 0
419 294 m 0
 396 316 351 319 320 308 c 0
 300 301 259 276 265 212 c 0
 270 147 333 132 359 131 c 0
 385 130 441 149 449 198 c 0
 456 235 448 268 419 294 c 0
EndSplineSet
Substitution2: "'vrt2' Vertical Rotation & Alternates lookup 13 subtable" Japan1.8744
Substitution2: "'hwid' Half Widths lookup 7 subtable" Japan1.255
Substitution2: "'fwid' Full Widths lookup 6 subtable" Japan1.788
AlternateSubs2: "'aalt' Access All Alternates lookup 1 per glyph data 0" Japan1.255 Japan1.788 Japan1.7562 Japan1.8069 Japan1.8078 Japan1.8293 Japan1.9382 Japan1.9392 Japan1.9880 Japan1.10160 Japan1.10170 Japan1.10780 Japan1.11053 Japan1.11323 Japan1.11592 Japan1.9468 Japan1.9746 Japan1.9766 Japan1.8744
EndChar

StartChar: Japan1.26
Encoding: 26 57 26
Width: 700
Flags: W
LayerCount: 2
Fore
SplineSet
492 728 m 0
 559 680 591 598 595 504 c 0
 597 438 574 378 556 334 c 0
 552 324 549 315 546 306 c 0
 531 265 449 68 428 34 c 0
 411 5 395 -11 365 -11 c 0
 356 -11 347 -9 337 -6 c 0
 320 -1 306 10 298 28 c 0
 287 50 285 78 294 99 c 0
 305 129 357 239 372 274 c 1
 370 274 368 274 366 274 c 0
 326 274 252 279 209 311 c 0
 144 360 107 440 108 525 c 0
 110 612 160 699 228 733 c 0
 265 750 317 761 366 761 c 0
 402 761 453 755 492 728 c 0
413 450 m 0
 430 460 450 503 442 545 c 0
 431 598 380 617 349 617 c 2
 345 617 l 2
 311 616 268 585 261 542 c 0
 253 500 276 455 313 439 c 0
 322 435 332 433 345 433 c 0
 371 433 400 441 413 450 c 0
EndSplineSet
Substitution2: "'vrt2' Vertical Rotation & Alternates lookup 13 subtable" Japan1.8745
Substitution2: "'hwid' Half Widths lookup 7 subtable" Japan1.256
Substitution2: "'fwid' Full Widths lookup 6 subtable" Japan1.789
AlternateSubs2: "'aalt' Access All Alternates lookup 1 per glyph data 0" Japan1.256 Japan1.789 Japan1.7563 Japan1.8070 Japan1.8079 Japan1.8294 Japan1.9383 Japan1.9393 Japan1.9881 Japan1.10161 Japan1.10171 Japan1.10782 Japan1.11055 Japan1.11325 Japan1.11594 Japan1.9469 Japan1.9747 Japan1.9767 Japan1.8745
EndChar

StartChar: Japan1.27
Encoding: 27 58 27
Width: 310
Flags: W
LayerCount: 2
Fore
SplineSet
156 490 m 0
 99 494 72 537 69 574 c 0
 65 610 115 667 169 657 c 0
 222 647 243 610 243 570 c 1
 249 522 202 487 156 490 c 0
152 122 m 0
 105 128 73 166 73 206 c 1
 84 235 125 290 172 283 c 0
 219 276 239 236 239 203 c 0
 239 169 206 116 152 122 c 0
EndSplineSet
Substitution2: "'vrt2' Vertical Rotation & Alternates lookup 13 subtable" Japan1.8746
Substitution2: "'hwid' Half Widths lookup 7 subtable" Japan1.257
Substitution2: "'fwid' Full Widths lookup 6 subtable" Japan1.639
AlternateSubs2: "'aalt' Access All Alternates lookup 1 per glyph data 0" Japan1.257 Japan1.639 Japan1.12101 Japan1.9470 Japan1.9756 Japan1.9776 Japan1.8746
EndChar

StartChar: Japan1.28
Encoding: 28 59 28
Width: 310
Flags: W
LayerCount: 2
Fore
SplineSet
160 487 m 0
 108 492 76 527 73 565 c 0
 70 603 101 658 163 654 c 0
 226 651 240 598 240 564 c 0
 240 529 202 484 160 487 c 0
154 133 m 1
 154 133 88 136 76 181 c 0
 64 226 94 280 145 282 c 0
 190 284 226 244 229 205 c 0
 232 166 218 116 198 90 c 0
 178 63 156 54 144 60 c 0
 132 66 124 78 136 96 c 1
 157 104 151 111 154 133 c 1
EndSplineSet
Substitution2: "'vrt2' Vertical Rotation & Alternates lookup 13 subtable" Japan1.8747
Substitution2: "'hwid' Half Widths lookup 7 subtable" Japan1.258
Substitution2: "'fwid' Full Widths lookup 6 subtable" Japan1.640
AlternateSubs2: "'aalt' Access All Alternates lookup 1 per glyph data 0" Japan1.258 Japan1.640 Japan1.9471 Japan1.9757 Japan1.9777 Japan1.8747
EndChar

StartChar: Japan1.29
Encoding: 29 60 29
Width: 650
Flags: W
LayerCount: 2
Fore
SplineSet
530 582 m 2
 523 578 l 2
 485 556 234 401 202 382 c 1
 235 364 503 221 555 194 c 0
 611 164 611 141 611 112 c 2
 611 111 l 2
 611 80 579 53 552 53 c 0
 527 53 502 59 444 93 c 0
 432 100 410 112 383 127 c 0
 279 187 104 286 73 311 c 0
 45 333 26 352 36 391 c 0
 43 424 76 450 105 473 c 2
 109 476 l 2
 156 514 359 638 426 679 c 2
 444 690 l 2
 482 713 521 727 549 727 c 0
 557 727 564 726 570 723 c 0
 602 712 620 679 615 656 c 0
 609 627 569 605 530 582 c 2
EndSplineSet
Substitution2: "'vrt2' Vertical Rotation & Alternates lookup 13 subtable" Japan1.8748
Substitution2: "'hwid' Half Widths lookup 7 subtable" Japan1.259
Substitution2: "'fwid' Full Widths lookup 6 subtable" Japan1.699
AlternateSubs2: "'aalt' Access All Alternates lookup 1 per glyph data 0" Japan1.110 Japan1.259 Japan1.506 Japan1.682 Japan1.699 Japan1.763 Japan1.7907 Japan1.12261 Japan1.12263 Japan1.12265 Japan1.12267 Japan1.9472 Japan1.8748
EndChar

StartChar: Japan1.30
Encoding: 30 61 30
Width: 651
Flags: W
LayerCount: 2
Fore
SplineSet
131 463 m 0
 72 467 46 483 41 518 c 0
 35 565 72 595 119 598 c 1
 181 595 492 601 536 598 c 1
 592 577 610 577 610 536 c 1
 616 489 572 466 527 466 c 1
 486 456 166 460 131 463 c 0
514 312 m 0
 569 312 610 302 613 250 c 0
 616 197 561 187 505 184 c 0
 450 181 157 183 111 185 c 0
 62 187 34 205 34 240 c 0
 34 283 68 310 115 313 c 0
 161 316 477 312 514 312 c 0
EndSplineSet
Substitution2: "'vrt2' Vertical Rotation & Alternates lookup 13 subtable" Japan1.8749
Substitution2: "'hwid' Half Widths lookup 7 subtable" Japan1.260
Substitution2: "'fwid' Full Widths lookup 6 subtable" Japan1.697
AlternateSubs2: "'aalt' Access All Alternates lookup 1 per glyph data 0" Japan1.260 Japan1.697 Japan1.7917 Japan1.12064 Japan1.9473 Japan1.9750 Japan1.9770 Japan1.8749
EndChar

StartChar: Japan1.31
Encoding: 31 62 31
Width: 650
Flags: W
LayerCount: 2
Fore
SplineSet
612 391 m 0
 621 352 602 333 575 311 c 0
 544 286 369 187 264 127 c 0
 237 112 216 100 204 93 c 0
 145 59 121 53 95 53 c 0
 69 53 36 80 36 111 c 2
 36 112 l 2
 36 141 36 164 93 194 c 0
 145 221 412 364 445 382 c 1
 414 401 163 556 125 578 c 2
 117 582 l 2
 78 605 38 627 32 656 c 0
 28 679 45 712 77 723 c 0
 83 726 91 727 99 727 c 0
 127 727 166 713 203 690 c 2
 221 679 l 2
 288 638 491 514 538 476 c 2
 542 473 l 2
 571 450 604 424 612 391 c 0
EndSplineSet
Substitution2: "'vrt2' Vertical Rotation & Alternates lookup 13 subtable" Japan1.8750
Substitution2: "'hwid' Half Widths lookup 7 subtable" Japan1.261
Substitution2: "'fwid' Full Widths lookup 6 subtable" Japan1.700
AlternateSubs2: "'aalt' Access All Alternates lookup 1 per glyph data 0" Japan1.111 Japan1.261 Japan1.507 Japan1.683 Japan1.700 Japan1.764 Japan1.7908 Japan1.12262 Japan1.12264 Japan1.12266 Japan1.12268 Japan1.9474 Japan1.8750
EndChar

StartChar: Japan1.32
Encoding: 32 63 32
Width: 541
Flags: W
LayerCount: 2
Fore
SplineSet
285 168 m 0
 317 161 340 146 353 125 c 0
 365 105 368 80 362 52 c 0
 353 8 317 -23 274 -23 c 0
 216 -23 180 26 180 71 c 0
 180 112 206 170 264 170 c 0
 271 170 278 169 285 168 c 0
462 683 m 0
 533 584 510 478 464 412 c 0
 445 385 425 361 407 340 c 0
 386 314 367 292 363 277 c 0
 356 253 333 198 280 198 c 0
 259 198 242 205 230 218 c 0
 216 232 210 253 211 275 c 0
 216 339 246 390 309 442 c 0
 347 474 368 535 336 580 c 0
 318 605 279 607 268 607 c 0
 256 607 247 605 243 604 c 0
 212 591 192 551 187 539 c 0
 173 507 149 469 98 475 c 0
 77 477 61 486 49 502 c 0
 36 519 31 543 35 567 c 0
 45 624 69 694 158 736 c 0
 194 753 238 762 281 762 c 0
 360 762 425 733 462 683 c 0
EndSplineSet
Substitution2: "'vrt2' Vertical Rotation & Alternates lookup 13 subtable" Japan1.8751
Substitution2: "'hwid' Half Widths lookup 7 subtable" Japan1.262
Substitution2: "'fwid' Full Widths lookup 6 subtable" Japan1.641
AlternateSubs2: "'aalt' Access All Alternates lookup 1 per glyph data 0" Japan1.262 Japan1.641 Japan1.9475 Japan1.8751
EndChar

StartChar: Japan1.33
Encoding: 33 64 33
Width: 806
Flags: W
LayerCount: 2
Fore
SplineSet
670 672 m 0
 779 573 777 444 766 376 c 0
 754 297 698 239 624 228 c 0
 612 226 601 225 589 225 c 0
 552 225 527 235 519 239 c 1
 497 227 463 221 425 221 c 0
 398 221 370 224 347 231 c 0
 293 246 234 298 236 377 c 0
 238 487 322 542 399 546 c 0
 472 550 549 508 571 452 c 0
 588 411 585 379 583 365 c 1
 606 362 621 371 630 391 c 0
 631 394 665 480 594 552 c 0
 550 596 485 621 416 621 c 0
 395 621 376 619 358 614 c 0
 289 596 203 542 185 449 c 0
 167 353 198 257 262 209 c 0
 319 166 438 156 479 156 c 0
 494 156 515 161 537 166 c 0
 566 173 598 180 619 177 c 0
 637 174 652 164 661 148 c 0
 670 131 672 108 664 89 c 0
 654 61 609 39 532 22 c 0
 507 17 477 14 447 14 c 0
 392 14 308 23 218 65 c 0
 89 125 20 269 41 432 c 0
 58 558 136 667 250 724 c 0
 291 745 348 756 411 756 c 0
 515 756 612 724 670 672 c 0
463 371 m 0
 468 381 471 399 464 414 c 0
 460 424 453 431 442 436 c 0
 432 440 423 442 414 442 c 0
 386 442 362 423 353 393 c 0
 348 380 349 368 356 358 c 0
 364 345 382 334 401 332 c 0
 422 329 450 341 463 371 c 0
EndSplineSet
Substitution2: "'vrt2' Vertical Rotation & Alternates lookup 13 subtable" Japan1.8752
Substitution2: "'hwid' Half Widths lookup 7 subtable" Japan1.263
Substitution2: "'fwid' Full Widths lookup 6 subtable" Japan1.719
AlternateSubs2: "'aalt' Access All Alternates lookup 1 per glyph data 0" Japan1.263 Japan1.719 Japan1.9476 Japan1.8752
EndChar

StartChar: Japan1.34
Encoding: 34 65 34
Width: 818
Flags: W
LayerCount: 2
Fore
SplineSet
780 98 m 0
 800 56 782 16 748 0 c 0
 715 -15 657 -6 627 48 c 0
 612 75 586 139 560 204 c 1
 275 203 l 1
 270 192 266 183 264 179 c 0
 244 137 199 49 189 35 c 0
 156 -11 136 -24 90 -14 c 0
 44 -4 16 39 40 103 c 0
 64 167 236 509 262 572 c 0
 288 636 316 727 363 747 c 0
 411 767 494 757 520 713 c 0
 546 670 760 140 780 98 c 0
424 534 m 1
 424 534 387 452 348 366 c 1
 492 367 l 1
 467 422 424 534 424 534 c 1
EndSplineSet
Substitution2: "'vrt2' Vertical Rotation & Alternates lookup 13 subtable" Japan1.8753
Substitution2: "'hwid' Half Widths lookup 7 subtable" Japan1.264
Substitution2: "'fwid' Full Widths lookup 6 subtable" Japan1.790
AlternateSubs2: "'aalt' Access All Alternates lookup 1 per glyph data 0" Japan1.264 Japan1.790 Japan1.10004 Japan1.10339 Japan1.10631 Japan1.10901 Japan1.11174 Japan1.11444 Japan1.11713 Japan1.9477 Japan1.8753
EndChar

StartChar: Japan1.35
Encoding: 35 66 35
Width: 682
Flags: W
LayerCount: 2
Fore
SplineSet
552 373 m 0
 572 343 621 273 611 190 c 0
 596 72 536 8 433 -2 c 0
 388 -6 345 -8 302 -8 c 0
 262 -8 230 -6 206 -5 c 0
 192 -4 181 -4 172 -4 c 0
 135 -4 91 27 86 76 c 0
 82 105 81 292 82 633 c 0
 82 647 82 657 82 661 c 0
 82 715 120 753 178 757 c 0
 208 759 250 760 291 760 c 0
 334 760 394 759 439 753 c 0
 516 743 575 672 588 609 c 0
 610 497 566 424 549 396 c 0
 546 392 544 387 543 386 c 1
 544 385 548 379 552 373 c 0
429 573 m 0
 417 590 381 599 325 599 c 0
 314 599 304 598 297 598 c 0
 294 598 291 598 289 598 c 0
 280 598 251 596 249 576 c 0
 248 565 248 547 248 529 c 0
 248 511 248 493 247 482 c 0
 246 471 249 461 255 453 c 0
 260 448 267 444 275 443 c 2
 280 443 l 2
 292 442 312 440 334 440 c 1
 334 440 334 440 334 440 c 1
 376 440 404 446 419 458 c 0
 446 480 457 536 429 573 c 0
247 189 m 0
 246 178 249 168 255 161 c 0
 260 155 267 151 275 151 c 2
 278 151 l 2
 290 150 314 148 340 148 c 0
 386 148 417 154 431 165 c 0
 459 187 470 237 442 274 c 0
 430 291 391 299 329 299 c 0
 316 299 305 299 298 299 c 0
 294 299 291 299 289 299 c 0
 280 299 251 297 249 276 c 0
 248 266 248 249 248 233 c 0
 248 217 248 200 247 189 c 0
EndSplineSet
Substitution2: "'vrt2' Vertical Rotation & Alternates lookup 13 subtable" Japan1.8754
Substitution2: "'hwid' Half Widths lookup 7 subtable" Japan1.265
Substitution2: "'fwid' Full Widths lookup 6 subtable" Japan1.791
AlternateSubs2: "'aalt' Access All Alternates lookup 1 per glyph data 0" Japan1.265 Japan1.791 Japan1.10005 Japan1.10340 Japan1.10632 Japan1.10902 Japan1.11175 Japan1.11445 Japan1.11714 Japan1.9478 Japan1.8754
EndChar

StartChar: Japan1.36
Encoding: 36 67 36
Width: 721
Flags: W
LayerCount: 2
Fore
SplineSet
580 186 m 0
 607 186 626 177 641 156 c 0
 659 132 665 107 659 84 c 0
 651 56 626 32 588 16 c 0
 558 3 508 -4 450 -4 c 0
 364 -4 286 11 241 37 c 0
 178 73 34 182 65 423 c 0
 94 656 276 746 391 749 c 0
 395 749 399 750 403 750 c 0
 519 750 624 698 654 650 c 0
 687 600 672 568 653 544 c 0
 641 530 623 521 601 521 c 0
 581 521 559 528 538 542 c 0
 510 560 472 569 432 569 c 0
 413 569 395 567 376 563 c 0
 323 550 247 485 241 397 c 0
 236 314 259 255 314 210 c 0
 348 182 413 169 459 169 c 0
 467 169 474 169 481 170 c 0
 496 172 512 175 526 178 c 0
 545 182 563 186 580 186 c 0
EndSplineSet
Substitution2: "'vrt2' Vertical Rotation & Alternates lookup 13 subtable" Japan1.8755
Substitution2: "'hwid' Half Widths lookup 7 subtable" Japan1.266
Substitution2: "'fwid' Full Widths lookup 6 subtable" Japan1.792
AlternateSubs2: "'aalt' Access All Alternates lookup 1 per glyph data 0" Japan1.152 Japan1.266 Japan1.792 Japan1.8059 Japan1.10006 Japan1.10341 Japan1.10633 Japan1.10903 Japan1.11176 Japan1.11446 Japan1.11715 Japan1.12102 Japan1.12103 Japan1.9479 Japan1.9595 Japan1.8755
EndChar

StartChar: Japan1.37
Encoding: 37 68 37
Width: 760
Flags: W
LayerCount: 2
Fore
SplineSet
629 630 m 0
 719 513 719 308 674 176 c 0
 629 47 497 -2 396 -4 c 2
 385 -4 l 2
 333 -5 283 -6 244 -6 c 0
 210 -6 186 -5 171 -4 c 0
 109 3 79 39 81 107 c 0
 81 134 81 207 81 291 c 0
 81 429 80 602 83 636 c 0
 88 713 162 748 228 748 c 0
 230 748 231 748 232 748 c 0
 242 747 253 748 268 748 c 0
 283 749 300 749 319 749 c 0
 467 749 569 710 629 630 c 0
550 352 m 0
 551 422 534 476 499 512 c 0
 445 568 358 568 329 568 c 0
 323 568 318 568 313 568 c 0
 309 568 306 568 303 568 c 1
 303 568 303 568 303 568 c 1
 301 568 299 568 297 568 c 0
 295 568 292 568 289 568 c 0
 258 568 246 558 246 528 c 0
 246 521 246 502 246 477 c 0
 246 395 245 243 246 211 c 0
 248 172 277 172 294 172 c 0
 298 172 303 171 310 171 c 0
 321 170 337 169 355 169 c 0
 481 169 546 230 550 352 c 0
EndSplineSet
Substitution2: "'vrt2' Vertical Rotation & Alternates lookup 13 subtable" Japan1.8756
Substitution2: "'hwid' Half Widths lookup 7 subtable" Japan1.267
Substitution2: "'fwid' Full Widths lookup 6 subtable" Japan1.793
AlternateSubs2: "'aalt' Access All Alternates lookup 1 per glyph data 0" Japan1.267 Japan1.793 Japan1.10007 Japan1.10342 Japan1.10634 Japan1.10904 Japan1.11177 Japan1.11447 Japan1.11716 Japan1.9480 Japan1.8756
EndChar

StartChar: Japan1.38
Encoding: 38 69 38
Width: 663
Flags: W
LayerCount: 2
Fore
SplineSet
530 162 m 0
 575 160 595 113 595 81 c 0
 595 50 568 3 528 1 c 0
 491 -1 206 -4 173 -4 c 0
 132 -4 83 11 80 82 c 0
 77 147 80 386 82 529 c 0
 83 581 83 622 83 636 c 0
 83 703 112 735 175 737 c 0
 187 737 205 737 230 737 c 0
 329 737 499 735 538 733 c 0
 587 732 609 689 609 650 c 0
 609 603 579 574 529 572 c 0
 507 571 463 571 400 571 c 0
 358 571 317 571 294 571 c 0
 285 571 279 571 276 571 c 0
 264 571 257 563 255 546 c 0
 254 542 253 502 253 451 c 1
 335 449 483 445 511 445 c 0
 526 445 539 439 550 428 c 0
 564 412 573 388 572 365 c 0
 570 332 542 294 503 293 c 0
 496 292 481 292 458 292 c 0
 401 292 308 293 252 294 c 1
 251 240 251 196 251 187 c 0
 251 170 270 164 287 164 c 0
 333 164 488 164 530 162 c 0
EndSplineSet
Substitution2: "'vrt2' Vertical Rotation & Alternates lookup 13 subtable" Japan1.8757
Substitution2: "'hwid' Half Widths lookup 7 subtable" Japan1.268
Substitution2: "'fwid' Full Widths lookup 6 subtable" Japan1.794
AlternateSubs2: "'aalt' Access All Alternates lookup 1 per glyph data 0" Japan1.268 Japan1.794 Japan1.10008 Japan1.10343 Japan1.10635 Japan1.10905 Japan1.11178 Japan1.11448 Japan1.11717 Japan1.9481 Japan1.8757
EndChar

StartChar: Japan1.39
Encoding: 39 70 39
Width: 653
Flags: W
LayerCount: 2
Fore
SplineSet
257 547 m 0
 257 544 257 524 257 494 c 1
 333 493 493 492 522 493 c 1
 522 493 522 493 522 493 c 1
 538 493 552 487 564 475 c 0
 579 459 588 435 587 412 c 0
 586 377 558 338 517 335 c 0
 488 333 330 332 259 332 c 1
 260 267 261 200 262 153 c 0
 262 104 263 69 263 65 c 0
 263 20 221 -12 183 -14 c 0
 181 -14 179 -14 177 -14 c 0
 157 -14 91 -8 87 73 c 0
 83 158 82 570 82 629 c 0
 82 696 112 730 175 731 c 0
 240 733 492 729 537 728 c 0
 588 726 610 687 610 648 c 0
 610 599 580 569 529 568 c 0
 507 567 463 567 400 567 c 0
 357 567 315 567 292 567 c 2
 274 567 l 2
 266 567 260 565 257 547 c 0
EndSplineSet
Substitution2: "'vrt2' Vertical Rotation & Alternates lookup 13 subtable" Japan1.8758
Substitution2: "'hwid' Half Widths lookup 7 subtable" Japan1.269
Substitution2: "'fwid' Full Widths lookup 6 subtable" Japan1.795
AlternateSubs2: "'aalt' Access All Alternates lookup 1 per glyph data 0" Japan1.269 Japan1.795 Japan1.10009 Japan1.10344 Japan1.10636 Japan1.10906 Japan1.11179 Japan1.11449 Japan1.11718 Japan1.9482 Japan1.8758
EndChar

StartChar: Japan1.40
Encoding: 40 71 40
Width: 794
Flags: W
LayerCount: 2
Fore
SplineSet
664 405 m 0
 703 401 743 365 744 313 c 0
 744 312 744 161 639 74 c 0
 580 25 506 2 414 2 c 0
 391 2 367 3 342 6 c 0
 187 24 88 170 70 263 c 0
 37 436 73 563 183 653 c 0
 253 711 335 740 427 740 c 0
 470 740 507 734 535 729 c 0
 627 711 681 647 689 609 c 0
 694 582 690 559 677 543 c 0
 662 524 640 513 618 513 c 0
 596 513 578 525 562 536 c 0
 556 540 550 544 544 547 c 0
 532 554 519 560 507 564 c 0
 489 569 466 572 442 572 c 0
 424 572 331 568 273 498 c 0
 212 424 205 279 288 209 c 0
 325 178 372 162 426 162 c 0
 450 162 476 165 501 172 c 0
 559 188 580 238 587 265 c 1
 559 264 510 264 487 264 c 0
 443 264 395 286 394 329 c 0
 393 353 400 367 413 380 c 0
 429 397 454 406 487 406 c 2
 518 407 l 2
 545 407 575 408 601 408 c 0
 631 408 651 407 664 405 c 0
EndSplineSet
Substitution2: "'vrt2' Vertical Rotation & Alternates lookup 13 subtable" Japan1.8759
Substitution2: "'hwid' Half Widths lookup 7 subtable" Japan1.270
Substitution2: "'fwid' Full Widths lookup 6 subtable" Japan1.796
AlternateSubs2: "'aalt' Access All Alternates lookup 1 per glyph data 0" Japan1.270 Japan1.796 Japan1.10010 Japan1.10345 Japan1.10637 Japan1.10907 Japan1.11180 Japan1.11450 Japan1.11719 Japan1.9483 Japan1.8759
EndChar

StartChar: Japan1.41
Encoding: 41 72 41
Width: 800
Flags: W
LayerCount: 2
Fore
SplineSet
79 630 m 1
 79 630 73 726 153 726 c 0
 232 726 248 663 248 616 c 0
 248 587 248 437 248 437 c 1
 547 435 l 1
 547 435 549 568 549 610 c 0
 550 710 594 731 647 726 c 0
 699 720 710 678 713 625 c 0
 719 531 720 157 720 86 c 0
 720 19 682 -10 629 -4 c 0
 576 1 567 31 555 84 c 0
 548 117 550 285 550 285 c 1
 255 289 l 1
 255 289 258 131 254 88 c 0
 249 23 217 -5 164 -5 c 0
 111 -5 83 43 85 99 c 0
 87 158 79 560 79 630 c 1
EndSplineSet
Substitution2: "'vrt2' Vertical Rotation & Alternates lookup 13 subtable" Japan1.8760
Substitution2: "'hwid' Half Widths lookup 7 subtable" Japan1.271
Substitution2: "'fwid' Full Widths lookup 6 subtable" Japan1.797
AlternateSubs2: "'aalt' Access All Alternates lookup 1 per glyph data 0" Japan1.271 Japan1.797 Japan1.10011 Japan1.10346 Japan1.10638 Japan1.10908 Japan1.11181 Japan1.11451 Japan1.11720 Japan1.9484 Japan1.8760
EndChar

StartChar: Japan1.42
Encoding: 42 73 42
Width: 332
Flags: W
LayerCount: 2
Fore
SplineSet
254 363 m 0
 256 241 258 126 257 103 c 0
 255 45 240 8 174 4 c 0
 172 3 171 3 169 3 c 0
 110 3 87 61 85 114 c 0
 82 182 72 594 79 647 c 0
 85 699 128 727 168 727 c 0
 189 727 212 717 228 700 c 0
 239 688 252 668 251 637 c 0
 250 610 252 484 254 363 c 0
EndSplineSet
Substitution2: "'vrt2' Vertical Rotation & Alternates lookup 13 subtable" Japan1.8761
Substitution2: "'hwid' Half Widths lookup 7 subtable" Japan1.272
Substitution2: "'fwid' Full Widths lookup 6 subtable" Japan1.798
AlternateSubs2: "'aalt' Access All Alternates lookup 1 per glyph data 0" Japan1.272 Japan1.798 Japan1.10012 Japan1.10347 Japan1.10639 Japan1.10909 Japan1.11182 Japan1.11452 Japan1.11721 Japan1.9485 Japan1.8761
EndChar

StartChar: Japan1.43
Encoding: 43 74 43
Width: 618
Flags: W
LayerCount: 2
Fore
SplineSet
455 734 m 2
 509 733 537 697 537 629 c 0
 537 565 528 295 523 224 c 0
 517 111 454 35 346 9 c 0
 322 3 297 0 271 0 c 0
 190 0 116 30 73 80 c 0
 20 141 9 192 37 239 c 0
 47 257 72 269 98 269 c 0
 125 269 148 258 163 237 c 2
 169 229 l 2
 192 198 212 171 265 171 c 1
 265 171 265 171 265 171 c 1
 267 171 269 171 271 171 c 0
 333 173 368 213 370 283 c 0
 372 350 373 587 371 631 c 0
 370 665 379 694 397 713 c 0
 411 727 430 734 452 734 c 2
 455 734 l 2
EndSplineSet
Substitution2: "'vrt2' Vertical Rotation & Alternates lookup 13 subtable" Japan1.8762
Substitution2: "'hwid' Half Widths lookup 7 subtable" Japan1.273
Substitution2: "'fwid' Full Widths lookup 6 subtable" Japan1.799
AlternateSubs2: "'aalt' Access All Alternates lookup 1 per glyph data 0" Japan1.273 Japan1.799 Japan1.10013 Japan1.10348 Japan1.10640 Japan1.10910 Japan1.11183 Japan1.11453 Japan1.11722 Japan1.9486 Japan1.8762
EndChar

StartChar: Japan1.44
Encoding: 44 75 44
Width: 715
Flags: W
LayerCount: 2
Fore
SplineSet
659 147 m 0
 687 118 697 70 681 42 c 0
 668 19 638 3 605 3 c 0
 588 3 571 7 556 16 c 0
 510 42 414 123 375 156 c 0
 350 178 306 210 271 235 c 0
 267 239 262 242 257 246 c 1
 258 169 258 110 258 96 c 0
 256 37 242 1 177 -3 c 0
 174 -3 172 -3 170 -3 c 0
 113 -3 89 53 87 105 c 0
 84 161 78 620 84 674 c 0
 90 726 132 754 172 754 c 0
 193 754 216 744 231 728 c 0
 242 716 256 696 255 666 c 0
 254 648 254 579 255 497 c 1
 322 546 375 587 409 615 c 0
 418 622 426 628 434 635 c 2
 444 643 l 2
 508 695 554 733 593 733 c 0
 633 732 670 696 670 658 c 0
 671 626 643 586 594 548 c 0
 540 507 420 391 399 371 c 1
 431 343 637 171 659 147 c 0
EndSplineSet
Substitution2: "'vrt2' Vertical Rotation & Alternates lookup 13 subtable" Japan1.8763
Substitution2: "'hwid' Half Widths lookup 7 subtable" Japan1.274
Substitution2: "'fwid' Full Widths lookup 6 subtable" Japan1.800
AlternateSubs2: "'aalt' Access All Alternates lookup 1 per glyph data 0" Japan1.274 Japan1.800 Japan1.10014 Japan1.10349 Japan1.10641 Japan1.10911 Japan1.11184 Japan1.11454 Japan1.11723 Japan1.9487 Japan1.8763
EndChar

StartChar: Japan1.45
Encoding: 45 76 45
Width: 721
Flags: W
LayerCount: 2
Fore
SplineSet
582 191 m 0
 644 191 674 146 676 101 c 0
 677 78 669 57 653 40 c 0
 635 20 609 10 581 9 c 0
 526 8 266 7 221 7 c 0
 175 7 88 34 86 133 c 0
 84 222 82 608 84 655 c 0
 86 719 120 758 175 758 c 0
 202 758 226 748 243 730 c 0
 261 712 270 686 269 656 c 0
 268 615 271 425 272 312 c 2
 272 303 l 2
 272 262 273 232 273 224 c 0
 273 203 283 192 301 192 c 0
 310 192 350 192 398 192 c 0
 467 192 552 191 582 191 c 0
EndSplineSet
Substitution2: "'vrt2' Vertical Rotation & Alternates lookup 13 subtable" Japan1.8764
Substitution2: "'hwid' Half Widths lookup 7 subtable" Japan1.275
Substitution2: "'fwid' Full Widths lookup 6 subtable" Japan1.801
AlternateSubs2: "'aalt' Access All Alternates lookup 1 per glyph data 0" Japan1.275 Japan1.801 Japan1.10015 Japan1.10350 Japan1.10642 Japan1.10912 Japan1.11185 Japan1.11455 Japan1.11724 Japan1.9488 Japan1.8764
EndChar

StartChar: Japan1.46
Encoding: 46 77 46
Width: 856
Flags: W
LayerCount: 2
Fore
SplineSet
776 497 m 2
 778 352 780 109 778 80 c 0
 775 37 745 7 704 5 c 0
 665 3 621 29 619 80 c 0
 618 108 613 251 609 352 c 2
 607 427 l 1
 576 381 517 292 501 276 c 0
 481 255 458 244 433 244 c 0
 407 244 382 257 359 281 c 0
 326 317 274 381 247 415 c 1
 247 341 247 114 246 85 c 0
 244 40 209 4 164 2 c 0
 163 2 161 2 159 2 c 0
 133 2 88 12 80 82 c 0
 75 129 79 389 81 528 c 2
 81 532 l 2
 81 576 82 607 82 619 c 0
 82 682 103 719 147 734 c 0
 155 736 163 737 170 737 c 0
 210 737 242 703 278 661 c 0
 323 608 404 485 428 448 c 1
 464 507 581 697 609 719 c 0
 630 736 658 746 683 746 c 0
 702 746 719 740 733 729 c 0
 772 697 775 659 775 609 c 0
 775 596 776 554 776 500 c 2
 776 497 l 2
EndSplineSet
Substitution2: "'vrt2' Vertical Rotation & Alternates lookup 13 subtable" Japan1.8765
Substitution2: "'hwid' Half Widths lookup 7 subtable" Japan1.276
Substitution2: "'fwid' Full Widths lookup 6 subtable" Japan1.802
AlternateSubs2: "'aalt' Access All Alternates lookup 1 per glyph data 0" Japan1.276 Japan1.802 Japan1.10016 Japan1.10351 Japan1.10643 Japan1.10913 Japan1.11186 Japan1.11456 Japan1.11725 Japan1.9489 Japan1.8765
EndChar

StartChar: Japan1.47
Encoding: 47 78 47
Width: 826
Flags: W
LayerCount: 2
Fore
SplineSet
669 749 m 2
 707 748 748 715 748 669 c 0
 748 629 745 130 742 84 c 0
 739 47 702 7 650 7 c 0
 633 7 616 11 599 20 c 0
 547 47 309 363 250 442 c 1
 251 367 252 121 251 84 c 0
 249 40 208 13 170 11 c 0
 133 9 93 35 88 95 c 0
 83 155 81 618 82 651 c 0
 85 702 115 736 164 743 c 0
 168 743 173 744 178 744 c 0
 205 744 245 735 286 691 c 0
 319 655 530 362 586 285 c 1
 586 363 586 624 586 666 c 0
 586 718 628 749 667 749 c 2
 669 749 l 2
EndSplineSet
Substitution2: "'vrt2' Vertical Rotation & Alternates lookup 13 subtable" Japan1.8766
Substitution2: "'hwid' Half Widths lookup 7 subtable" Japan1.277
Substitution2: "'fwid' Full Widths lookup 6 subtable" Japan1.803
AlternateSubs2: "'aalt' Access All Alternates lookup 1 per glyph data 0" Japan1.277 Japan1.803 Japan1.10017 Japan1.10352 Japan1.10644 Japan1.10914 Japan1.11187 Japan1.11457 Japan1.11726 Japan1.9490 Japan1.8766
EndChar

StartChar: Japan1.48
Encoding: 48 79 48
Width: 824
Flags: W
LayerCount: 2
Fore
SplineSet
763 475 m 0
 809 314 741 120 614 51 c 0
 560 22 494 6 422 6 c 0
 334 6 250 30 197 70 c 0
 103 142 27 303 62 473 c 0
 89 603 221 739 394 742 c 2
 402 742 l 2
 570 742 718 632 763 475 c 0
589 295 m 0
 607 354 613 439 547 508 c 0
 516 541 467 560 413 560 c 0
 366 560 322 546 292 520 c 0
 239 476 219 402 239 316 c 0
 255 245 328 190 412 186 c 0
 481 183 568 221 589 295 c 0
EndSplineSet
Substitution2: "'vrt2' Vertical Rotation & Alternates lookup 13 subtable" Japan1.8767
Substitution2: "'hwid' Half Widths lookup 7 subtable" Japan1.278
Substitution2: "'fwid' Full Widths lookup 6 subtable" Japan1.804
AlternateSubs2: "'aalt' Access All Alternates lookup 1 per glyph data 0" Japan1.278 Japan1.804 Japan1.10018 Japan1.10353 Japan1.10645 Japan1.10915 Japan1.11188 Japan1.11458 Japan1.11727 Japan1.9491 Japan1.8767
EndChar

StartChar: Japan1.49
Encoding: 49 80 49
Width: 706
Flags: W
LayerCount: 2
Fore
SplineSet
487 746 m 0
 590 741 671 641 668 524 c 0
 665 420 609 303 493 293 c 0
 449 289 398 288 342 288 c 0
 303 288 272 288 258 289 c 1
 259 252 259 93 256 61 c 0
 250 11 208 -16 170 -16 c 0
 134 -16 91 7 84 56 c 0
 78 91 81 425 82 585 c 0
 82 620 82 646 82 655 c 0
 82 712 113 747 168 753 c 0
 180 754 201 755 229 755 c 0
 289 755 383 752 487 746 c 0
264 466 m 0
 265 450 270 450 286 450 c 2
 301 449 l 2
 314 449 334 449 355 449 c 0
 394 449 424 450 442 451 c 0
 481 454 501 479 504 530 c 0
 506 561 491 593 458 596 c 0
 421 599 306 601 287 601 c 0
 274 601 266 596 266 573 c 0
 266 568 266 556 265 543 c 0
 264 517 263 481 264 466 c 0
EndSplineSet
Substitution2: "'vrt2' Vertical Rotation & Alternates lookup 13 subtable" Japan1.8768
Substitution2: "'hwid' Half Widths lookup 7 subtable" Japan1.279
Substitution2: "'fwid' Full Widths lookup 6 subtable" Japan1.805
AlternateSubs2: "'aalt' Access All Alternates lookup 1 per glyph data 0" Japan1.279 Japan1.805 Japan1.10019 Japan1.10354 Japan1.10646 Japan1.10916 Japan1.11189 Japan1.11459 Japan1.11728 Japan1.9492 Japan1.8768
EndChar

StartChar: Japan1.50
Encoding: 50 81 50
Width: 811
Flags: W
LayerCount: 2
Fore
SplineSet
706 165 m 1
 721 149 732 136 738 128 c 0
 758 100 757 56 727 46 c 1
 708 24 661 20 627 49 c 0
 622 54 616 59 609 65 c 0
 607 64 605 62 602 61 c 0
 473 -10 284 11 193 79 c 0
 103 148 14 306 61 475 c 1
 88 603 215 735 386 738 c 0
 557 741 705 629 748 477 c 0
 778 374 760 254 706 165 c 1
404 183 m 0
 428 181 453 185 476 192 c 1
 473 195 471 198 469 200 c 0
 441 237 444 269 462 298 c 0
 480 326 534 335 573 299 c 0
 577 296 581 292 585 288 c 1
 586 291 587 294 588 296 c 0
 607 361 611 447 544 517 c 0
 478 586 348 586 279 529 c 0
 219 479 206 398 224 318 c 0
 240 245 315 187 404 183 c 0
EndSplineSet
Substitution2: "'vrt2' Vertical Rotation & Alternates lookup 13 subtable" Japan1.8769
Substitution2: "'hwid' Half Widths lookup 7 subtable" Japan1.280
Substitution2: "'fwid' Full Widths lookup 6 subtable" Japan1.806
AlternateSubs2: "'aalt' Access All Alternates lookup 1 per glyph data 0" Japan1.280 Japan1.806 Japan1.10020 Japan1.10355 Japan1.10647 Japan1.10917 Japan1.11190 Japan1.11460 Japan1.11729 Japan1.9493 Japan1.8769
EndChar

StartChar: Japan1.51
Encoding: 51 82 51
Width: 713
Flags: W
LayerCount: 2
Fore
SplineSet
543 305 m 1
 582 228 625 139 635 109 c 0
 651 59 622 21 592 6 c 0
 562 -8 509 -1 488 48 c 0
 474 81 420 198 380 284 c 1
 305 282 247 283 243 283 c 2
 243 283 246 102 242 65 c 0
 237 21 200 -6 163 -6 c 0
 127 -6 90 18 83 61 c 0
 76 104 82 605 82 657 c 0
 82 716 115 743 161 748 c 0
 208 753 357 748 484 741 c 0
 584 736 673 638 670 524 c 0
 667 442 623 342 543 305 c 1
251 456 m 0
 252 432 264 432 281 432 c 0
 297 432 394 431 438 434 c 0
 483 437 513 467 517 520 c 0
 519 554 493 600 455 604 c 0
 417 607 307 598 281 608 c 1
 260 608 253 595 253 574 c 0
 253 557 249 479 251 456 c 0
EndSplineSet
Substitution2: "'vrt2' Vertical Rotation & Alternates lookup 13 subtable" Japan1.8770
Substitution2: "'hwid' Half Widths lookup 7 subtable" Japan1.281
Substitution2: "'fwid' Full Widths lookup 6 subtable" Japan1.807
AlternateSubs2: "'aalt' Access All Alternates lookup 1 per glyph data 0" Japan1.154 Japan1.281 Japan1.807 Japan1.8060 Japan1.10021 Japan1.10356 Japan1.10648 Japan1.10918 Japan1.11191 Japan1.11461 Japan1.11730 Japan1.12104 Japan1.12105 Japan1.9494 Japan1.9597 Japan1.8770
EndChar

StartChar: Japan1.52
Encoding: 52 83 52
Width: 594
Flags: W
LayerCount: 2
Fore
SplineSet
550 634 m 0
 555 616 553 598 543 582 c 0
 534 567 521 557 505 553 c 0
 494 551 485 549 475 549 c 0
 455 549 436 556 413 570 c 0
 391 584 348 596 316 596 c 0
 310 596 304 595 299 594 c 0
 268 587 246 558 250 526 c 0
 254 486 301 456 347 432 c 0
 404 402 474 344 504 284 c 0
 546 199 518 91 441 37 c 0
 399 8 340 -7 267 -7 c 0
 250 -7 233 -6 215 -5 c 0
 172 -1 98 28 79 49 c 0
 47 84 41 127 64 159 c 0
 83 184 107 197 134 197 c 0
 149 197 165 194 181 186 c 0
 210 174 250 165 284 165 c 0
 301 165 315 168 323 172 c 0
 337 180 347 195 349 211 c 0
 352 227 346 243 334 256 c 0
 320 271 293 287 261 306 c 0
 216 333 165 364 131 402 c 0
 69 473 73 569 97 635 c 0
 133 734 231 769 311 769 c 0
 335 769 358 766 379 761 c 0
 487 732 539 675 550 634 c 0
EndSplineSet
Substitution2: "'vrt2' Vertical Rotation & Alternates lookup 13 subtable" Japan1.8771
Substitution2: "'hwid' Half Widths lookup 7 subtable" Japan1.282
Substitution2: "'fwid' Full Widths lookup 6 subtable" Japan1.808
AlternateSubs2: "'aalt' Access All Alternates lookup 1 per glyph data 0" Japan1.282 Japan1.808 Japan1.10022 Japan1.10357 Japan1.10649 Japan1.10919 Japan1.11192 Japan1.11462 Japan1.11731 Japan1.9495 Japan1.8771
EndChar

StartChar: Japan1.53
Encoding: 53 84 53
Width: 706
Flags: W
LayerCount: 2
Fore
SplineSet
617 764 m 0
 665 759 686 719 686 688 c 0
 686 658 659 616 610 618 c 0
 591 619 523 618 442 617 c 1
 440 538 442 124 440 81 c 0
 438 28 427 -7 365 -10 c 0
 308 -14 286 41 284 92 c 0
 282 148 280 518 285 615 c 1
 201 613 130 612 114 613 c 0
 64 615 30 626 22 683 c 0
 15 740 70 766 118 768 c 0
 174 770 570 770 617 764 c 0
EndSplineSet
Substitution2: "'vrt2' Vertical Rotation & Alternates lookup 13 subtable" Japan1.8772
Substitution2: "'hwid' Half Widths lookup 7 subtable" Japan1.283
Substitution2: "'fwid' Full Widths lookup 6 subtable" Japan1.809
AlternateSubs2: "'aalt' Access All Alternates lookup 1 per glyph data 0" Japan1.283 Japan1.809 Japan1.10023 Japan1.10358 Japan1.10650 Japan1.10920 Japan1.11193 Japan1.11463 Japan1.11732 Japan1.9496 Japan1.8772
EndChar

StartChar: Japan1.54
Encoding: 54 85 54
Width: 782
Flags: W
LayerCount: 2
Fore
SplineSet
624 741 m 0
 673 741 703 701 703 634 c 0
 703 574 700 303 695 241 c 0
 685 128 582 6 410 5 c 2
 406 5 l 2
 216 5 100 106 89 281 c 0
 81 393 79 578 79 633 c 0
 79 700 113 741 169 741 c 0
 170 741 171 741 173 741 c 0
 228 739 256 702 256 631 c 0
 256 618 255 598 254 573 c 0
 251 485 245 338 266 284 c 0
 287 228 314 179 399 179 c 0
 400 179 402 179 403 179 c 0
 485 180 524 214 534 291 c 0
 541 342 538 483 536 576 c 0
 535 606 535 631 535 644 c 0
 535 701 572 741 624 741 c 0
EndSplineSet
Substitution2: "'vrt2' Vertical Rotation & Alternates lookup 13 subtable" Japan1.8773
Substitution2: "'hwid' Half Widths lookup 7 subtable" Japan1.284
Substitution2: "'fwid' Full Widths lookup 6 subtable" Japan1.810
AlternateSubs2: "'aalt' Access All Alternates lookup 1 per glyph data 0" Japan1.284 Japan1.810 Japan1.10024 Japan1.10359 Japan1.10651 Japan1.10921 Japan1.11194 Japan1.11464 Japan1.11733 Japan1.9497 Japan1.8773
EndChar

StartChar: Japan1.55
Encoding: 55 86 55
Width: 766
Flags: W
LayerCount: 2
Fore
SplineSet
700 720 m 0
 747 691 748 640 734 604 c 0
 724 576 495 118 460 63 c 0
 441 33 408 15 371 15 c 0
 333 15 298 35 277 68 c 0
 211 175 49 570 36 605 c 0
 15 662 26 702 71 727 c 0
 81 733 93 736 104 736 c 0
 138 736 172 710 196 667 c 0
 222 620 360 301 378 258 c 1
 400 302 563 642 579 675 c 0
 593 702 626 731 662 731 c 0
 675 731 688 727 700 720 c 0
EndSplineSet
Substitution2: "'vrt2' Vertical Rotation & Alternates lookup 13 subtable" Japan1.8774
Substitution2: "'hwid' Half Widths lookup 7 subtable" Japan1.285
Substitution2: "'fwid' Full Widths lookup 6 subtable" Japan1.811
AlternateSubs2: "'aalt' Access All Alternates lookup 1 per glyph data 0" Japan1.285 Japan1.811 Japan1.10025 Japan1.10360 Japan1.10652 Japan1.10922 Japan1.11195 Japan1.11465 Japan1.11734 Japan1.9498 Japan1.8774
EndChar

StartChar: Japan1.56
Encoding: 56 87 56
Width: 858
Flags: W
LayerCount: 2
Fore
SplineSet
27 624 m 0
 19 682 45 717 81 729 c 0
 138 748 177 694 191 651 c 0
 211 591 290 315 290 315 c 1
 299 312 341 502 358 533 c 0
 387 587 468 595 501 529 c 0
 534 464 577 296 577 296 c 1
 590 291 656 583 684 665 c 0
 703 723 754 732 794 714 c 0
 826 700 840 653 829 620 c 0
 818 586 688 112 651 48 c 0
 614 -15 526 4 504 43 c 0
 477 89 430 247 430 247 c 1
 438 247 379 67 356 40 c 0
 317 -4 248 2 217 63 c 0
 184 127 33 581 27 624 c 0
EndSplineSet
Substitution2: "'vrt2' Vertical Rotation & Alternates lookup 13 subtable" Japan1.8775
Substitution2: "'hwid' Half Widths lookup 7 subtable" Japan1.286
Substitution2: "'fwid' Full Widths lookup 6 subtable" Japan1.812
AlternateSubs2: "'aalt' Access All Alternates lookup 1 per glyph data 0" Japan1.286 Japan1.812 Japan1.10026 Japan1.10361 Japan1.10653 Japan1.10923 Japan1.11196 Japan1.11466 Japan1.11735 Japan1.9499 Japan1.8775
EndChar

StartChar: Japan1.57
Encoding: 57 88 57
Width: 697
Flags: W
LayerCount: 2
Fore
SplineSet
453 375 m 1
 540 266 617 169 629 152 c 0
 662 106 675 70 627 26 c 0
 582 -15 527 16 491 57 c 0
 475 76 413 152 341 243 c 1
 259 147 190 66 176 53 c 0
 136 12 102 -8 50 33 c 0
 1 72 23 132 58 175 c 0
 75 196 148 282 231 381 c 1
 146 489 70 587 58 607 c 0
 29 654 50 701 77 722 c 0
 104 744 160 750 194 705 c 0
 206 687 270 607 344 513 c 1
 432 616 510 706 527 721 c 0
 569 758 620 745 646 722 c 0
 673 698 688 643 648 601 c 0
 631 583 546 484 453 375 c 1
EndSplineSet
Substitution2: "'vrt2' Vertical Rotation & Alternates lookup 13 subtable" Japan1.8776
Substitution2: "'hwid' Half Widths lookup 7 subtable" Japan1.287
Substitution2: "'fwid' Full Widths lookup 6 subtable" Japan1.813
AlternateSubs2: "'aalt' Access All Alternates lookup 1 per glyph data 0" Japan1.287 Japan1.813 Japan1.10027 Japan1.10362 Japan1.10654 Japan1.10924 Japan1.11197 Japan1.11467 Japan1.11736 Japan1.9500 Japan1.8776
EndChar

StartChar: Japan1.58
Encoding: 58 89 58
Width: 731
Flags: W
LayerCount: 2
Fore
SplineSet
44 616 m 0
 20 658 15 702 54 730 c 0
 94 759 146 746 180 707 c 0
 213 670 377 488 377 488 c 2
 385 481 550 702 580 725 c 0
 609 748 654 757 685 725 c 0
 716 694 706 636 683 601 c 0
 636 529 458 313 458 313 c 1
 475 308 458 124 457 78 c 0
 455 32 418 -4 374 -4 c 0
 321 -3 289 37 286 93 c 0
 283 149 285 324 285 324 c 2
 289 313 57 593 44 616 c 0
EndSplineSet
Substitution2: "'vrt2' Vertical Rotation & Alternates lookup 13 subtable" Japan1.8777
Substitution2: "'hwid' Half Widths lookup 7 subtable" Japan1.288
Substitution2: "'fwid' Full Widths lookup 6 subtable" Japan1.814
AlternateSubs2: "'aalt' Access All Alternates lookup 1 per glyph data 0" Japan1.288 Japan1.814 Japan1.10028 Japan1.10363 Japan1.10655 Japan1.10925 Japan1.11198 Japan1.11468 Japan1.11737 Japan1.9501 Japan1.8777
EndChar

StartChar: Japan1.59
Encoding: 59 90 59
Width: 642
Flags: W
LayerCount: 2
Fore
SplineSet
140 567 m 0
 87 567 37 595 36 643 c 0
 34 692 68 732 140 733 c 0
 213 735 404 733 455 732 c 0
 507 730 541 703 553 667 c 0
 566 630 545 589 520 538 c 0
 499 497 259 162 259 162 c 1
 265 147 497 158 530 159 c 0
 581 161 607 125 610 86 c 0
 613 47 593 12 536 7 c 0
 479 3 180 4 135 5 c 0
 82 7 39 41 39 99 c 0
 39 156 100 218 130 266 c 0
 172 335 348 570 348 570 c 1
 354 557 172 567 140 567 c 0
EndSplineSet
Substitution2: "'vrt2' Vertical Rotation & Alternates lookup 13 subtable" Japan1.8778
Substitution2: "'hwid' Half Widths lookup 7 subtable" Japan1.289
Substitution2: "'fwid' Full Widths lookup 6 subtable" Japan1.815
AlternateSubs2: "'aalt' Access All Alternates lookup 1 per glyph data 0" Japan1.289 Japan1.815 Japan1.10029 Japan1.10364 Japan1.10656 Japan1.10926 Japan1.11199 Japan1.11469 Japan1.11738 Japan1.9502 Japan1.8778
EndChar

StartChar: Japan1.60
Encoding: 60 91 60
Width: 386
Flags: W
LayerCount: 2
Fore
SplineSet
74 722 m 0
 71 781 110 810 151 810 c 0
 192 810 288 809 315 809 c 0
 358 807 363 780 360 746 c 0
 357 709 332 692 297 692 c 1
 269 677 204 690 204 690 c 1
 206 673 195 377 198 289 c 1
 212 189 199 80 199 80 c 1
 213 70 283 77 315 74 c 0
 348 71 359 44 359 18 c 1
 376 -18 350 -41 303 -44 c 1
 265 -54 186 -48 151 -45 c 1
 118 -55 80 -27 74 26 c 0
 71 68 77 675 74 722 c 0
EndSplineSet
Substitution2: "'vrt2' Vertical Rotation & Alternates lookup 13 subtable" Japan1.8779
Substitution2: "'hwid' Half Widths lookup 7 subtable" Japan1.290
Substitution2: "'fwid' Full Widths lookup 6 subtable" Japan1.678
AlternateSubs2: "'aalt' Access All Alternates lookup 1 per glyph data 0" Japan1.290 Japan1.678 Japan1.7903 Japan1.9503 Japan1.8779
EndChar

StartChar: Japan1.62
Encoding: 62 93 62
Width: 396
Flags: W
LayerCount: 2
Fore
SplineSet
318 722 m 0
 315 675 331 68 318 26 c 1
 313 -27 284 -55 242 -45 c 1
 207 -48 137 -54 89 -44 c 1
 42 -41 43 -18 33 18 c 1
 33 44 45 71 77 74 c 0
 110 77 206 70 194 80 c 1
 194 80 207 189 195 289 c 1
 198 377 195 673 189 690 c 1
 189 690 132 677 96 692 c 1
 60 692 35 709 33 746 c 0
 30 780 62 807 78 809 c 0
 104 809 201 810 242 810 c 0
 283 810 322 781 318 722 c 0
EndSplineSet
Substitution2: "'vrt2' Vertical Rotation & Alternates lookup 13 subtable" Japan1.8781
Substitution2: "'hwid' Half Widths lookup 7 subtable" Japan1.292
Substitution2: "'fwid' Full Widths lookup 6 subtable" Japan1.679
AlternateSubs2: "'aalt' Access All Alternates lookup 1 per glyph data 0" Japan1.292 Japan1.679 Japan1.7904 Japan1.9505 Japan1.8781
EndChar

StartChar: Japan1.63
Encoding: 63 94 63
Width: 625
Flags: W
LayerCount: 2
Fore
SplineSet
326 602 m 1
 326 602 164 324 141 295 c 1
 127 254 76 253 54 263 c 0
 31 273 8 306 27 350 c 0
 45 393 125 513 174 589 c 0
 224 666 264 755 288 769 c 0
 313 783 367 779 390 746 c 0
 412 713 548 449 564 412 c 0
 581 374 618 317 608 290 c 0
 597 263 556 246 523 259 c 0
 490 271 452 356 417 420 c 0
 382 484 326 602 326 602 c 1
EndSplineSet
Substitution2: "'vrt2' Vertical Rotation & Alternates lookup 13 subtable" Japan1.8782
Substitution2: "'hwid' Half Widths lookup 7 subtable" Japan1.293
Substitution2: "'fwid' Full Widths lookup 6 subtable" Japan1.648
AlternateSubs2: "'aalt' Access All Alternates lookup 1 per glyph data 0" Japan1.128 Japan1.293 Japan1.648 Japan1.9506 Japan1.8782
EndChar

StartChar: Japan1.64
Encoding: 64 95 64
Width: 548
Flags: W
LayerCount: 2
Fore
SplineSet
438 -28 m 0
 484 -28 528 -35 531 -88 c 0
 532 -103 528 -116 519 -126 c 0
 500 -147 464 -151 432 -153 c 0
 410 -154 319 -154 273 -154 c 0
 154 -154 114 -153 90 -152 c 0
 26 -149 17 -117 17 -97 c 0
 17 -57 46 -30 93 -27 c 0
 102 -26 216 -26 265 -26 c 0
 351 -26 303 -27 379 -27 c 0
 412 -27 431 -28 438 -28 c 0
EndSplineSet
Substitution2: "'vrt2' Vertical Rotation & Alternates lookup 13 subtable" Japan1.8783
Substitution2: "'hwid' Half Widths lookup 7 subtable" Japan1.294
Substitution2: "'fwid' Full Widths lookup 6 subtable" Japan1.650
AlternateSubs2: "'aalt' Access All Alternates lookup 1 per glyph data 0" Japan1.294 Japan1.650 Japan1.7890 Japan1.9507 Japan1.8783
EndChar

StartChar: Japan1.65
Encoding: 65 96 65
Width: 440
Flags: W
LayerCount: 2
Fore
SplineSet
199 751 m 0
 220 735 257 702 277 670 c 0
 305 625 261 585 232 597 c 0
 201 610 148 631 121 655 c 0
 93 678 89 723 118 750 c 0
 147 777 170 772 199 751 c 0
EndSplineSet
Substitution2: "'vrt2' Vertical Rotation & Alternates lookup 13 subtable" Japan1.8784
Substitution2: "'hwid' Half Widths lookup 7 subtable" Japan1.390
Substitution2: "'fwid' Full Widths lookup 6 subtable" Japan1.646
AlternateSubs2: "'aalt' Access All Alternates lookup 1 per glyph data 0" Japan1.390 Japan1.646 Japan1.9508 Japan1.8784
EndChar

StartChar: Japan1.66
Encoding: 66 97 66
Width: 639
Flags: W
LayerCount: 2
Fore
SplineSet
419 45 m 1
 419 45 353 -4 255 4 c 0
 156 12 59 74 54 201 c 0
 50 291 69 397 197 459 c 0
 316 517 471 459 522 378 c 0
 596 262 565 118 564 69 c 0
 563 16 527 -9 482 -9 c 0
 437 -9 419 45 419 45 c 1
400 206 m 0
 421 248 410 315 332 336 c 0
 253 357 217 303 205 251 c 0
 194 200 230 143 298 143 c 0
 343 143 382 169 400 206 c 0
EndSplineSet
Substitution2: "'vrt2' Vertical Rotation & Alternates lookup 13 subtable" Japan1.8785
Substitution2: "'hwid' Half Widths lookup 7 subtable" Japan1.296
Substitution2: "'fwid' Full Widths lookup 6 subtable" Japan1.816
AlternateSubs2: "'aalt' Access All Alternates lookup 1 per glyph data 0" Japan1.296 Japan1.816 Japan1.8112 Japan1.10313 Japan1.10605 Japan1.10875 Japan1.11148 Japan1.11418 Japan1.11687 Japan1.9509 Japan1.8785
EndChar

StartChar: Japan1.67
Encoding: 67 98 67
Width: 627
Flags: W
LayerCount: 2
Fore
SplineSet
74 653 m 0
 72 715 123 744 167 739 c 0
 211 734 245 688 245 648 c 0
 245 609 248 492 248 492 c 1
 264 488 433 510 515 411 c 0
 596 313 596 181 534 94 c 0
 473 7 326 -3 243 0 c 0
 160 2 88 -4 79 101 c 0
 69 207 76 585 74 653 c 0
233 183 m 0
 235 140 320 138 363 162 c 0
 408 186 421 244 398 287 c 0
 372 337 321 337 284 337 c 0
 246 337 230 321 230 283 c 0
 230 253 230 221 233 183 c 0
EndSplineSet
Substitution2: "'vrt2' Vertical Rotation & Alternates lookup 13 subtable" Japan1.8786
Substitution2: "'hwid' Half Widths lookup 7 subtable" Japan1.297
Substitution2: "'fwid' Full Widths lookup 6 subtable" Japan1.817
AlternateSubs2: "'aalt' Access All Alternates lookup 1 per glyph data 0" Japan1.297 Japan1.817 Japan1.8113 Japan1.10314 Japan1.10606 Japan1.10876 Japan1.11149 Japan1.11419 Japan1.11688 Japan1.9510 Japan1.8786
EndChar

StartChar: Japan1.68
Encoding: 68 99 68
Width: 553
Flags: W
LayerCount: 2
Fore
SplineSet
427 7 m 0
 382 -6 327 -12 231 12 c 0
 136 34 59 123 51 242 c 0
 44 362 106 475 236 510 c 0
 340 539 426 510 465 485 c 0
 490 469 522 437 503 382 c 0
 488 337 450 318 408 333 c 0
 343 356 254 360 236 277 c 0
 226 226 250 183 333 173 c 0
 377 168 430 183 459 176 c 0
 478 172 514 153 514 96 c 0
 514 43 469 19 427 7 c 0
EndSplineSet
Substitution2: "'vrt2' Vertical Rotation & Alternates lookup 13 subtable" Japan1.8787
Substitution2: "'hwid' Half Widths lookup 7 subtable" Japan1.298
Substitution2: "'fwid' Full Widths lookup 6 subtable" Japan1.818
AlternateSubs2: "'aalt' Access All Alternates lookup 1 per glyph data 0" Japan1.298 Japan1.818 Japan1.8114 Japan1.10315 Japan1.10607 Japan1.10877 Japan1.11150 Japan1.11420 Japan1.11689 Japan1.9511 Japan1.8787
EndChar

StartChar: Japan1.69
Encoding: 69 100 69
Width: 629
Flags: W
LayerCount: 2
Fore
SplineSet
553 104 m 0
 544 -2 473 4 390 1 c 0
 307 -3 160 6 98 92 c 0
 35 178 34 310 114 409 c 0
 195 509 380 492 380 492 c 2
 385 490 381 610 380 649 c 0
 380 688 414 735 458 741 c 0
 502 746 553 717 552 656 c 0
 550 587 562 209 553 104 c 0
400 284 m 0
 400 322 383 337 346 337 c 0
 308 337 258 336 231 286 c 0
 209 243 223 185 268 161 c 0
 311 138 396 141 398 184 c 0
 400 222 400 254 400 284 c 0
EndSplineSet
Substitution2: "'vrt2' Vertical Rotation & Alternates lookup 13 subtable" Japan1.8788
Substitution2: "'hwid' Half Widths lookup 7 subtable" Japan1.299
Substitution2: "'fwid' Full Widths lookup 6 subtable" Japan1.819
AlternateSubs2: "'aalt' Access All Alternates lookup 1 per glyph data 0" Japan1.299 Japan1.819 Japan1.8115 Japan1.10316 Japan1.10608 Japan1.10878 Japan1.11151 Japan1.11421 Japan1.11690 Japan1.9512 Japan1.8788
EndChar

StartChar: Japan1.70
Encoding: 70 101 70
Width: 535
Flags: W
LayerCount: 2
Fore
SplineSet
53 277 m 0
 53 372 113 496 230 508 c 0
 347 521 419 480 460 405 c 0
 500 331 481 256 417 215 c 0
 365 182 236 191 236 191 c 1
 246 186 255 127 377 155 c 0
 425 166 481 111 450 56 c 0
 432 23 372 -17 246 5 c 0
 143 23 53 87 53 277 c 0
340 345 m 0
 332 378 291 395 253 380 c 1
 225 354 211 326 230 311 c 0
 258 291 351 306 340 345 c 0
EndSplineSet
Substitution2: "'vrt2' Vertical Rotation & Alternates lookup 13 subtable" Japan1.8789
Substitution2: "'hwid' Half Widths lookup 7 subtable" Japan1.300
Substitution2: "'fwid' Full Widths lookup 6 subtable" Japan1.820
AlternateSubs2: "'aalt' Access All Alternates lookup 1 per glyph data 0" Japan1.300 Japan1.820 Japan1.8116 Japan1.10317 Japan1.10609 Japan1.10879 Japan1.11152 Japan1.11422 Japan1.11691 Japan1.9513 Japan1.8789
EndChar

StartChar: Japan1.71
Encoding: 71 102 71
Width: 595
Flags: W
LayerCount: 2
Fore
SplineSet
506 707 m 0
 564 668 572 621 553 582 c 0
 533 543 488 530 466 542 c 0
 444 554 406 561 387 533 c 0
 378 522 372 509 367 494 c 1
 401 493 428 492 442 491 c 0
 491 486 516 432 518 393 c 0
 521 346 479 312 425 311 c 0
 406 310 382 309 356 308 c 1
 354 219 351 107 351 78 c 0
 351 36 312 1 278 -1 c 0
 244 -4 204 24 199 71 c 0
 195 103 196 207 197 305 c 1
 190 305 184 305 179 306 c 0
 106 310 41 316 30 372 c 0
 17 433 44 488 118 493 c 0
 138 495 167 495 200 496 c 1
 200 593 237 644 286 685 c 0
 335 727 447 746 506 707 c 0
EndSplineSet
Substitution2: "'vrt2' Vertical Rotation & Alternates lookup 13 subtable" Japan1.8790
Substitution2: "'hwid' Half Widths lookup 7 subtable" Japan1.301
Substitution2: "'fwid' Full Widths lookup 6 subtable" Japan1.821
AlternateSubs2: "'aalt' Access All Alternates lookup 1 per glyph data 0" Japan1.301 Japan1.821 Japan1.8117 Japan1.10318 Japan1.10610 Japan1.10880 Japan1.11153 Japan1.11423 Japan1.11692 Japan1.9514 Japan1.8790
EndChar

StartChar: Japan1.72
Encoding: 72 103 72
Width: 589
Flags: W
LayerCount: 2
Fore
SplineSet
369 111 m 1
 319 108 194 88 118 154 c 0
 53 210 32 340 65 415 c 0
 112 521 225 572 341 541 c 0
 441 515 502 434 521 300 c 0
 537 184 529 19 461 -69 c 0
 414 -130 337 -164 246 -159 c 0
 159 -154 97 -111 84 -63 c 0
 74 -23 103 33 154 28 c 0
 205 22 232 3 270 10 c 0
 335 21 375 49 369 111 c 1
359 295 m 0
 372 330 355 359 333 383 c 0
 312 406 240 417 213 375 c 0
 185 334 215 270 255 264 c 0
 301 257 345 258 359 295 c 0
EndSplineSet
Substitution2: "'vrt2' Vertical Rotation & Alternates lookup 13 subtable" Japan1.8791
Substitution2: "'hwid' Half Widths lookup 7 subtable" Japan1.302
Substitution2: "'fwid' Full Widths lookup 6 subtable" Japan1.822
AlternateSubs2: "'aalt' Access All Alternates lookup 1 per glyph data 0" Japan1.302 Japan1.822 Japan1.8118 Japan1.10319 Japan1.10611 Japan1.10881 Japan1.11154 Japan1.11424 Japan1.11693 Japan1.9515 Japan1.8791
EndChar

StartChar: Japan1.73
Encoding: 73 104 73
Width: 635
Flags: W
LayerCount: 2
Fore
SplineSet
77 643 m 0
 81 695 82 746 149 746 c 0
 216 746 238 687 238 643 c 0
 239 581 246 458 246 458 c 2
 248 457 327 493 443 441 c 0
 516 408 553 334 561 233 c 0
 567 155 564 85 560 62 c 0
 556 36 538 0 488 0 c 0
 434 0 411 38 408 69 c 0
 405 100 406 195 404 225 c 0
 397 331 246 329 241 222 c 0
 240 191 243 119 239 91 c 0
 228 26 204 4 158 0 c 0
 106 -4 87 26 82 87 c 0
 77 137 74 613 77 643 c 0
EndSplineSet
Substitution2: "'vrt2' Vertical Rotation & Alternates lookup 13 subtable" Japan1.8792
Substitution2: "'hwid' Half Widths lookup 7 subtable" Japan1.303
Substitution2: "'fwid' Full Widths lookup 6 subtable" Japan1.823
AlternateSubs2: "'aalt' Access All Alternates lookup 1 per glyph data 0" Japan1.303 Japan1.823 Japan1.8119 Japan1.10320 Japan1.10612 Japan1.10882 Japan1.11155 Japan1.11425 Japan1.11694 Japan1.9516 Japan1.8792
EndChar

StartChar: Japan1.74
Encoding: 74 105 74
Width: 335
Flags: W
LayerCount: 2
Fore
SplineSet
177 477 m 0
 114 473 68 525 75 584 c 0
 85 663 173 682 208 663 c 0
 249 642 267 608 267 566 c 0
 267 524 240 482 177 477 c 0
80 103 m 0
 75 156 73 253 79 333 c 0
 84 412 133 438 174 440 c 0
 223 440 258 400 258 315 c 0
 258 227 263 126 253 73 c 0
 242 20 214 -13 161 -9 c 0
 92 -3 86 50 80 103 c 0
EndSplineSet
Substitution2: "'vrt2' Vertical Rotation & Alternates lookup 13 subtable" Japan1.8793
Substitution2: "'hwid' Half Widths lookup 7 subtable" Japan1.304
Substitution2: "'fwid' Full Widths lookup 6 subtable" Japan1.824
AlternateSubs2: "'aalt' Access All Alternates lookup 1 per glyph data 0" Japan1.304 Japan1.824 Japan1.8120 Japan1.10321 Japan1.10613 Japan1.10883 Japan1.11156 Japan1.11426 Japan1.11695 Japan1.9517 Japan1.8793
EndChar

StartChar: Japan1.75
Encoding: 75 106 75
Width: 539
Flags: W
LayerCount: 2
Fore
SplineSet
376 474 m 0
 331 478 288 521 288 564 c 0
 288 606 322 675 390 669 c 0
 458 663 489 602 487 565 c 0
 484 528 441 468 376 474 c 0
298 316 m 0
 296 383 331 435 392 435 c 0
 453 435 464 386 467 319 c 0
 470 252 463 133 456 48 c 0
 447 -60 352 -124 277 -137 c 0
 190 -151 106 -130 56 -80 c 0
 30 -53 16 12 51 50 c 0
 78 80 124 78 158 57 c 0
 191 36 237 35 262 46 c 0
 324 74 301 211 298 316 c 0
EndSplineSet
Substitution2: "'vrt2' Vertical Rotation & Alternates lookup 13 subtable" Japan1.8794
Substitution2: "'hwid' Half Widths lookup 7 subtable" Japan1.305
Substitution2: "'fwid' Full Widths lookup 6 subtable" Japan1.825
AlternateSubs2: "'aalt' Access All Alternates lookup 1 per glyph data 0" Japan1.305 Japan1.825 Japan1.8121 Japan1.10322 Japan1.10614 Japan1.10884 Japan1.11157 Japan1.11427 Japan1.11696 Japan1.9518 Japan1.8794
EndChar

StartChar: Japan1.76
Encoding: 76 107 76
Width: 548
Flags: W
LayerCount: 2
Fore
SplineSet
345 276 m 1
 345 276 457 162 481 133 c 0
 505 104 498 47 481 27 c 0
 465 9 407 -18 358 25 c 0
 334 46 280 101 236 145 c 1
 236 109 236 83 235 75 c 0
 233 37 206 -1 154 -6 c 0
 102 -10 79 30 82 80 c 0
 84 129 77 603 77 644 c 0
 77 689 87 736 143 736 c 0
 199 736 235 694 235 648 c 0
 235 629 236 525 236 410 c 1
 284 448 352 501 375 517 c 0
 414 544 472 534 491 498 c 0
 510 462 503 413 467 384 c 0
 431 356 345 276 345 276 c 1
EndSplineSet
Substitution2: "'vrt2' Vertical Rotation & Alternates lookup 13 subtable" Japan1.8795
Substitution2: "'hwid' Half Widths lookup 7 subtable" Japan1.306
Substitution2: "'fwid' Full Widths lookup 6 subtable" Japan1.826
AlternateSubs2: "'aalt' Access All Alternates lookup 1 per glyph data 0" Japan1.306 Japan1.826 Japan1.8122 Japan1.10323 Japan1.10615 Japan1.10885 Japan1.11158 Japan1.11428 Japan1.11697 Japan1.9519 Japan1.8795
EndChar

StartChar: Japan1.77
Encoding: 77 108 77
Width: 318
Flags: W
LayerCount: 2
Fore
SplineSet
241 106 m 0
 238 44 237 4 166 0 c 0
 100 -5 79 59 77 118 c 0
 74 189 75 580 82 639 c 0
 89 698 133 724 171 724 c 0
 208 724 248 691 246 630 c 0
 244 568 243 157 241 106 c 0
EndSplineSet
Substitution2: "'vrt2' Vertical Rotation & Alternates lookup 13 subtable" Japan1.8796
Substitution2: "'hwid' Half Widths lookup 7 subtable" Japan1.307
Substitution2: "'fwid' Full Widths lookup 6 subtable" Japan1.827
AlternateSubs2: "'aalt' Access All Alternates lookup 1 per glyph data 0" Japan1.307 Japan1.827 Japan1.8025 Japan1.8123 Japan1.10324 Japan1.10616 Japan1.10886 Japan1.11159 Japan1.11429 Japan1.11698 Japan1.11863 Japan1.9520 Japan1.8796
EndChar

StartChar: Japan1.78
Encoding: 78 109 78
Width: 815
Flags: W
LayerCount: 2
Fore
SplineSet
75 419 m 0
 75 474 105 511 147 511 c 0
 188 511 213 502 231 458 c 1
 231 458 279 502 344 500 c 0
 418 496 453 445 453 445 c 1
 460 431 525 498 593 491 c 0
 661 485 728 430 740 333 c 0
 753 236 740 86 737 50 c 0
 734 15 707 -8 668 -8 c 0
 630 -8 609 16 603 55 c 0
 596 94 606 239 600 275 c 0
 593 310 571 320 545 320 c 0
 519 320 506 310 496 275 c 0
 487 239 490 92 487 57 c 0
 484 21 452 -2 413 -2 c 0
 374 -2 358 21 349 53 c 0
 339 85 342 242 338 274 c 0
 335 306 325 329 293 332 c 0
 261 335 242 316 235 284 c 0
 229 252 232 67 225 38 c 0
 219 9 190 -11 158 -11 c 0
 126 -11 82 8 79 57 c 0
 75 135 75 373 75 419 c 0
EndSplineSet
Substitution2: "'vrt2' Vertical Rotation & Alternates lookup 13 subtable" Japan1.8797
Substitution2: "'hwid' Half Widths lookup 7 subtable" Japan1.308
Substitution2: "'fwid' Full Widths lookup 6 subtable" Japan1.828
AlternateSubs2: "'aalt' Access All Alternates lookup 1 per glyph data 0" Japan1.308 Japan1.828 Japan1.8124 Japan1.10325 Japan1.10617 Japan1.10887 Japan1.11160 Japan1.11430 Japan1.11699 Japan1.9521 Japan1.8797
EndChar

StartChar: Japan1.79
Encoding: 79 110 79
Width: 644
Flags: W
LayerCount: 2
Fore
SplineSet
76 427 m 0
 81 483 113 509 150 512 c 0
 186 514 229 481 232 455 c 1
 232 455 279 508 390 483 c 0
 494 461 548 394 565 282 c 0
 577 203 574 91 571 57 c 0
 568 23 546 -7 509 -10 c 0
 473 -12 437 3 432 57 c 0
 427 119 430 203 425 258 c 0
 419 319 387 336 334 336 c 0
 280 336 230 316 232 236 c 0
 233 171 232 96 231 56 c 0
 229 11 199 -8 160 -10 c 0
 120 -13 92 8 83 62 c 0
 75 115 70 365 76 427 c 0
EndSplineSet
Substitution2: "'vrt2' Vertical Rotation & Alternates lookup 13 subtable" Japan1.8798
Substitution2: "'hwid' Half Widths lookup 7 subtable" Japan1.309
Substitution2: "'fwid' Full Widths lookup 6 subtable" Japan1.829
AlternateSubs2: "'aalt' Access All Alternates lookup 1 per glyph data 0" Japan1.309 Japan1.829 Japan1.8125 Japan1.10326 Japan1.10618 Japan1.10888 Japan1.11161 Japan1.11431 Japan1.11700 Japan1.9522 Japan1.8798
EndChar

StartChar: Japan1.80
Encoding: 80 111 80
Width: 594
Flags: W
LayerCount: 2
Fore
SplineSet
295 -5 m 0
 196 -5 83 53 52 190 c 0
 26 306 81 499 291 497 c 0
 500 495 553 329 548 222 c 0
 541 104 454 -5 295 -5 c 0
395 221 m 0
 404 250 405 309 342 340 c 0
 270 376 209 315 199 278 c 0
 188 234 206 170 275 157 c 0
 342 143 385 181 395 221 c 0
EndSplineSet
Substitution2: "'vrt2' Vertical Rotation & Alternates lookup 13 subtable" Japan1.8799
Substitution2: "'hwid' Half Widths lookup 7 subtable" Japan1.310
Substitution2: "'fwid' Full Widths lookup 6 subtable" Japan1.830
AlternateSubs2: "'aalt' Access All Alternates lookup 1 per glyph data 0" Japan1.310 Japan1.830 Japan1.8126 Japan1.10327 Japan1.10619 Japan1.10889 Japan1.11162 Japan1.11432 Japan1.11701 Japan1.9523 Japan1.8799
EndChar

StartChar: Japan1.81
Encoding: 81 112 81
Width: 592
Flags: W
LayerCount: 2
Fore
SplineSet
77 415 m 0
 87 521 146 514 230 517 c 0
 313 519 446 509 508 422 c 0
 569 335 569 198 488 100 c 0
 406 1 235 20 235 20 c 1
 246 3 236 -37 236 -77 c 0
 236 -116 209 -162 165 -167 c 0
 121 -172 81 -143 83 -82 c 0
 86 -13 68 310 77 415 c 0
217 234 m 0
 217 196 233 180 270 180 c 0
 308 180 358 180 385 230 c 0
 408 273 394 331 350 355 c 0
 307 378 222 376 219 333 c 0
 217 296 217 263 217 234 c 0
EndSplineSet
Substitution2: "'vrt2' Vertical Rotation & Alternates lookup 13 subtable" Japan1.8800
Substitution2: "'hwid' Half Widths lookup 7 subtable" Japan1.311
Substitution2: "'fwid' Full Widths lookup 6 subtable" Japan1.831
AlternateSubs2: "'aalt' Access All Alternates lookup 1 per glyph data 0" Japan1.311 Japan1.831 Japan1.8127 Japan1.10328 Japan1.10620 Japan1.10890 Japan1.11163 Japan1.11433 Japan1.11702 Japan1.9524 Japan1.8800
EndChar

StartChar: Japan1.82
Encoding: 82 113 82
Width: 585
Flags: W
LayerCount: 2
Fore
SplineSet
510 -82 m 0
 513 -143 473 -172 429 -167 c 0
 385 -162 357 -116 357 -77 c 0
 357 -38 359 20 359 20 c 1
 364 3 188 1 106 100 c 0
 25 198 25 335 86 422 c 0
 148 509 281 519 364 517 c 0
 448 514 507 521 516 415 c 0
 526 310 508 -13 510 -82 c 0
375 333 m 0
 372 376 287 378 244 355 c 0
 199 331 186 273 209 230 c 0
 235 180 286 180 323 180 c 0
 361 180 377 196 377 234 c 0
 377 263 377 296 375 333 c 0
EndSplineSet
Substitution2: "'vrt2' Vertical Rotation & Alternates lookup 13 subtable" Japan1.8801
Substitution2: "'hwid' Half Widths lookup 7 subtable" Japan1.312
Substitution2: "'fwid' Full Widths lookup 6 subtable" Japan1.832
AlternateSubs2: "'aalt' Access All Alternates lookup 1 per glyph data 0" Japan1.312 Japan1.832 Japan1.8128 Japan1.10329 Japan1.10621 Japan1.10891 Japan1.11164 Japan1.11434 Japan1.11703 Japan1.9525 Japan1.8801
EndChar

StartChar: Japan1.83
Encoding: 83 114 83
Width: 544
Flags: W
LayerCount: 2
Fore
SplineSet
72 417 m 0
 68 488 88 529 141 529 c 0
 194 529 223 497 223 448 c 0
 223 400 223 397 223 397 c 1
 237 387 282 454 352 477 c 0
 423 499 492 489 505 431 c 0
 519 374 489 348 410 326 c 0
 325 302 270 251 248 174 c 0
 230 112 244 22 185 7 c 0
 89 -19 93 38 85 86 c 0
 76 135 77 346 72 417 c 0
EndSplineSet
Substitution2: "'vrt2' Vertical Rotation & Alternates lookup 13 subtable" Japan1.8802
Substitution2: "'hwid' Half Widths lookup 7 subtable" Japan1.313
Substitution2: "'fwid' Full Widths lookup 6 subtable" Japan1.833
AlternateSubs2: "'aalt' Access All Alternates lookup 1 per glyph data 0" Japan1.313 Japan1.833 Japan1.8129 Japan1.10330 Japan1.10622 Japan1.10892 Japan1.11165 Japan1.11435 Japan1.11704 Japan1.9526 Japan1.8802
EndChar

StartChar: Japan1.84
Encoding: 84 115 84
Width: 492
Flags: W
LayerCount: 2
Fore
SplineSet
86 435 m 0
 116 536 189 554 259 557 c 0
 347 560 414 530 432 489 c 0
 449 450 430 390 370 389 c 0
 318 389 274 426 243 389 c 0
 213 353 279 336 312 309 c 0
 361 268 437 198 408 92 c 0
 383 2 328 -32 224 -30 c 0
 115 -29 74 6 52 35 c 0
 30 63 51 165 134 147 c 0
 190 135 252 114 263 143 c 0
 280 186 194 207 153 245 c 0
 100 293 63 357 86 435 c 0
EndSplineSet
Substitution2: "'vrt2' Vertical Rotation & Alternates lookup 13 subtable" Japan1.8803
Substitution2: "'hwid' Half Widths lookup 7 subtable" Japan1.314
Substitution2: "'fwid' Full Widths lookup 6 subtable" Japan1.834
AlternateSubs2: "'aalt' Access All Alternates lookup 1 per glyph data 0" Japan1.314 Japan1.834 Japan1.8130 Japan1.10331 Japan1.10623 Japan1.10893 Japan1.11166 Japan1.11436 Japan1.11705 Japan1.9527 Japan1.8803
EndChar

StartChar: Japan1.85
Encoding: 85 116 85
Width: 513
Flags: W
LayerCount: 2
Fore
SplineSet
406 509 m 0
 469 501 488 446 487 415 c 0
 486 372 446 341 384 341 c 0
 377 341 340 341 332 341 c 1
 332 244 332 128 332 95 c 0
 332 37 314 -3 261 -3 c 0
 207 -3 191 31 184 98 c 0
 180 147 180 252 181 341 c 1
 123 339 26 345 26 412 c 0
 26 484 113 511 190 513 c 1
 192 599 204 638 269 638 c 0
 334 638 334 569 334 512 c 1
 347 511 395 510 406 509 c 0
EndSplineSet
Substitution2: "'vrt2' Vertical Rotation & Alternates lookup 13 subtable" Japan1.8804
Substitution2: "'hwid' Half Widths lookup 7 subtable" Japan1.315
Substitution2: "'fwid' Full Widths lookup 6 subtable" Japan1.835
AlternateSubs2: "'aalt' Access All Alternates lookup 1 per glyph data 0" Japan1.315 Japan1.835 Japan1.8131 Japan1.10332 Japan1.10624 Japan1.10894 Japan1.11167 Japan1.11437 Japan1.11706 Japan1.9528 Japan1.8804
EndChar

StartChar: Japan1.86
Encoding: 86 117 86
Width: 624
Flags: W
LayerCount: 2
Fore
SplineSet
67 396 m 0
 62 480 87 509 143 512 c 0
 200 516 224 459 227 414 c 0
 229 369 223 185 256 168 c 0
 288 150 363 147 385 194 c 0
 408 241 397 397 401 443 c 0
 404 489 435 511 486 507 c 0
 537 504 551 465 555 374 c 0
 558 298 578 44 396 7 c 0
 215 -30 108 28 80 169 c 0
 52 311 70 350 67 396 c 0
EndSplineSet
Substitution2: "'vrt2' Vertical Rotation & Alternates lookup 13 subtable" Japan1.8805
Substitution2: "'hwid' Half Widths lookup 7 subtable" Japan1.316
Substitution2: "'fwid' Full Widths lookup 6 subtable" Japan1.836
AlternateSubs2: "'aalt' Access All Alternates lookup 1 per glyph data 0" Japan1.316 Japan1.836 Japan1.8132 Japan1.10333 Japan1.10625 Japan1.10895 Japan1.11168 Japan1.11438 Japan1.11707 Japan1.9529 Japan1.8805
EndChar

StartChar: Japan1.87
Encoding: 87 118 87
Width: 692
Flags: W
LayerCount: 2
Fore
SplineSet
37 379 m 0
 15 437 19 475 66 503 c 0
 115 531 160 500 190 444 c 0
 220 389 333 191 333 191 c 1
 346 186 482 418 506 453 c 0
 530 488 573 528 625 495 c 0
 677 463 666 409 654 378 c 0
 643 347 487 119 452 62 c 0
 401 -19 276 -31 216 67 c 0
 143 185 53 333 37 379 c 0
EndSplineSet
Substitution2: "'vrt2' Vertical Rotation & Alternates lookup 13 subtable" Japan1.8806
Substitution2: "'hwid' Half Widths lookup 7 subtable" Japan1.317
Substitution2: "'fwid' Full Widths lookup 6 subtable" Japan1.837
AlternateSubs2: "'aalt' Access All Alternates lookup 1 per glyph data 0" Japan1.317 Japan1.837 Japan1.8133 Japan1.10334 Japan1.10626 Japan1.10896 Japan1.11169 Japan1.11439 Japan1.11708 Japan1.9530 Japan1.8806
EndChar

StartChar: Japan1.88
Encoding: 88 119 88
Width: 723
Flags: W
LayerCount: 2
Fore
SplineSet
685 468 m 0
 693 449 694 429 687 411 c 0
 685 406 680 390 672 366 c 0
 620 213 568 67 546 35 c 0
 529 10 516 -4 482 -4 c 0
 449 -4 438 10 424 31 c 0
 412 49 372 169 361 173 c 1
 361 173 307 38 294 26 c 0
 276 9 274 -1 249 -1 c 0
 214 -1 199 17 181 46 c 0
 155 90 36 382 30 419 c 0
 22 466 30 504 74 517 c 0
 83 519 91 521 100 521 c 0
 148 521 180 482 193 449 c 0
 203 424 232 339 250 287 c 1
 263 324 284 382 292 395 c 0
 308 420 327 436 360 436 c 0
 393 436 412 419 428 392 c 0
 442 368 464 310 476 275 c 1
 495 331 527 424 541 459 c 0
 554 493 584 513 622 513 c 0
 635 513 637 511 650 506 c 0
 667 500 676 486 685 468 c 0
EndSplineSet
Substitution2: "'vrt2' Vertical Rotation & Alternates lookup 13 subtable" Japan1.8807
Substitution2: "'hwid' Half Widths lookup 7 subtable" Japan1.318
Substitution2: "'fwid' Full Widths lookup 6 subtable" Japan1.838
AlternateSubs2: "'aalt' Access All Alternates lookup 1 per glyph data 0" Japan1.318 Japan1.838 Japan1.8134 Japan1.10335 Japan1.10627 Japan1.10897 Japan1.11170 Japan1.11440 Japan1.11709 Japan1.9531 Japan1.8807
EndChar

StartChar: Japan1.89
Encoding: 89 120 89
Width: 552
Flags: W
LayerCount: 2
Fore
SplineSet
499 150 m 0
 516 125 564 79 503 26 c 0
 488 12 470 5 451 5 c 0
 422 5 390 23 364 54 c 0
 354 66 319 106 275 151 c 1
 223 96 180 51 170 41 c 0
 151 22 130 4 101 4 c 0
 84 4 72 6 53 20 c 0
 37 33 27 51 24 70 c 0
 21 106 42 139 56 155 c 0
 67 169 110 215 160 268 c 1
 101 329 61 371 52 387 c 0
 24 433 31 477 63 502 c 0
 77 513 96 519 116 519 c 0
 145 519 170 506 187 482 c 0
 195 471 231 433 275 388 c 1
 323 437 362 477 373 487 c 0
 407 516 458 515 489 487 c 0
 505 472 510 456 510 433 c 0
 511 410 503 389 487 372 c 0
 476 361 437 320 390 271 c 1
 453 204 490 163 499 150 c 0
EndSplineSet
Substitution2: "'vrt2' Vertical Rotation & Alternates lookup 13 subtable" Japan1.8808
Substitution2: "'hwid' Half Widths lookup 7 subtable" Japan1.319
Substitution2: "'fwid' Full Widths lookup 6 subtable" Japan1.839
AlternateSubs2: "'aalt' Access All Alternates lookup 1 per glyph data 0" Japan1.319 Japan1.839 Japan1.8135 Japan1.10336 Japan1.10628 Japan1.10898 Japan1.11171 Japan1.11441 Japan1.11710 Japan1.9532 Japan1.8808
EndChar

StartChar: Japan1.90
Encoding: 90 121 90
Width: 613
Flags: W
LayerCount: 2
Fore
SplineSet
45 364 m 0
 16 427 15 466 60 497 c 0
 105 528 158 503 196 447 c 0
 231 396 300 289 300 289 c 1
 314 278 407 430 441 466 c 0
 464 490 516 521 561 473 c 0
 607 424 585 379 543 323 c 0
 502 267 280 -37 235 -75 c 0
 197 -107 165 -138 107 -92 c 0
 64 -59 94 6 129 58 c 0
 164 110 196 135 196 135 c 1
 211 128 66 319 45 364 c 0
EndSplineSet
Substitution2: "'vrt2' Vertical Rotation & Alternates lookup 13 subtable" Japan1.8809
Substitution2: "'hwid' Half Widths lookup 7 subtable" Japan1.320
Substitution2: "'fwid' Full Widths lookup 6 subtable" Japan1.840
AlternateSubs2: "'aalt' Access All Alternates lookup 1 per glyph data 0" Japan1.320 Japan1.840 Japan1.8136 Japan1.10337 Japan1.10629 Japan1.10899 Japan1.11172 Japan1.11442 Japan1.11711 Japan1.9533 Japan1.8809
EndChar

StartChar: Japan1.91
Encoding: 91 122 91
Width: 540
Flags: W
LayerCount: 2
Fore
SplineSet
115 358 m 0
 71 361 34 376 32 418 c 0
 30 460 60 503 124 505 c 0
 193 507 359 507 401 507 c 0
 443 507 501 443 462 388 c 0
 445 363 264 149 264 149 c 1
 269 138 419 144 448 142 c 0
 477 140 513 112 510 66 c 0
 506 20 471 -6 423 -6 c 1
 377 -14 155 -6 118 -6 c 0
 82 -6 49 31 41 56 c 0
 30 94 59 132 91 169 c 0
 124 205 263 361 263 361 c 1
 267 351 156 357 115 358 c 0
EndSplineSet
Substitution2: "'vrt2' Vertical Rotation & Alternates lookup 13 subtable" Japan1.8810
Substitution2: "'hwid' Half Widths lookup 7 subtable" Japan1.321
Substitution2: "'fwid' Full Widths lookup 6 subtable" Japan1.841
AlternateSubs2: "'aalt' Access All Alternates lookup 1 per glyph data 0" Japan1.321 Japan1.841 Japan1.8137 Japan1.10338 Japan1.10630 Japan1.10900 Japan1.11173 Japan1.11443 Japan1.11712 Japan1.9534 Japan1.8810
EndChar

StartChar: Japan1.92
Encoding: 92 123 92
Width: 346
Flags: W
LayerCount: 2
Fore
SplineSet
290 706 m 0
 274 693 246 661 246 627 c 0
 246 612 248 592 249 571 c 0
 253 533 257 490 252 454 c 0
 246 413 218 376 201 358 c 1
 216 340 239 306 242 263 c 0
 244 242 242 218 241 191 c 0
 237 147 234 97 250 72 c 0
 263 52 274 40 283 30 c 0
 294 18 304 7 306 -9 c 0
 308 -26 304 -40 295 -50 c 0
 286 -61 271 -67 252 -67 c 0
 207 -67 155 3 140 63 c 0
 131 99 135 143 138 181 c 0
 140 206 143 231 140 246 c 0
 137 262 127 276 116 290 c 0
 104 305 91 321 88 343 c 0
 82 379 97 410 130 434 c 0
 144 444 159 492 150 532 c 0
 142 568 119 691 173 752 c 0
 208 791 243 797 261 797 c 0
 280 797 297 791 305 781 c 0
 312 773 315 762 314 749 c 0
 312 733 304 717 290 706 c 0
EndSplineSet
Substitution2: "'vrt2' Vertical Rotation & Alternates lookup 13 subtable" Japan1.8811
Substitution2: "'hwid' Half Widths lookup 7 subtable" Japan1.322
Substitution2: "'fwid' Full Widths lookup 6 subtable" Japan1.680
AlternateSubs2: "'aalt' Access All Alternates lookup 1 per glyph data 0" Japan1.322 Japan1.680 Japan1.7905 Japan1.9535 Japan1.8811
EndChar

StartChar: Japan1.93
Encoding: 93 124 93
Width: 312
Flags: W
LayerCount: 2
Fore
SplineSet
225 717 m 0
 228 673 225 17 222 -18 c 0
 219 -76 187 -89 161 -89 c 0
 123 -89 93 -54 93 -10 c 0
 93 -1 93 26 93 64 c 0
 92 200 90 683 92 707 c 0
 95 746 105 786 147 792 c 0
 190 798 222 765 225 717 c 0
EndSplineSet
Substitution2: "'vrt2' Vertical Rotation & Alternates lookup 13 subtable" Japan1.8812
Substitution2: "'hwid' Half Widths lookup 7 subtable" Japan1.323
Substitution2: "'fwid' Full Widths lookup 6 subtable" Japan1.8005
AlternateSubs2: "'aalt' Access All Alternates lookup 1 per glyph data 0" Japan1.99 Japan1.323 Japan1.667 Japan1.7896 Japan1.8005 Japan1.9536 Japan1.8812
EndChar

StartChar: Japan1.94
Encoding: 94 125 94
Width: 356
Flags: W
LayerCount: 2
Fore
SplineSet
71 706 m 0
 58 717 49 733 48 749 c 0
 47 762 50 773 57 781 c 0
 65 791 82 797 100 797 c 0
 118 797 154 791 188 752 c 0
 243 691 220 568 212 532 c 0
 203 492 218 444 232 434 c 0
 265 410 279 379 274 343 c 0
 270 321 258 305 246 290 c 0
 235 276 225 262 222 246 c 0
 219 231 221 206 224 181 c 0
 227 143 231 99 222 63 c 0
 207 3 155 -67 110 -67 c 0
 91 -67 76 -61 66 -50 c 0
 57 -40 54 -26 56 -9 c 0
 58 7 67 18 79 30 c 0
 88 40 99 52 112 72 c 0
 128 97 124 147 121 191 c 0
 119 218 118 242 119 263 c 0
 123 306 146 340 160 358 c 1
 144 376 116 413 110 454 c 0
 105 490 109 533 112 571 c 0
 114 592 116 612 116 627 c 0
 116 661 88 693 71 706 c 0
EndSplineSet
Substitution2: "'vrt2' Vertical Rotation & Alternates lookup 13 subtable" Japan1.8813
Substitution2: "'hwid' Half Widths lookup 7 subtable" Japan1.324
Substitution2: "'fwid' Full Widths lookup 6 subtable" Japan1.681
AlternateSubs2: "'aalt' Access All Alternates lookup 1 per glyph data 0" Japan1.324 Japan1.681 Japan1.7906 Japan1.9537 Japan1.8813
EndChar

StartChar: Japan1.95
Encoding: 95 126 95
Width: 404
Flags: W
LayerCount: 2
Fore
SplineSet
118 680 m 0
 83 666 63 662 47 685 c 0
 30 708 37 744 69 767 c 0
 97 787 152 787 199 769 c 0
 237 754 284 754 305 762 c 0
 326 771 353 761 362 736 c 0
 372 711 365 680 323 663 c 0
 281 645 247 657 212 670 c 0
 176 684 144 690 118 680 c 0
EndSplineSet
Substitution2: "'vrt2' Vertical Rotation & Alternates lookup 13 subtable" Japan1.8814
Substitution2: "'hwid' Half Widths lookup 7 subtable" Japan1.631
Substitution2: "'fwid' Full Widths lookup 6 subtable" Japan1.665
AlternateSubs2: "'aalt' Access All Alternates lookup 1 per glyph data 0" Japan1.100 Japan1.631 Japan1.665 Japan1.7894 Japan1.9538 Japan1.8814
EndChar

StartChar: Japan1.97
Encoding: 97 92 97
Width: 520
Flags: W
LayerCount: 2
Fore
SplineSet
176 711 m 0
 194 671 278 523 309 448 c 0
 340 374 445 171 469 114 c 0
 494 57 482 20 459 8 c 0
 436 -3 397 -5 371 30 c 0
 344 66 279 189 247 256 c 0
 215 322 69 628 51 663 c 0
 32 697 18 745 70 773 c 0
 122 801 157 754 176 711 c 0
EndSplineSet
Substitution2: "'vrt2' Vertical Rotation & Alternates lookup 13 subtable" Japan1.8816
Substitution2: "'hwid' Half Widths lookup 7 subtable" Japan1.8719
Substitution2: "'fwid' Full Widths lookup 6 subtable" Japan1.664
AlternateSubs2: "'aalt' Access All Alternates lookup 1 per glyph data 0" Japan1.664 Japan1.8719 Japan1.12117 Japan1.9540 Japan1.8816
EndChar

StartChar: Japan1.327
Encoding: 327 65377 327
Width: 514
Flags: W
LayerCount: 2
Fore
SplineSet
158 -28 m 0
 72 -22 49 42 44 98 c 0
 39 153 98 239 178 224 c 0
 259 209 294 153 294 93 c 1
 307 26 229 -34 158 -28 c 0
206 103 m 0
 206 120 195 140 172 143 c 0
 148 147 125 125 125 104 c 0
 127 67 138 65 162 62 c 0
 189 59 206 86 206 103 c 0
EndSplineSet
Substitution2: "'vrt2' Vertical Rotation & Alternates lookup 13 subtable" Japan1.9085
Substitution2: "'fwid' Full Widths lookup 6 subtable" Japan1.635
AlternateSubs2: "'aalt' Access All Alternates lookup 1 per glyph data 0" Japan1.635 Japan1.9085
EndChar

StartChar: Japan1.328
Encoding: 328 65378 328
Width: 652
Flags: W
LayerCount: 2
Fore
SplineSet
337 656 m 1
 337 656 332 57 332 12 c 0
 334 -47 297 -52 267 -52 c 0
 237 -52 210 -36 205 9 c 0
 200 53 200 659 200 703 c 0
 200 748 241 793 300 793 c 0
 360 791 489 795 548 788 c 0
 588 783 606 748 606 718 c 0
 606 694 576 662 521 660 c 0
 454 659 337 656 337 656 c 1
EndSplineSet
Substitution2: "'vrt2' Vertical Rotation & Alternates lookup 13 subtable" Japan1.9086
Substitution2: "'fwid' Full Widths lookup 6 subtable" Japan1.686
AlternateSubs2: "'aalt' Access All Alternates lookup 1 per glyph data 0" Japan1.686 Japan1.9086
EndChar

StartChar: Japan1.329
Encoding: 329 65379 329
Width: 650
Flags: W
LayerCount: 2
Fore
SplineSet
311 85 m 1
 311 85 316 684 316 729 c 1
 326 768 351 793 381 793 c 0
 411 793 438 777 443 732 c 0
 448 687 448 82 448 37 c 0
 448 -7 407 -52 348 -52 c 1
 300 -70 159 -54 100 -47 c 0
 60 -42 42 -7 42 22 c 0
 42 47 72 79 127 80 c 0
 194 82 311 85 311 85 c 1
EndSplineSet
Substitution2: "'vrt2' Vertical Rotation & Alternates lookup 13 subtable" Japan1.9087
Substitution2: "'fwid' Full Widths lookup 6 subtable" Japan1.687
AlternateSubs2: "'aalt' Access All Alternates lookup 1 per glyph data 0" Japan1.687 Japan1.9087
EndChar

StartChar: Japan1.330
Encoding: 330 65380 330
Width: 512
Flags: W
LayerCount: 2
Fore
SplineSet
84 84 m 0
 54 111 42 135 62 169 c 0
 82 204 130 206 162 181 c 0
 194 156 236 112 262 90 c 0
 302 55 299 28 281 4 c 0
 263 -19 228 -41 194 -14 c 0
 161 12 107 64 84 84 c 0
EndSplineSet
Substitution2: "'vrt2' Vertical Rotation & Alternates lookup 13 subtable" Japan1.9088
Substitution2: "'fwid' Full Widths lookup 6 subtable" Japan1.634
AlternateSubs2: "'aalt' Access All Alternates lookup 1 per glyph data 0" Japan1.634 Japan1.9088
EndChar

StartChar: Japan1.331
Encoding: 331 65381 331
Width: 516
Flags: W
LayerCount: 2
Fore
SplineSet
264 308 m 0
 192 313 165 367 160 413 c 0
 156 460 213 532 281 519 c 0
 349 506 369 460 369 409 c 0
 369 359 323 304 264 308 c 0
EndSplineSet
Substitution2: "'vrt2' Vertical Rotation & Alternates lookup 13 subtable" Japan1.9089
Substitution2: "'fwid' Full Widths lookup 6 subtable" Japan1.638
AlternateSubs2: "'aalt' Access All Alternates lookup 1 per glyph data 0" Japan1.638 Japan1.119 Japan1.9778 Japan1.9089
EndChar

StartChar: Japan1.342
Encoding: 342 65392 342
Width: 466
Flags: W
LayerCount: 2
Fore
SplineSet
129 341 m 0
 77 341 46 351 35 393 c 1
 34 432 69 471 121 473 c 1
 189 469 294 473 338 473 c 0
 383 473 427 450 430 418 c 0
 433 387 417 344 362 342 c 1
 318 330 169 341 129 341 c 0
EndSplineSet
Substitution2: "'vrt2' Vertical Rotation & Alternates lookup 13 subtable" Japan1.9100
Substitution2: "'fwid' Full Widths lookup 6 subtable" Japan1.660
AlternateSubs2: "'aalt' Access All Alternates lookup 1 per glyph data 0" Japan1.660 Japan1.9100
EndChar

StartChar: Japan1.634
Encoding: 634 12289 634
Width: 1000
Flags: W
LayerCount: 2
Fore
SplineSet
120 84 m 0
 90 111 78 135 98 169 c 0
 118 204 166 206 198 181 c 0
 230 156 272 112 298 90 c 0
 338 55 335 28 317 4 c 0
 299 -19 264 -41 230 -14 c 0
 197 12 143 64 120 84 c 0
EndSplineSet
Substitution2: "'vrt2' Vertical Rotation & Alternates lookup 13 subtable" Japan1.7887
Substitution2: "'vert' Vertical Alternates (obs) lookup 12 subtable" Japan1.7887
Substitution2: "'hwid' Half Widths lookup 7 subtable" Japan1.330
AlternateSubs2: "'aalt' Access All Alternates lookup 1 per glyph data 0" Japan1.330 Japan1.7887 Japan1.12639
EndChar

StartChar: Japan1.635
Encoding: 635 12290 635
Width: 1000
Flags: W
LayerCount: 2
Fore
SplineSet
186 -28 m 0
 100 -22 77 42 72 98 c 0
 67 153 126 239 206 224 c 0
 287 209 322 153 322 93 c 1
 335 26 257 -34 186 -28 c 0
234 103 m 0
 234 120 223 140 200 143 c 0
 176 147 153 125 153 104 c 0
 155 67 166 65 190 62 c 0
 217 59 234 86 234 103 c 0
EndSplineSet
Substitution2: "'vrt2' Vertical Rotation & Alternates lookup 13 subtable" Japan1.7888
Substitution2: "'vert' Vertical Alternates (obs) lookup 12 subtable" Japan1.7888
Substitution2: "'hwid' Half Widths lookup 7 subtable" Japan1.327
AlternateSubs2: "'aalt' Access All Alternates lookup 1 per glyph data 0" Japan1.327 Japan1.7888 Japan1.12640
EndChar

StartChar: Japan1.636
Encoding: 636 65292 636
Width: 1000
Flags: W
LayerCount: 2
Fore
SplineSet
193 -4 m 1
 193 -4 126 -1 114 44 c 0
 102 89 132 143 184 145 c 0
 229 147 265 107 268 68 c 0
 271 29 257 -21 237 -47 c 0
 217 -73 195 -82 183 -76 c 0
 171 -70 162 -58 175 -40 c 1
 198 -29 190 -25 193 -4 c 1
EndSplineSet
Substitution2: "'vrt2' Vertical Rotation & Alternates lookup 13 subtable" Japan1.8268
Substitution2: "'vert' Vertical Alternates (obs) lookup 12 subtable" Japan1.8268
Substitution2: "'hwid' Half Widths lookup 7 subtable" Japan1.243
AlternateSubs2: "'aalt' Access All Alternates lookup 1 per glyph data 0" Japan1.13 Japan1.120 Japan1.243 Japan1.8268 Japan1.9751 Japan1.9771
EndChar

StartChar: Japan1.637
Encoding: 637 65294 637
Width: 1000
Flags: W
LayerCount: 2
Fore
SplineSet
194 -26 m 0
 142 -21 110 14 107 52 c 0
 103 90 135 145 197 141 c 0
 260 138 274 86 274 51 c 0
 274 16 236 -29 194 -26 c 0
EndSplineSet
Substitution2: "'vrt2' Vertical Rotation & Alternates lookup 13 subtable" Japan1.8274
Substitution2: "'vert' Vertical Alternates (obs) lookup 12 subtable" Japan1.8274
Substitution2: "'hwid' Half Widths lookup 7 subtable" Japan1.245
AlternateSubs2: "'aalt' Access All Alternates lookup 1 per glyph data 0" Japan1.15 Japan1.245 Japan1.8274 Japan1.9754 Japan1.9774
EndChar

StartChar: Japan1.638
Encoding: 638 12539 638
Width: 1000
Flags: W
LayerCount: 2
Fore
SplineSet
500 308 m 0
 428 313 401 367 396 413 c 0
 392 460 449 532 517 519 c 0
 585 506 605 460 605 409 c 0
 605 359 559 304 500 308 c 0
EndSplineSet
Substitution2: "'hwid' Half Widths lookup 7 subtable" Japan1.331
AlternateSubs2: "'aalt' Access All Alternates lookup 1 per glyph data 0" Japan1.117 Japan1.119 Japan1.331 Japan1.723 Japan1.724 Japan1.725 Japan1.779 Japan1.8210 Japan1.8259 Japan1.8260 Japan1.12251 Japan1.12252 Japan1.12253 Japan1.12254 Japan1.12255 Japan1.12256 Japan1.12641 Japan1.9778
EndChar

StartChar: Japan1.639
Encoding: 639 65306 639
Width: 1000
Flags: W
LayerCount: 2
Fore
SplineSet
500 490 m 0
 443 494 416 537 413 574 c 0
 409 610 459 667 513 657 c 0
 566 647 587 610 587 570 c 1
 593 522 546 487 500 490 c 0
496 122 m 0
 449 128 417 166 417 206 c 1
 428 235 469 290 516 283 c 0
 563 276 583 236 583 203 c 0
 583 169 550 116 496 122 c 0
EndSplineSet
Substitution2: "'vrt2' Vertical Rotation & Alternates lookup 13 subtable" Japan1.12101
Substitution2: "'vert' Vertical Alternates (obs) lookup 12 subtable" Japan1.12101
Substitution2: "'hwid' Half Widths lookup 7 subtable" Japan1.257
AlternateSubs2: "'aalt' Access All Alternates lookup 1 per glyph data 0" Japan1.27 Japan1.257 Japan1.12101 Japan1.9756 Japan1.9776
EndChar

StartChar: Japan1.640
Encoding: 640 65307 640
Width: 1000
Flags: W
LayerCount: 2
Fore
SplineSet
504 487 m 0
 452 492 420 527 417 565 c 0
 414 603 445 658 507 654 c 0
 570 651 584 598 584 564 c 0
 584 529 546 484 504 487 c 0
498 133 m 1
 498 133 432 136 420 181 c 0
 408 226 438 280 489 282 c 0
 534 284 570 244 573 205 c 0
 576 166 562 116 542 90 c 0
 522 63 500 54 488 60 c 0
 476 66 468 78 480 96 c 1
 501 104 495 111 498 133 c 1
EndSplineSet
Substitution2: "'hwid' Half Widths lookup 7 subtable" Japan1.258
AlternateSubs2: "'aalt' Access All Alternates lookup 1 per glyph data 0" Japan1.28 Japan1.258 Japan1.9757 Japan1.9777
EndChar

StartChar: Japan1.641
Encoding: 641 65311 641
Width: 1000
Flags: W
LayerCount: 2
Fore
SplineSet
513 168 m 0
 545 161 568 146 581 125 c 0
 593 105 596 80 590 52 c 0
 581 8 545 -23 502 -23 c 0
 444 -23 408 26 408 71 c 0
 408 112 434 170 492 170 c 0
 499 170 506 169 513 168 c 0
690 683 m 0
 761 584 738 478 692 412 c 0
 673 385 653 361 635 340 c 0
 614 314 595 292 591 277 c 0
 584 253 561 198 508 198 c 0
 487 198 470 205 458 218 c 0
 444 232 438 253 439 275 c 0
 444 339 474 390 537 442 c 0
 575 474 596 535 564 580 c 0
 546 605 507 607 496 607 c 0
 484 607 475 605 471 604 c 0
 440 591 420 551 415 539 c 0
 401 507 377 469 326 475 c 0
 305 477 289 486 277 502 c 0
 264 519 259 543 263 567 c 0
 273 624 297 694 386 736 c 0
 422 753 466 762 509 762 c 0
 588 762 653 733 690 683 c 0
EndSplineSet
Substitution2: "'hwid' Half Widths lookup 7 subtable" Japan1.262
AlternateSubs2: "'aalt' Access All Alternates lookup 1 per glyph data 0" Japan1.32 Japan1.262
EndChar

StartChar: Japan1.642
Encoding: 642 65281 642
Width: 1000
Flags: W
LayerCount: 2
Fore
SplineSet
580 726 m 0
 599 704 608 669 606 631 c 0
 601 576 576 281 570 249 c 0
 564 215 542 196 510 194 c 2
 507 194 l 2
 478 194 456 215 448 250 c 0
 441 278 417 591 415 637 c 0
 413 671 421 700 440 721 c 0
 458 742 486 754 517 754 c 0
 542 754 564 744 580 726 c 0
521 168 m 0
 553 161 576 146 589 125 c 0
 600 105 603 80 597 52 c 0
 588 8 552 -23 510 -23 c 0
 452 -23 415 26 415 71 c 0
 415 112 442 170 500 170 c 0
 507 170 514 169 521 168 c 0
EndSplineSet
Substitution2: "'hwid' Half Widths lookup 7 subtable" Japan1.232
AlternateSubs2: "'aalt' Access All Alternates lookup 1 per glyph data 0" Japan1.2 Japan1.232
EndChar

StartChar: Japan1.643
Encoding: 643 12443 643
Width: 1000
Flags: W
LayerCount: 2
Fore
SplineSet
97 639 m 0
 82 668 78 706 107 720 c 0
 135 735 156 716 188 673 c 0
 234 611 235 580 201 563 c 0
 169 547 125 584 97 639 c 0
214 692 m 0
 197 720 195 760 224 774 c 0
 253 789 282 767 310 720 c 0
 340 670 343 640 309 623 c 0
 270 603 242 642 214 692 c 0
EndSplineSet
Substitution2: "'vrt2' Vertical Rotation & Alternates lookup 13 subtable" Japan1.8272
Substitution2: "'vert' Vertical Alternates (obs) lookup 12 subtable" Japan1.8272
Substitution2: "'hwid' Half Widths lookup 7 subtable" Japan1.388
AlternateSubs2: "'aalt' Access All Alternates lookup 1 per glyph data 0" Japan1.388 Japan1.8272
EndChar

StartChar: Japan1.644
Encoding: 644 12444 644
Width: 1000
Flags: W
LayerCount: 2
Fore
SplineSet
196 518 m 0
 110 525 86 589 81 645 c 0
 76 700 135 786 216 771 c 0
 297 756 332 700 332 640 c 1
 346 573 267 513 196 518 c 0
243 650 m 0
 243 667 233 687 210 690 c 0
 186 693 163 672 163 651 c 0
 166 614 176 612 200 609 c 0
 227 606 243 633 243 650 c 0
EndSplineSet
Substitution2: "'vrt2' Vertical Rotation & Alternates lookup 13 subtable" Japan1.8271
Substitution2: "'vert' Vertical Alternates (obs) lookup 12 subtable" Japan1.8271
Substitution2: "'hwid' Half Widths lookup 7 subtable" Japan1.389
AlternateSubs2: "'aalt' Access All Alternates lookup 1 per glyph data 0" Japan1.389 Japan1.8271
EndChar

StartChar: Japan1.645
Encoding: 645 180 645
Width: 1000
Flags: W
LayerCount: 2
Fore
SplineSet
502 751 m 0
 531 772 554 777 584 750 c 0
 613 723 608 678 581 655 c 0
 553 631 500 610 469 597 c 0
 440 585 396 625 424 670 c 0
 444 702 481 735 502 751 c 0
EndSplineSet
Substitution2: "'hwid' Half Widths lookup 7 subtable" Japan1.501
AlternateSubs2: "'aalt' Access All Alternates lookup 1 per glyph data 0" Japan1.127 Japan1.501
EndChar

StartChar: Japan1.646
Encoding: 646 65344 646
Width: 1000
Flags: W
LayerCount: 2
Fore
SplineSet
516 751 m 0
 538 735 574 702 595 670 c 0
 622 625 578 585 550 597 c 0
 518 610 465 631 438 655 c 0
 411 678 406 723 435 750 c 0
 464 777 487 772 516 751 c 0
EndSplineSet
Substitution2: "'hwid' Half Widths lookup 7 subtable" Japan1.390
AlternateSubs2: "'aalt' Access All Alternates lookup 1 per glyph data 0" Japan1.65 Japan1.390
EndChar

StartChar: Japan1.647
Encoding: 647 168 647
Width: 1000
Flags: W
LayerCount: 2
Fore
SplineSet
409 619 m 0
 362 622 345 657 342 687 c 0
 339 717 376 763 420 755 c 0
 463 747 476 717 476 684 c 0
 476 652 447 616 409 619 c 0
591 619 m 0
 544 622 527 657 524 687 c 0
 521 717 558 763 601 755 c 1
 656 733 658 717 658 684 c 0
 658 652 629 616 591 619 c 0
EndSplineSet
Substitution2: "'hwid' Half Widths lookup 7 subtable" Japan1.502
AlternateSubs2: "'aalt' Access All Alternates lookup 1 per glyph data 0" Japan1.132 Japan1.502
EndChar

StartChar: Japan1.648
Encoding: 648 65342 648
Width: 1000
Flags: W
LayerCount: 2
Fore
SplineSet
661 651 m 0
 677 623 672 598 647 583 c 0
 639 577 630 575 621 575 c 0
 600 575 583 590 573 602 c 0
 561 614 524 651 506 669 c 1
 484 650 435 608 426 599 c 0
 415 589 397 578 378 578 c 0
 369 578 360 581 353 586 c 0
 340 596 321 617 342 654 c 0
 346 660 360 674 400 712 c 0
 416 727 430 740 437 747 c 0
 456 768 480 779 505 779 c 0
 531 779 556 767 576 745 c 2
 597 724 l 2
 632 687 654 663 661 651 c 0
EndSplineSet
Substitution2: "'hwid' Half Widths lookup 7 subtable" Japan1.293
AlternateSubs2: "'aalt' Access All Alternates lookup 1 per glyph data 0" Japan1.63 Japan1.128 Japan1.293
EndChar

StartChar: Japan1.649
Encoding: 649 65507 649
Width: 1000
Flags: W
LayerCount: 2
Fore
SplineSet
189 693 m 0
 146 690 94 694 94 747 c 0
 95 800 140 809 175 809 c 0
 211 808 554 808 621 810 c 0
 687 812 813 811 853 805 c 0
 895 797 903 767 903 743 c 0
 903 720 883 695 827 691 c 0
 771 686 528 697 455 691 c 0
 382 685 229 695 189 693 c 0
EndSplineSet
Substitution2: "'vrt2' Vertical Rotation & Alternates lookup 13 subtable" Japan1.7889
Substitution2: "'vert' Vertical Alternates (obs) lookup 12 subtable" Japan1.7889
Substitution2: "'hwid' Half Widths lookup 7 subtable" Japan1.325
AlternateSubs2: "'aalt' Access All Alternates lookup 1 per glyph data 0" Japan1.129 Japan1.226 Japan1.325 Japan1.7889
EndChar

StartChar: Japan1.650
Encoding: 650 65343 650
Width: 1000
Flags: W
LayerCount: 2
Fore
SplineSet
811 -33 m 0
 854 -30 906 -34 906 -87 c 0
 905 -140 860 -149 825 -149 c 0
 789 -148 446 -148 379 -150 c 0
 313 -152 187 -151 147 -145 c 1
 117 -149 97 -107 97 -83 c 0
 97 -60 117 -35 173 -31 c 0
 229 -26 472 -37 545 -31 c 0
 618 -25 771 -35 811 -33 c 0
EndSplineSet
Substitution2: "'vrt2' Vertical Rotation & Alternates lookup 13 subtable" Japan1.7890
Substitution2: "'vert' Vertical Alternates (obs) lookup 12 subtable" Japan1.7890
Substitution2: "'hwid' Half Widths lookup 7 subtable" Japan1.294
AlternateSubs2: "'aalt' Access All Alternates lookup 1 per glyph data 0" Japan1.64 Japan1.294 Japan1.7890
EndChar

StartChar: Japan1.655
Encoding: 655 12291 655
Width: 1000
Flags: W
LayerCount: 2
Fore
SplineSet
531 585 m 0
 532 502 501 390 452 300 c 0
 396 198 329 148 284 136 c 0
 274 133 223 126 201 157 c 1
 179 180 197 222 221 247 c 0
 231 257 242 266 254 276 c 0
 283 300 316 327 345 385 c 0
 383 461 399 555 402 595 c 0
 406 651 442 676 474 674 c 0
 501 671 530 647 531 585 c 0
689 648 m 0
 703 647 749 640 755 556 c 0
 761 466 735 342 688 242 c 0
 641 143 584 78 526 58 c 0
 518 55 460 49 436 77 c 0
 415 102 416 135 442 166 c 0
 452 178 464 189 476 201 c 0
 506 229 540 261 568 326 c 0
 605 411 616 515 617 558 c 0
 618 620 655 648 689 648 c 0
EndSplineSet
EndChar

StartChar: Japan1.659
Encoding: 659 12295 659
Width: 1000
Flags: W
LayerCount: 2
Fore
SplineSet
476 -43 m 0
 209 -24 135 177 119 349 c 0
 103 522 284 764 539 742 c 0
 778 722 898 522 898 334 c 0
 898 145 696 -59 476 -43 c 0
729 350 m 0
 729 444 672 558 540 577 c 0
 408 595 276 473 276 360 c 0
 276 246 350 141 484 124 c 0
 634 105 729 256 729 350 c 0
EndSplineSet
AlternateSubs2: "'aalt' Access All Alternates lookup 1 per glyph data 0" Japan1.4021 Japan1.10174 Japan1.10185 Japan1.10196 Japan1.10218
EndChar

StartChar: Japan1.660
Encoding: 660 12540 660
Width: 1000
Flags: W
LayerCount: 2
Fore
SplineSet
734 461 m 0
 795 461 853 452 857 381 c 0
 858 361 852 344 841 331 c 0
 816 304 768 297 725 295 c 0
 696 293 569 293 508 293 c 0
 350 293 277 295 245 296 c 0
 161 300 148 343 148 369 c 0
 148 422 188 459 249 463 c 0
 262 464 320 464 385 464 c 0
 499 464 547 463 648 462 c 0
 693 462 724 461 734 461 c 0
EndSplineSet
Substitution2: "'vrt2' Vertical Rotation & Alternates lookup 13 subtable" Japan1.7891
Substitution2: "'vert' Vertical Alternates (obs) lookup 12 subtable" Japan1.7891
Substitution2: "'hwid' Half Widths lookup 7 subtable" Japan1.342
AlternateSubs2: "'aalt' Access All Alternates lookup 1 per glyph data 0" Japan1.342 Japan1.7891 Japan1.12364 Japan1.12867
EndChar

StartChar: Japan1.661
Encoding: 661 8213 661
Width: 1000
Flags: W
LayerCount: 2
Fore
SplineSet
734 461 m 0
 795 461 853 452 857 381 c 0
 858 361 852 344 841 331 c 0
 816 304 768 297 725 295 c 0
 696 293 569 293 508 293 c 0
 350 293 277 295 245 296 c 0
 161 300 148 343 148 369 c 0
 148 422 188 459 249 463 c 0
 262 464 320 464 385 464 c 0
 499 464 547 463 648 462 c 0
 693 462 724 461 734 461 c 0
EndSplineSet
Substitution2: "'vrt2' Vertical Rotation & Alternates lookup 13 subtable" Japan1.7892
Substitution2: "'vert' Vertical Alternates (obs) lookup 12 subtable" Japan1.7892
Substitution2: "'hwid' Half Widths lookup 7 subtable" Japan1.12063
AlternateSubs2: "'aalt' Access All Alternates lookup 1 per glyph data 0" Japan1.114 Japan1.138 Japan1.151 Japan1.514 Japan1.693 Japan1.7892 Japan1.12063 Japan1.12186 Japan1.9748 Japan1.9768
EndChar

StartChar: Japan1.662
Encoding: 662 8208 662
Width: 1000
Flags: W
LayerCount: 2
Fore
SplineSet
393 341 m 0
 341 341 310 351 299 393 c 1
 298 432 333 471 385 473 c 1
 453 469 558 473 602 473 c 0
 647 473 691 450 694 418 c 0
 697 387 681 344 626 342 c 1
 582 330 433 341 393 341 c 0
EndSplineSet
Substitution2: "'vrt2' Vertical Rotation & Alternates lookup 13 subtable" Japan1.7893
Substitution2: "'vert' Vertical Alternates (obs) lookup 12 subtable" Japan1.7893
Substitution2: "'hwid' Half Widths lookup 7 subtable" Japan1.244
AlternateSubs2: "'aalt' Access All Alternates lookup 1 per glyph data 0" Japan1.14 Japan1.244 Japan1.7893 Japan1.9749 Japan1.9769
EndChar

StartChar: Japan1.663
Encoding: 663 65295 663
Width: 1000
Flags: W
LayerCount: 2
Fore
SplineSet
907 690 m 0
 888 668 170 -14 153 -30 c 0
 124 -56 103 -48 91 -36 c 0
 72 -18 74 12 94 33 c 0
 98 37 111 51 128 69 c 0
 190 135 827 736 839 746 c 0
 858 764 881 779 904 762 c 0
 927 745 928 715 907 690 c 0
EndSplineSet
Substitution2: "'hwid' Half Widths lookup 7 subtable" Japan1.246
AlternateSubs2: "'aalt' Access All Alternates lookup 1 per glyph data 0" Japan1.16 Japan1.104 Japan1.246 Japan1.12116 Japan1.12187 Japan1.9755 Japan1.9775
EndChar

StartChar: Japan1.664
Encoding: 664 65340 664
Width: 1000
Flags: W
LayerCount: 2
Fore
SplineSet
93 690 m 0
 72 715 73 745 96 762 c 0
 119 779 142 764 161 746 c 0
 173 736 810 135 872 69 c 0
 889 51 902 37 906 33 c 0
 926 12 928 -18 909 -36 c 0
 897 -48 876 -56 847 -30 c 0
 830 -14 112 668 93 690 c 0
EndSplineSet
Substitution2: "'hwid' Half Widths lookup 7 subtable" Japan1.8719
AlternateSubs2: "'aalt' Access All Alternates lookup 1 per glyph data 0" Japan1.97 Japan1.8719 Japan1.12117
EndChar

StartChar: Japan1.665
Encoding: 665 8764 665
Width: 1000
Flags: W
LayerCount: 2
Fore
SplineSet
891 401 m 0
 897 368 874 322 808 299 c 0
 773 287 736 281 698 281 c 0
 654 281 608 290 561 306 c 0
 540 313 518 322 500 329 c 0
 451 349 400 369 357 370 c 0
 309 372 263 363 250 354 c 0
 193 314 144 317 120 360 c 0
 82 427 142 464 182 489 c 0
 213 508 274 527 340 527 c 0
 370 527 398 523 423 516 c 0
 455 506 491 491 525 477 c 0
 582 452 641 427 679 430 c 0
 719 433 746 439 769 445 c 0
 782 448 795 451 809 453 c 0
 847 458 885 434 891 401 c 0
EndSplineSet
Substitution2: "'vrt2' Vertical Rotation & Alternates lookup 13 subtable" Japan1.7894
Substitution2: "'vert' Vertical Alternates (obs) lookup 12 subtable" Japan1.7894
Substitution2: "'hwid' Half Widths lookup 7 subtable" Japan1.631
AlternateSubs2: "'aalt' Access All Alternates lookup 1 per glyph data 0" Japan1.95 Japan1.100 Japan1.631 Japan1.7894
EndChar

StartChar: Japan1.666
Encoding: 666 8214 666
Width: 1000
Flags: W
LayerCount: 2
Fore
SplineSet
470 726 m 0
 473 681 469 26 467 -9 c 0
 463 -68 432 -80 406 -80 c 0
 368 -80 338 -45 338 -1 c 0
 338 7 338 35 337 72 c 0
 337 209 335 692 337 716 c 0
 340 754 349 795 392 800 c 0
 435 806 467 774 470 726 c 0
663 726 m 0
 666 681 663 26 660 -9 c 0
 656 -68 625 -80 599 -80 c 0
 561 -80 531 -46 531 -1 c 0
 531 7 531 35 530 72 c 0
 530 209 528 692 530 716 c 0
 533 754 542 795 585 800 c 0
 628 806 660 774 663 726 c 0
EndSplineSet
Substitution2: "'vrt2' Vertical Rotation & Alternates lookup 13 subtable" Japan1.7895
Substitution2: "'vert' Vertical Alternates (obs) lookup 12 subtable" Japan1.7895
Substitution2: "'aalt' Access All Alternates lookup 0 subtable" Japan1.7895
EndChar

StartChar: Japan1.667
Encoding: 667 65372 667
Width: 1000
Flags: W
LayerCount: 2
Fore
SplineSet
569 717 m 0
 572 673 569 17 566 -18 c 0
 563 -76 531 -89 505 -89 c 0
 467 -89 437 -54 437 -10 c 0
 437 -1 437 26 437 64 c 0
 436 200 434 683 436 707 c 0
 439 746 449 786 491 792 c 0
 534 798 566 765 569 717 c 0
EndSplineSet
Substitution2: "'vrt2' Vertical Rotation & Alternates lookup 13 subtable" Japan1.7896
Substitution2: "'vert' Vertical Alternates (obs) lookup 12 subtable" Japan1.7896
Substitution2: "'hwid' Half Widths lookup 7 subtable" Japan1.323
AlternateSubs2: "'aalt' Access All Alternates lookup 1 per glyph data 0" Japan1.93 Japan1.99 Japan1.323 Japan1.7896 Japan1.8005
EndChar

StartChar: Japan1.668
Encoding: 668 8230 668
Width: 1000
Flags: W
LayerCount: 2
Fore
SplineSet
194 333 m 0
 139 337 118 378 115 414 c 0
 111 449 155 504 207 494 c 0
 258 485 274 449 274 410 c 0
 274 372 239 330 194 333 c 0
500 333 m 0
 445 337 424 378 420 414 c 0
 417 449 461 504 512 494 c 0
 564 485 580 449 580 410 c 0
 580 372 545 330 500 333 c 0
805 333 m 0
 751 337 729 378 726 414 c 0
 723 449 767 504 818 494 c 0
 870 485 886 449 886 410 c 0
 886 372 850 330 805 333 c 0
EndSplineSet
Substitution2: "'vrt2' Vertical Rotation & Alternates lookup 13 subtable" Japan1.7897
Substitution2: "'vert' Vertical Alternates (obs) lookup 12 subtable" Japan1.7897
AlternateSubs2: "'aalt' Access All Alternates lookup 1 per glyph data 0" Japan1.124 Japan1.7897
EndChar

StartChar: Japan1.669
Encoding: 669 8229 669
Width: 1000
Flags: W
LayerCount: 2
Fore
SplineSet
244 333 m 0
 189 337 168 378 165 414 c 0
 162 449 206 504 257 494 c 0
 309 485 324 449 324 410 c 0
 324 372 289 330 244 333 c 0
735 333 m 0
 680 337 659 378 656 414 c 0
 652 449 696 504 748 494 c 0
 799 485 815 449 815 410 c 0
 815 372 780 330 735 333 c 0
EndSplineSet
Substitution2: "'vrt2' Vertical Rotation & Alternates lookup 13 subtable" Japan1.7898
Substitution2: "'vert' Vertical Alternates (obs) lookup 12 subtable" Japan1.7898
Substitution2: "'aalt' Access All Alternates lookup 0 subtable" Japan1.7898
EndChar

StartChar: Japan1.670
Encoding: 670 8216 670
Width: 1000
Flags: W
LayerCount: 2
Fore
SplineSet
854 703 m 1
 854 703 923 700 935 653 c 0
 948 607 916 551 864 548 c 0
 817 547 779 588 776 629 c 0
 773 669 787 721 808 748 c 0
 829 775 852 784 864 778 c 0
 877 772 885 759 873 741 c 0
 860 722 857 725 854 703 c 1
EndSplineSet
Substitution2: "'vrt2' Vertical Rotation & Alternates lookup 13 subtable" Japan1.12173
Substitution2: "'vert' Vertical Alternates (obs) lookup 12 subtable" Japan1.12173
Substitution2: "'hwid' Half Widths lookup 7 subtable" Japan1.295
AlternateSubs2: "'aalt' Access All Alternates lookup 1 per glyph data 0" Japan1.8 Japan1.96 Japan1.98 Japan1.238 Japan1.295 Japan1.671 Japan1.8006 Japan1.8275 Japan1.8276 Japan1.8281 Japan1.8282 Japan1.12086 Japan1.12171 Japan1.12172 Japan1.12173 Japan1.12174
EndChar

StartChar: Japan1.671
Encoding: 671 8217 671
Width: 1000
Flags: W
LayerCount: 2
Fore
SplineSet
151 625 m 1
 151 625 83 628 70 675 c 0
 58 722 89 778 142 780 c 0
 188 782 226 740 229 700 c 0
 232 659 218 608 197 580 c 0
 176 553 153 544 141 550 c 0
 128 556 120 569 132 588 c 0
 145 606 148 603 151 625 c 1
EndSplineSet
Substitution2: "'vrt2' Vertical Rotation & Alternates lookup 13 subtable" Japan1.12174
Substitution2: "'vert' Vertical Alternates (obs) lookup 12 subtable" Japan1.12174
Substitution2: "'hwid' Half Widths lookup 7 subtable" Japan1.238
AlternateSubs2: "'aalt' Access All Alternates lookup 1 per glyph data 0" Japan1.8 Japan1.96 Japan1.98 Japan1.238 Japan1.295 Japan1.670 Japan1.8006 Japan1.8275 Japan1.8276 Japan1.8281 Japan1.8282 Japan1.12086 Japan1.12171 Japan1.12172 Japan1.12173 Japan1.12174
EndChar

StartChar: Japan1.672
Encoding: 672 8220 672
Width: 1000
Flags: W
LayerCount: 2
Fore
SplineSet
852 703 m 1
 852 703 920 700 933 653 c 0
 945 607 914 551 861 548 c 0
 815 547 777 588 774 629 c 0
 771 669 785 721 806 748 c 0
 827 775 850 784 862 778 c 0
 875 772 883 759 871 741 c 0
 858 722 855 725 852 703 c 1
646 703 m 1
 646 703 715 700 727 653 c 0
 740 607 709 551 656 548 c 0
 609 547 572 588 568 629 c 0
 565 669 579 721 600 748 c 0
 621 775 644 784 657 778 c 0
 669 772 677 759 665 741 c 0
 653 722 649 725 646 703 c 1
EndSplineSet
Substitution2: "'vrt2' Vertical Rotation & Alternates lookup 13 subtable" Japan1.7956
Substitution2: "'vert' Vertical Alternates (obs) lookup 12 subtable" Japan1.7956
Substitution2: "'hwid' Half Widths lookup 7 subtable" Japan1.503
AlternateSubs2: "'aalt' Access All Alternates lookup 1 per glyph data 0" Japan1.3 Japan1.108 Japan1.121 Japan1.122 Japan1.233 Japan1.423 Japan1.424 Japan1.503 Japan1.673 Japan1.7608 Japan1.7609 Japan1.7956 Japan1.7957 Japan1.8007 Japan1.8277 Japan1.8278 Japan1.8279 Japan1.8280 Japan1.12080 Japan1.12081 Japan1.12087 Japan1.12169 Japan1.12170
EndChar

StartChar: Japan1.673
Encoding: 673 8221 673
Width: 1000
Flags: W
LayerCount: 2
Fore
SplineSet
151 625 m 1
 151 625 82 628 70 675 c 0
 57 722 89 778 142 780 c 0
 188 782 226 740 229 700 c 0
 232 659 218 608 197 580 c 0
 176 553 153 544 141 550 c 0
 128 557 120 569 132 588 c 1
 151 592 148 603 151 625 c 1
357 625 m 1
 357 625 288 628 276 675 c 0
 263 722 294 778 347 780 c 0
 394 782 431 740 434 700 c 0
 438 659 423 608 402 580 c 0
 381 553 359 544 346 550 c 0
 334 556 325 569 338 588 c 0
 350 606 353 603 357 625 c 1
EndSplineSet
Substitution2: "'vrt2' Vertical Rotation & Alternates lookup 13 subtable" Japan1.7957
Substitution2: "'vert' Vertical Alternates (obs) lookup 12 subtable" Japan1.7957
Substitution2: "'hwid' Half Widths lookup 7 subtable" Japan1.233
AlternateSubs2: "'aalt' Access All Alternates lookup 1 per glyph data 0" Japan1.3 Japan1.108 Japan1.121 Japan1.122 Japan1.233 Japan1.423 Japan1.424 Japan1.503 Japan1.672 Japan1.7608 Japan1.7609 Japan1.7956 Japan1.7957 Japan1.8007 Japan1.8277 Japan1.8278 Japan1.8279 Japan1.8280 Japan1.12080 Japan1.12081 Japan1.12087 Japan1.12169 Japan1.12170
EndChar

StartChar: Japan1.674
Encoding: 674 65288 674
Width: 1000
Flags: W
LayerCount: 2
Fore
SplineSet
894 677 m 0
 865 645 792 537 789 376 c 0
 787 216 884 113 918 63 c 0
 951 13 947 -20 928 -37 c 0
 909 -54 870 -70 824 -35 c 0
 778 1 655 126 649 359 c 0
 643 578 748 720 796 766 c 0
 844 812 888 813 918 783 c 0
 940 760 932 720 894 677 c 0
EndSplineSet
Substitution2: "'vrt2' Vertical Rotation & Alternates lookup 13 subtable" Japan1.7899
Substitution2: "'vert' Vertical Alternates (obs) lookup 12 subtable" Japan1.7899
Substitution2: "'hwid' Half Widths lookup 7 subtable" Japan1.239
AlternateSubs2: "'aalt' Access All Alternates lookup 1 per glyph data 0" Japan1.9 Japan1.239 Japan1.7899 Japan1.9752 Japan1.12653 Japan1.9772
EndChar

StartChar: Japan1.675
Encoding: 675 65289 675
Width: 1000
Flags: W
LayerCount: 2
Fore
SplineSet
114 677 m 0
 76 720 68 760 90 783 c 0
 120 813 164 812 212 766 c 0
 260 720 364 578 359 359 c 0
 353 126 230 1 184 -35 c 0
 138 -70 99 -54 80 -37 c 0
 61 -20 57 13 90 63 c 0
 124 113 221 216 219 376 c 0
 216 537 143 645 114 677 c 0
EndSplineSet
Substitution2: "'vrt2' Vertical Rotation & Alternates lookup 13 subtable" Japan1.7900
Substitution2: "'vert' Vertical Alternates (obs) lookup 12 subtable" Japan1.7900
Substitution2: "'hwid' Half Widths lookup 7 subtable" Japan1.240
AlternateSubs2: "'aalt' Access All Alternates lookup 1 per glyph data 0" Japan1.10 Japan1.240 Japan1.7900 Japan1.9753 Japan1.12654 Japan1.9773
EndChar

StartChar: Japan1.676
Encoding: 676 12308 676
Width: 1000
Flags: W
LayerCount: 2
Fore
SplineSet
618 670 m 0
 614 729 654 748 694 758 c 0
 740 771 838 793 878 798 c 0
 904 801 936 768 933 734 c 0
 930 698 913 683 870 670 c 0
 824 656 742 633 742 633 c 1
 753 630 733 430 736 342 c 0
 741 243 737 133 737 133 c 1
 743 123 866 86 896 74 c 0
 962 49 929 -57 869 -43 c 0
 823 -33 725 -7 689 8 c 0
 656 22 618 31 612 84 c 1
 617 132 620 623 618 670 c 0
EndSplineSet
Substitution2: "'vrt2' Vertical Rotation & Alternates lookup 13 subtable" Japan1.7901
Substitution2: "'vert' Vertical Alternates (obs) lookup 12 subtable" Japan1.7901
Substitution2: "'hwid' Half Widths lookup 7 subtable" Japan1.504
AlternateSubs2: "'aalt' Access All Alternates lookup 1 per glyph data 0" Japan1.504 Japan1.7901 Japan1.12655
EndChar

StartChar: Japan1.677
Encoding: 677 12309 677
Width: 1000
Flags: W
LayerCount: 2
Fore
SplineSet
386 670 m 0
 384 623 399 132 392 84 c 0
 386 31 348 22 315 8 c 0
 279 -7 181 -33 135 -43 c 0
 75 -57 42 49 108 74 c 0
 138 86 274 123 267 133 c 1
 267 133 275 243 268 342 c 1
 271 430 263 630 262 633 c 2
 262 633 180 656 134 670 c 0
 91 683 74 698 71 734 c 0
 68 768 100 801 126 798 c 0
 166 793 264 771 310 758 c 0
 350 748 390 729 386 670 c 0
EndSplineSet
Substitution2: "'vrt2' Vertical Rotation & Alternates lookup 13 subtable" Japan1.7902
Substitution2: "'vert' Vertical Alternates (obs) lookup 12 subtable" Japan1.7902
Substitution2: "'hwid' Half Widths lookup 7 subtable" Japan1.505
AlternateSubs2: "'aalt' Access All Alternates lookup 1 per glyph data 0" Japan1.505 Japan1.7902 Japan1.12656
EndChar

StartChar: Japan1.678
Encoding: 678 65339 678
Width: 1000
Flags: W
LayerCount: 2
Fore
SplineSet
642 722 m 0
 639 781 678 810 719 810 c 0
 760 810 856 809 883 809 c 0
 926 807 931 780 928 746 c 0
 925 709 900 692 865 692 c 1
 837 677 772 690 772 690 c 1
 774 673 763 377 766 289 c 1
 780 189 767 80 767 80 c 1
 781 70 851 77 883 74 c 0
 916 71 927 44 927 18 c 1
 944 -18 918 -41 871 -44 c 1
 833 -54 754 -48 719 -45 c 1
 686 -55 648 -27 642 26 c 0
 639 68 645 675 642 722 c 0
EndSplineSet
Substitution2: "'vrt2' Vertical Rotation & Alternates lookup 13 subtable" Japan1.7903
Substitution2: "'vert' Vertical Alternates (obs) lookup 12 subtable" Japan1.7903
Substitution2: "'hwid' Half Widths lookup 7 subtable" Japan1.290
AlternateSubs2: "'aalt' Access All Alternates lookup 1 per glyph data 0" Japan1.60 Japan1.290 Japan1.7903
EndChar

StartChar: Japan1.679
Encoding: 679 65341 679
Width: 1000
Flags: W
LayerCount: 2
Fore
SplineSet
358 722 m 0
 355 675 371 68 358 26 c 1
 353 -27 324 -55 282 -45 c 1
 247 -48 177 -54 129 -44 c 1
 82 -41 83 -18 73 18 c 1
 73 44 85 71 117 74 c 0
 150 77 246 70 234 80 c 1
 234 80 247 189 235 289 c 1
 238 377 235 673 229 690 c 1
 229 690 172 677 136 692 c 1
 100 692 75 709 73 746 c 0
 70 780 102 807 118 809 c 0
 144 809 241 810 282 810 c 0
 323 810 362 781 358 722 c 0
EndSplineSet
Substitution2: "'vrt2' Vertical Rotation & Alternates lookup 13 subtable" Japan1.7904
Substitution2: "'vert' Vertical Alternates (obs) lookup 12 subtable" Japan1.7904
Substitution2: "'hwid' Half Widths lookup 7 subtable" Japan1.292
AlternateSubs2: "'aalt' Access All Alternates lookup 1 per glyph data 0" Japan1.62 Japan1.292 Japan1.7904
EndChar

StartChar: Japan1.680
Encoding: 680 65371 680
Width: 1000
Flags: W
LayerCount: 2
Fore
SplineSet
910 706 m 0
 894 693 866 661 866 627 c 0
 866 612 868 592 869 571 c 0
 873 533 877 490 872 454 c 0
 866 413 838 376 821 358 c 1
 836 340 859 306 862 263 c 0
 864 242 862 218 861 191 c 0
 857 147 854 97 870 72 c 0
 883 52 894 40 903 30 c 0
 914 18 924 7 926 -9 c 0
 928 -26 924 -40 915 -50 c 0
 906 -61 891 -67 872 -67 c 0
 827 -67 775 3 760 63 c 0
 751 99 755 143 758 181 c 0
 760 206 763 231 760 246 c 0
 757 262 747 276 736 290 c 0
 724 305 711 321 708 343 c 0
 702 379 717 410 750 434 c 0
 764 444 779 492 770 532 c 0
 762 568 739 691 793 752 c 0
 828 791 863 797 881 797 c 0
 900 797 917 791 925 781 c 0
 932 773 935 762 934 749 c 0
 932 733 924 717 910 706 c 0
EndSplineSet
Substitution2: "'vrt2' Vertical Rotation & Alternates lookup 13 subtable" Japan1.7905
Substitution2: "'vert' Vertical Alternates (obs) lookup 12 subtable" Japan1.7905
Substitution2: "'hwid' Half Widths lookup 7 subtable" Japan1.322
AlternateSubs2: "'aalt' Access All Alternates lookup 1 per glyph data 0" Japan1.92 Japan1.322 Japan1.7905
EndChar

StartChar: Japan1.681
Encoding: 681 65373 681
Width: 1000
Flags: W
LayerCount: 2
Fore
SplineSet
95 706 m 0
 82 717 73 733 72 749 c 0
 71 762 74 773 81 781 c 0
 89 791 106 797 124 797 c 0
 142 797 178 791 212 752 c 0
 267 691 244 568 236 532 c 0
 227 492 242 444 256 434 c 0
 289 410 303 379 298 343 c 0
 294 321 282 305 270 290 c 0
 259 276 249 262 246 246 c 0
 243 231 245 206 248 181 c 0
 251 143 255 99 246 63 c 0
 231 3 179 -67 134 -67 c 0
 115 -67 100 -61 90 -50 c 0
 81 -40 78 -26 80 -9 c 0
 82 7 91 18 103 30 c 0
 112 40 123 52 136 72 c 0
 152 97 148 147 145 191 c 0
 143 218 142 242 143 263 c 0
 147 306 170 340 184 358 c 1
 168 376 140 413 134 454 c 0
 129 490 133 533 136 571 c 0
 138 592 140 612 140 627 c 0
 140 661 112 693 95 706 c 0
EndSplineSet
Substitution2: "'vrt2' Vertical Rotation & Alternates lookup 13 subtable" Japan1.7906
Substitution2: "'vert' Vertical Alternates (obs) lookup 12 subtable" Japan1.7906
Substitution2: "'hwid' Half Widths lookup 7 subtable" Japan1.324
AlternateSubs2: "'aalt' Access All Alternates lookup 1 per glyph data 0" Japan1.94 Japan1.324 Japan1.7906
EndChar

StartChar: Japan1.682
Encoding: 682 12296 682
Width: 1000
Flags: W
LayerCount: 2
Fore
SplineSet
758 49 m 0
 773 25 775 -4 762 -27 c 0
 749 -49 726 -63 701 -63 c 0
 679 -63 658 -52 642 -33 c 0
 615 0 478 168 410 274 c 0
 392 302 354 361 403 441 c 0
 431 487 494 579 630 747 c 1
 635 755 l 2
 650 776 672 788 695 788 c 0
 721 788 746 772 758 748 c 0
 771 725 769 696 753 673 c 0
 737 651 704 606 666 555 c 0
 615 487 558 410 535 375 c 0
 525 359 527 356 533 347 c 0
 564 298 629 216 682 150 c 0
 725 95 750 63 758 49 c 0
EndSplineSet
Substitution2: "'vrt2' Vertical Rotation & Alternates lookup 13 subtable" Japan1.7907
Substitution2: "'vert' Vertical Alternates (obs) lookup 12 subtable" Japan1.7907
Substitution2: "'hwid' Half Widths lookup 7 subtable" Japan1.506
AlternateSubs2: "'aalt' Access All Alternates lookup 1 per glyph data 0" Japan1.29 Japan1.110 Japan1.259 Japan1.506 Japan1.699 Japan1.763 Japan1.7907 Japan1.12261 Japan1.12263 Japan1.12265 Japan1.12267
EndChar

StartChar: Japan1.683
Encoding: 683 12297 683
Width: 1000
Flags: W
LayerCount: 2
Fore
SplineSet
588 441 m 0
 637 361 599 302 581 274 c 0
 513 168 376 0 349 -33 c 0
 333 -52 312 -63 290 -63 c 0
 265 -63 241 -49 229 -27 c 0
 216 -4 217 25 232 49 c 0
 241 63 266 95 309 150 c 0
 361 216 426 298 458 347 c 0
 464 356 466 359 456 375 c 0
 433 410 375 487 324 555 c 0
 286 606 253 651 238 673 c 0
 222 696 220 725 233 749 c 0
 245 772 270 788 296 788 c 0
 319 788 341 776 355 755 c 2
 361 748 l 1
 497 579 560 487 588 441 c 0
EndSplineSet
Substitution2: "'vrt2' Vertical Rotation & Alternates lookup 13 subtable" Japan1.7908
Substitution2: "'vert' Vertical Alternates (obs) lookup 12 subtable" Japan1.7908
Substitution2: "'hwid' Half Widths lookup 7 subtable" Japan1.507
AlternateSubs2: "'aalt' Access All Alternates lookup 1 per glyph data 0" Japan1.31 Japan1.111 Japan1.261 Japan1.507 Japan1.700 Japan1.764 Japan1.7908 Japan1.12262 Japan1.12264 Japan1.12266 Japan1.12268
EndChar

StartChar: Japan1.684
Encoding: 684 12298 684
Width: 1000
Flags: W
LayerCount: 2
Fore
SplineSet
746 722 m 0
 707 665 553 465 508 397 c 0
 490 368 491 348 507 324 c 0
 566 233 729 37 751 2 c 0
 779 -44 723 -87 687 -43 c 0
 663 -14 511 172 437 287 c 0
 414 323 392 366 430 427 c 0
 505 551 679 763 681 766 c 0
 714 815 776 766 746 722 c 0
914 722 m 0
 875 665 721 465 677 397 c 0
 658 368 659 348 675 324 c 0
 734 233 897 37 919 2 c 0
 947 -44 891 -87 855 -43 c 0
 831 -14 679 172 605 287 c 0
 582 323 560 366 598 427 c 0
 673 551 847 763 849 766 c 0
 882 815 944 766 914 722 c 0
EndSplineSet
Substitution2: "'vrt2' Vertical Rotation & Alternates lookup 13 subtable" Japan1.7909
Substitution2: "'vert' Vertical Alternates (obs) lookup 12 subtable" Japan1.7909
Substitution2: "'hwid' Half Widths lookup 7 subtable" Japan1.508
AlternateSubs2: "'aalt' Access All Alternates lookup 1 per glyph data 0" Japan1.109 Japan1.508 Japan1.7909
EndChar

StartChar: Japan1.685
Encoding: 685 12299 685
Width: 1000
Flags: W
LayerCount: 2
Fore
SplineSet
262 722 m 0
 232 766 294 815 327 766 c 0
 329 763 503 551 578 427 c 0
 616 366 594 323 571 287 c 0
 497 172 345 -14 321 -43 c 0
 285 -87 229 -44 257 2 c 0
 279 37 442 233 501 324 c 0
 517 348 518 368 499 397 c 0
 455 465 301 665 262 722 c 0
94 722 m 0
 64 766 126 815 159 766 c 0
 161 763 335 551 410 427 c 0
 448 366 426 323 403 287 c 0
 329 172 177 -14 153 -43 c 0
 117 -87 61 -44 89 2 c 0
 111 37 274 233 333 324 c 0
 349 348 350 368 331 397 c 0
 287 465 133 665 94 722 c 0
EndSplineSet
Substitution2: "'vrt2' Vertical Rotation & Alternates lookup 13 subtable" Japan1.7910
Substitution2: "'vert' Vertical Alternates (obs) lookup 12 subtable" Japan1.7910
Substitution2: "'hwid' Half Widths lookup 7 subtable" Japan1.509
AlternateSubs2: "'aalt' Access All Alternates lookup 1 per glyph data 0" Japan1.123 Japan1.509 Japan1.7910
EndChar

StartChar: Japan1.686
Encoding: 686 12300 686
Width: 1000
Flags: W
LayerCount: 2
Fore
SplineSet
661 656 m 1
 661 656 656 57 656 12 c 0
 658 -47 621 -52 591 -52 c 0
 561 -52 534 -36 529 9 c 0
 524 53 524 659 524 703 c 0
 524 748 565 793 624 793 c 0
 684 791 813 795 872 788 c 0
 912 783 930 748 930 718 c 0
 930 694 900 662 845 660 c 0
 778 659 661 656 661 656 c 1
EndSplineSet
Substitution2: "'vrt2' Vertical Rotation & Alternates lookup 13 subtable" Japan1.7911
Substitution2: "'vert' Vertical Alternates (obs) lookup 12 subtable" Japan1.7911
Substitution2: "'hwid' Half Widths lookup 7 subtable" Japan1.328
AlternateSubs2: "'aalt' Access All Alternates lookup 1 per glyph data 0" Japan1.328 Japan1.7911 Japan1.12070 Japan1.12123 Japan1.12133
EndChar

StartChar: Japan1.687
Encoding: 687 12301 687
Width: 1000
Flags: W
LayerCount: 2
Fore
SplineSet
343 85 m 1
 343 85 348 684 348 729 c 1
 358 768 383 793 413 793 c 0
 443 793 470 777 475 732 c 0
 480 687 480 82 480 37 c 0
 480 -7 439 -52 380 -52 c 1
 332 -70 191 -54 132 -47 c 0
 92 -42 74 -7 74 22 c 0
 74 47 104 79 159 80 c 0
 226 82 343 85 343 85 c 1
EndSplineSet
Substitution2: "'vrt2' Vertical Rotation & Alternates lookup 13 subtable" Japan1.7912
Substitution2: "'vert' Vertical Alternates (obs) lookup 12 subtable" Japan1.7912
Substitution2: "'hwid' Half Widths lookup 7 subtable" Japan1.329
AlternateSubs2: "'aalt' Access All Alternates lookup 1 per glyph data 0" Japan1.329 Japan1.7912 Japan1.12071 Japan1.12124 Japan1.12134
EndChar

StartChar: Japan1.688
Encoding: 688 12302 688
Width: 1000
Flags: W
LayerCount: 2
Fore
SplineSet
866 788 m 0
 906 783 924 748 924 718 c 0
 924 694 894 662 839 660 c 0
 772 659 656 640 654 656 c 2
 654 656 664 41 649 12 c 1
 649 -32 623 -53 585 -52 c 0
 555 -52 528 -36 523 9 c 0
 518 53 518 659 518 703 c 0
 518 748 559 793 618 793 c 0
 641 793 675 793 711 793 c 0
 768 793 830 792 866 788 c 0
838 704 m 0
 865 705 877 716 880 720 c 0
 879 726 877 742 861 744 c 0
 820 749 738 749 711 749 c 0
 691 749 672 749 655 749 c 0
 641 749 629 749 618 749 c 0
 581 749 562 722 562 703 c 0
 562 381 563 43 566 14 c 0
 569 -8 577 -8 585 -8 c 0
 593 -8 605 -6 605 12 c 0
 605 56 610 632 610 656 c 0
 610 680 629 699 653 700 c 2
 653 700 771 703 838 704 c 0
EndSplineSet
Substitution2: "'vrt2' Vertical Rotation & Alternates lookup 13 subtable" Japan1.7913
Substitution2: "'vert' Vertical Alternates (obs) lookup 12 subtable" Japan1.7913
Substitution2: "'hwid' Half Widths lookup 7 subtable" Japan1.510
AlternateSubs2: "'aalt' Access All Alternates lookup 1 per glyph data 0" Japan1.510 Japan1.7913 Japan1.12072 Japan1.12125 Japan1.12135
EndChar

StartChar: Japan1.689
Encoding: 689 12303 689
Width: 1000
Flags: W
LayerCount: 2
Fore
SplineSet
477 732 m 0
 482 688 482 82 482 37 c 0
 482 -7 441 -52 382 -52 c 0
 359 -52 325 -52 289 -52 c 0
 232 -52 170 -51 134 -47 c 0
 94 -42 76 -7 76 22 c 0
 76 47 106 79 161 80 c 0
 228 82 356 81 346 85 c 1
 346 85 366 680 351 729 c 1
 351 773 385 793 415 793 c 0
 445 793 472 777 477 732 c 0
382 -8 m 0
 419 -8 438 18 438 37 c 0
 438 360 437 698 434 727 c 0
 431 749 423 749 415 749 c 0
 407 749 395 746 395 729 c 0
 395 684 390 109 390 85 c 0
 390 61 371 41 347 41 c 2
 347 41 229 38 162 36 c 0
 135 36 123 25 120 20 c 0
 121 15 123 -1 139 -3 c 0
 180 -8 262 -8 289 -8 c 0
 309 -8 328 -8 345 -8 c 0
 359 -8 371 -8 382 -8 c 0
EndSplineSet
Substitution2: "'vrt2' Vertical Rotation & Alternates lookup 13 subtable" Japan1.7914
Substitution2: "'vert' Vertical Alternates (obs) lookup 12 subtable" Japan1.7914
Substitution2: "'hwid' Half Widths lookup 7 subtable" Japan1.511
AlternateSubs2: "'aalt' Access All Alternates lookup 1 per glyph data 0" Japan1.511 Japan1.7914 Japan1.12073 Japan1.12126 Japan1.12136
EndChar

StartChar: Japan1.690
Encoding: 690 12304 690
Width: 1000
Flags: W
LayerCount: 2
Fore
SplineSet
642 722 m 0
 639 781 678 810 719 810 c 0
 760 810 856 809 883 809 c 0
 926 807 942 777 928 746 c 0
 909 701 766 668 766 383 c 1
 780 94 913 66 927 18 c 0
 935 -8 918 -41 871 -44 c 1
 833 -54 754 -48 719 -45 c 1
 686 -55 648 -27 642 26 c 0
 639 68 645 675 642 722 c 0
EndSplineSet
Substitution2: "'vrt2' Vertical Rotation & Alternates lookup 13 subtable" Japan1.7915
Substitution2: "'vert' Vertical Alternates (obs) lookup 12 subtable" Japan1.7915
Substitution2: "'hwid' Half Widths lookup 7 subtable" Japan1.512
AlternateSubs2: "'aalt' Access All Alternates lookup 1 per glyph data 0" Japan1.512 Japan1.7915
EndChar

StartChar: Japan1.691
Encoding: 691 12305 691
Width: 1000
Flags: W
LayerCount: 2
Fore
SplineSet
363 722 m 0
 360 675 372 68 363 26 c 1
 358 -27 325 -55 287 -45 c 1
 252 -48 196 -54 134 -44 c 1
 87 -41 71 -8 78 18 c 0
 92 66 248 94 240 383 c 1
 240 668 97 701 78 746 c 0
 64 777 103 807 123 809 c 0
 149 809 246 810 287 810 c 0
 328 810 367 781 363 722 c 0
EndSplineSet
Substitution2: "'vrt2' Vertical Rotation & Alternates lookup 13 subtable" Japan1.7916
Substitution2: "'vert' Vertical Alternates (obs) lookup 12 subtable" Japan1.7916
Substitution2: "'hwid' Half Widths lookup 7 subtable" Japan1.513
AlternateSubs2: "'aalt' Access All Alternates lookup 1 per glyph data 0" Japan1.513 Japan1.7916
EndChar

StartChar: Japan1.692
Encoding: 692 65291 692
Width: 1000
Flags: W
LayerCount: 2
Fore
SplineSet
726 452 m 0
 773 452 816 445 819 392 c 0
 820 377 816 364 807 354 c 0
 788 333 752 329 720 327 c 0
 700 326 615 326 566 326 c 1
 565 225 564 136 563 121 c 0
 560 63 528 51 502 51 c 0
 464 51 434 85 434 130 c 0
 434 138 434 165 434 203 c 0
 433 237 433 280 433 326 c 1
 347 326 269 327 253 328 c 0
 189 331 180 363 180 383 c 0
 180 423 210 450 256 453 c 0
 266 454 309 454 358 454 c 0
 380 454 405 454 432 454 c 1
 432 550 432 634 433 646 c 0
 436 685 446 726 488 731 c 0
 531 737 563 705 566 656 c 0
 567 638 567 552 567 454 c 1
 603 453 636 453 662 453 c 0
 695 453 719 452 726 452 c 0
EndSplineSet
Substitution2: "'hwid' Half Widths lookup 7 subtable" Japan1.242
AlternateSubs2: "'aalt' Access All Alternates lookup 1 per glyph data 0" Japan1.12 Japan1.242 Japan1.12188 Japan1.12190 Japan1.12191 Japan1.12240 Japan1.12241
EndChar

StartChar: Japan1.693
Encoding: 693 8722 693
Width: 1000
Flags: W
LayerCount: 2
Fore
SplineSet
726 452 m 0
 773 452 816 445 819 392 c 0
 820 377 816 364 807 354 c 0
 788 333 752 329 720 327 c 0
 698 326 603 326 556 326 c 0
 437 326 277 327 253 328 c 0
 189 331 180 363 180 383 c 0
 180 423 210 450 256 453 c 0
 266 454 309 454 358 454 c 0
 444 454 586 453 662 453 c 0
 695 453 719 452 726 452 c 0
EndSplineSet
Substitution2: "'hwid' Half Widths lookup 7 subtable" Japan1.514
AlternateSubs2: "'aalt' Access All Alternates lookup 1 per glyph data 0" Japan1.114 Japan1.138 Japan1.151 Japan1.514 Japan1.661 Japan1.7892 Japan1.12063 Japan1.12186
EndChar

StartChar: Japan1.694
Encoding: 694 177 694
Width: 1000
Flags: W
LayerCount: 2
Fore
SplineSet
253 413 m 0
 189 416 180 448 180 468 c 0
 180 508 209 535 256 539 c 0
 266 539 309 539 358 539 c 0
 380 539 405 539 432 539 c 1
 432 601 432 649 433 661 c 0
 436 700 445 741 488 746 c 0
 531 752 563 720 566 671 c 0
 567 655 567 601 567 539 c 1
 603 538 636 538 662 538 c 0
 695 538 719 537 726 537 c 0
 772 537 816 530 819 477 c 0
 820 462 816 449 807 439 c 0
 788 419 752 414 720 412 c 0
 699 411 615 411 566 411 c 1
 565 345 564 290 563 277 c 0
 559 218 528 206 502 206 c 0
 464 206 434 240 434 285 c 0
 434 293 434 320 433 358 c 0
 433 376 433 393 433 411 c 1
 347 411 269 412 253 413 c 0
726 162 m 0
 772 162 816 155 819 102 c 0
 820 86 816 74 807 64 c 0
 788 43 752 38 720 37 c 0
 698 35 602 35 556 35 c 0
 437 35 277 36 253 37 c 0
 189 40 180 73 180 92 c 0
 180 132 210 160 256 163 c 0
 266 164 309 164 358 164 c 0
 444 164 586 163 662 162 c 0
 695 162 719 162 726 162 c 0
EndSplineSet
AlternateSubs2: "'aalt' Access All Alternates lookup 1 per glyph data 0" Japan1.156 Japan1.12118
EndChar

StartChar: Japan1.695
Encoding: 695 215 695
Width: 1000
Flags: W
LayerCount: 2
Fore
SplineSet
683 300 m 0
 706 276 723 259 728 254 c 0
 761 221 786 186 751 146 c 0
 741 134 729 128 716 128 c 0
 688 126 659 148 635 170 c 0
 620 183 539 260 501 297 c 1
 426 224 360 160 349 150 c 0
 305 112 274 125 255 143 c 0
 228 170 232 216 263 247 c 0
 269 253 293 278 320 305 c 0
 344 329 374 359 407 392 c 1
 339 463 272 533 260 546 c 0
 217 593 234 623 247 636 c 0
 276 664 316 663 351 632 c 0
 359 626 410 570 444 536 c 0
 459 521 478 502 498 482 c 1
 570 553 633 615 643 623 c 0
 673 649 708 671 742 644 c 0
 776 618 776 573 744 537 c 0
 732 523 668 459 595 388 c 1
 630 353 662 321 683 300 c 0
EndSplineSet
AlternateSubs2: "'aalt' Access All Alternates lookup 1 per glyph data 0" Japan1.186 Japan1.12185 Japan1.12189
EndChar

StartChar: Japan1.696
Encoding: 696 247 696
Width: 1000
Flags: W
LayerCount: 2
Fore
SplineSet
499 550 m 0
 444 554 423 595 420 631 c 0
 417 666 460 721 512 711 c 0
 564 702 579 666 579 628 c 0
 579 589 544 547 499 550 c 0
499 69 m 0
 444 73 423 114 420 149 c 0
 417 185 460 240 512 230 c 0
 563 220 579 185 579 146 c 0
 579 108 544 66 499 69 c 0
726 452 m 0
 773 452 816 445 819 392 c 0
 820 377 816 364 807 354 c 0
 788 333 752 329 720 327 c 0
 698 326 603 326 556 326 c 0
 437 326 277 327 253 328 c 0
 189 331 180 363 180 383 c 0
 180 423 210 450 256 453 c 0
 266 454 309 454 358 454 c 0
 444 454 586 453 662 453 c 0
 695 453 719 452 726 452 c 0
EndSplineSet
Substitution2: "'aalt' Access All Alternates lookup 0 subtable" Japan1.215
EndChar

StartChar: Japan1.697
Encoding: 697 65309 697
Width: 1000
Flags: W
LayerCount: 2
Fore
SplineSet
303 463 m 0
 244 467 218 483 213 518 c 0
 207 565 244 595 291 598 c 1
 353 595 664 601 708 598 c 1
 764 577 782 577 782 536 c 1
 788 489 744 466 699 466 c 1
 658 456 338 460 303 463 c 0
686 312 m 0
 741 312 782 302 785 250 c 0
 788 197 733 187 677 184 c 0
 622 181 329 183 283 185 c 0
 234 187 206 205 206 240 c 0
 206 283 240 310 287 313 c 0
 333 316 649 312 686 312 c 0
EndSplineSet
Substitution2: "'vrt2' Vertical Rotation & Alternates lookup 13 subtable" Japan1.7917
Substitution2: "'vert' Vertical Alternates (obs) lookup 12 subtable" Japan1.7917
Substitution2: "'hwid' Half Widths lookup 7 subtable" Japan1.12064
AlternateSubs2: "'aalt' Access All Alternates lookup 1 per glyph data 0" Japan1.30 Japan1.260 Japan1.7917 Japan1.12064 Japan1.9750 Japan1.9770
EndChar

StartChar: Japan1.698
Encoding: 698 8800 698
Width: 1000
Flags: W
LayerCount: 2
Fore
SplineSet
686 312 m 0
 741 312 782 302 785 250 c 0
 788 197 733 187 677 184 c 0
 648 182 549 182 457 183 c 1
 434 144 416 115 410 106 c 0
 372 48 330 63 312 74 c 0
 275 96 266 130 289 175 c 0
 290 177 292 180 294 185 c 1
 290 185 286 185 283 185 c 0
 234 187 206 205 206 240 c 0
 206 283 240 310 287 313 c 0
 299 314 331 314 371 314 c 1
 397 357 428 411 458 463 c 1
 384 462 318 461 303 463 c 0
 244 467 218 483 213 518 c 0
 207 565 244 595 291 598 c 0
 318 600 435 600 539 600 c 1
 557 630 571 652 575 659 c 0
 601 702 632 738 684 711 c 0
 698 704 708 693 712 679 c 0
 720 655 710 626 697 598 c 1
 702 598 706 598 708 598 c 0
 752 595 788 560 782 536 c 1
 782 495 744 466 699 466 c 0
 689 466 661 466 625 465 c 1
 606 433 589 401 578 384 c 0
 565 361 550 337 536 313 c 1
 607 312 670 312 686 312 c 0
EndSplineSet
Substitution2: "'aalt' Access All Alternates lookup 0 subtable" Japan1.12119
EndChar

StartChar: Japan1.699
Encoding: 699 65308 699
Width: 1000
Flags: W
LayerCount: 2
Fore
SplineSet
698 582 m 2
 691 578 l 2
 653 556 402 401 370 382 c 1
 403 364 671 221 723 194 c 0
 779 164 779 141 779 112 c 2
 779 111 l 2
 779 80 747 53 720 53 c 0
 695 53 670 59 612 93 c 0
 600 100 578 112 551 127 c 0
 447 187 272 286 241 311 c 0
 213 333 194 352 204 391 c 0
 211 424 244 450 273 473 c 2
 277 476 l 2
 324 514 527 638 594 679 c 2
 612 690 l 2
 650 713 689 727 717 727 c 0
 725 727 732 726 738 723 c 0
 770 712 788 679 783 656 c 0
 777 627 737 605 698 582 c 2
EndSplineSet
Substitution2: "'hwid' Half Widths lookup 7 subtable" Japan1.259
AlternateSubs2: "'aalt' Access All Alternates lookup 1 per glyph data 0" Japan1.29 Japan1.110 Japan1.259 Japan1.506 Japan1.682 Japan1.763 Japan1.7907 Japan1.12261 Japan1.12263 Japan1.12265 Japan1.12267
EndChar

StartChar: Japan1.700
Encoding: 700 65310 700
Width: 1000
Flags: W
LayerCount: 2
Fore
SplineSet
800 391 m 0
 809 352 790 333 763 311 c 0
 732 286 557 187 452 127 c 0
 425 112 404 100 392 93 c 0
 333 59 309 53 283 53 c 0
 257 53 224 80 224 111 c 2
 224 112 l 2
 224 141 224 164 281 194 c 0
 333 221 600 364 633 382 c 1
 602 401 351 556 313 578 c 2
 305 582 l 2
 266 605 226 627 220 656 c 0
 216 679 233 712 265 723 c 0
 271 726 279 727 287 727 c 0
 315 727 354 713 391 690 c 2
 409 679 l 2
 476 638 679 514 726 476 c 2
 730 473 l 2
 759 450 792 424 800 391 c 0
EndSplineSet
Substitution2: "'hwid' Half Widths lookup 7 subtable" Japan1.261
AlternateSubs2: "'aalt' Access All Alternates lookup 1 per glyph data 0" Japan1.31 Japan1.111 Japan1.261 Japan1.507 Japan1.683 Japan1.764 Japan1.7908 Japan1.12262 Japan1.12264 Japan1.12266 Japan1.12268
EndChar

StartChar: Japan1.701
Encoding: 701 8806 701
Width: 1000
Flags: W
LayerCount: 2
Fore
SplineSet
749 130 m 0
 780 130 846 130 850 72 c 0
 851 57 846 44 835 34 c 0
 815 16 777 12 743 10 c 0
 719 9 548 9 529 9 c 0
 401 9 242 15 240 15 c 0
 169 17 159 49 159 68 c 0
 159 106 192 132 243 134 c 0
 252 135 291 135 346 135 c 0
 394 135 470 134 543 132 c 0
 599 131 651 130 685 130 c 2
 697 130 l 2
 724 130 743 130 749 130 c 0
853 310 m 0
 853 292 843 276 828 266 c 1
 840 257 849 244 850 225 c 0
 851 210 846 197 835 187 c 0
 815 168 777 164 743 163 c 0
 719 162 548 162 529 162 c 0
 401 162 242 167 240 167 c 0
 169 170 159 202 159 221 c 0
 159 258 192 284 243 287 c 0
 252 288 291 288 346 288 c 0
 394 288 470 286 543 285 c 0
 599 284 651 283 685 282 c 2
 697 282 l 2
 699 282 700 282 702 282 c 1
 699 283 696 284 693 285 c 0
 671 293 648 301 629 307 c 0
 577 322 223 436 191 456 c 0
 167 472 145 491 151 530 c 0
 158 575 208 597 239 611 c 0
 274 626 581 722 637 737 c 0
 652 741 667 745 682 750 c 0
 731 764 777 777 810 772 c 0
 826 770 838 763 845 752 c 0
 857 735 854 713 851 701 c 0
 847 679 819 661 767 646 c 0
 646 611 425 546 353 522 c 1
 387 510 452 490 520 468 c 0
 630 433 754 393 782 381 c 0
 834 360 853 341 853 310 c 0
EndSplineSet
EndChar

StartChar: Japan1.702
Encoding: 702 8807 702
Width: 1000
Flags: W
LayerCount: 2
Fore
SplineSet
766 287 m 0
 818 284 851 258 851 221 c 0
 851 202 840 170 769 167 c 0
 768 167 609 162 480 162 c 0
 461 162 290 162 267 163 c 0
 232 164 194 168 174 187 c 0
 163 197 158 210 159 225 c 0
 160 244 169 257 181 266 c 1
 166 276 157 292 157 310 c 0
 157 341 176 360 227 381 c 0
 255 393 379 433 489 468 c 0
 557 490 622 511 656 522 c 1
 584 546 364 611 242 646 c 0
 190 661 163 679 158 701 c 0
 155 713 152 735 164 752 c 0
 172 763 183 770 199 772 c 0
 233 777 278 764 327 750 c 0
 342 745 357 741 373 737 c 0
 428 722 736 626 771 611 c 0
 801 597 851 575 858 530 c 0
 864 491 842 472 818 456 c 0
 786 436 432 323 380 307 c 0
 361 301 338 293 316 285 c 0
 313 284 310 283 307 282 c 1
 309 282 311 282 312 282 c 2
 325 283 l 2
 358 283 410 284 466 285 c 0
 539 286 615 288 663 288 c 0
 719 288 757 288 766 287 c 0
766 134 m 0
 818 132 851 106 851 68 c 0
 851 49 840 17 769 15 c 0
 768 15 609 9 480 9 c 0
 461 9 290 9 267 10 c 0
 232 12 194 16 174 34 c 0
 163 44 158 57 159 72 c 0
 163 130 229 130 260 130 c 0
 267 130 286 130 312 130 c 2
 325 130 l 2
 358 130 410 131 466 132 c 0
 539 134 615 135 663 135 c 0
 719 135 757 135 766 134 c 0
EndSplineSet
EndChar

StartChar: Japan1.703
Encoding: 703 8734 703
Width: 1000
Flags: W
LayerCount: 2
Fore
SplineSet
504 504 m 1
 504 504 568 582 645 584 c 0
 722 585 805 568 856 468 c 0
 902 377 882 240 829 187 c 0
 765 122 665 113 599 141 c 0
 542 164 500 218 500 218 c 1
 506 205 440 151 360 135 c 0
 266 117 175 162 141 244 c 0
 112 315 102 428 164 507 c 0
 224 583 288 600 367 590 c 0
 451 580 504 504 504 504 c 1
401 301 m 0
 422 323 424 365 414 394 c 0
 408 412 385 450 325 445 c 0
 265 440 251 381 250 357 c 0
 249 333 267 281 312 274 c 0
 347 268 377 274 401 301 c 0
735 301 m 0
 755 323 758 365 748 394 c 0
 741 412 718 450 658 445 c 0
 598 440 584 381 583 357 c 0
 583 333 600 281 645 274 c 0
 680 268 710 274 735 301 c 0
EndSplineSet
EndChar

StartChar: Japan1.704
Encoding: 704 8756 704
Width: 1000
Flags: W
LayerCount: 2
Fore
SplineSet
500 546 m 0
 445 549 424 591 420 626 c 0
 417 662 461 716 512 707 c 0
 564 697 580 662 580 623 c 0
 580 584 545 542 500 546 c 0
223 43 m 0
 168 47 147 88 144 124 c 0
 141 159 185 214 236 204 c 0
 288 195 303 159 303 120 c 0
 303 82 268 40 223 43 c 0
776 43 m 0
 721 47 700 88 697 124 c 0
 694 159 737 214 789 204 c 0
 840 195 856 159 856 120 c 0
 856 82 821 40 776 43 c 0
EndSplineSet
EndChar

StartChar: Japan1.705
Encoding: 705 9794 705
Width: 1000
Flags: W
LayerCount: 2
Fore
SplineSet
844 469 m 2
 853 436 834 402 801 393 c 0
 784 388 768 391 754 399 c 0
 740 406 729 419 725 436 c 2
 699 527 l 1
 691 514 682 500 673 485 c 0
 645 434 620 392 601 361 c 1
 672 288 682 189 629 72 c 0
 607 22 553 -23 489 -44 c 0
 421 -66 350 -60 291 -27 c 0
 285 -24 279 -20 273 -16 c 0
 143 72 144 221 201 322 c 0
 252 413 385 457 492 427 c 1
 511 461 534 499 546 520 c 0
 568 559 576 571 584 582 c 1
 505 561 l 2
 472 552 438 571 429 604 c 0
 420 637 440 671 473 680 c 2
 704 742 l 2
 736 751 770 732 779 699 c 2
 844 469 l 2
514 128 m 0
 541 175 540 242 480 287 c 0
 477 289 473 292 470 294 c 1
 470 294 470 294 470 294 c 1
 435 313 401 307 378 298 c 0
 351 287 326 267 314 247 c 0
 289 202 288 139 341 98 c 0
 345 95 349 93 353 91 c 0
 410 58 489 84 514 128 c 0
EndSplineSet
Substitution2: "'hwid' Half Widths lookup 7 subtable" Japan1.12067
AlternateSubs2: "'aalt' Access All Alternates lookup 1 per glyph data 0" Japan1.7478 Japan1.12067
EndChar

StartChar: Japan1.706
Encoding: 706 9792 706
Width: 1000
Flags: W
LayerCount: 2
Fore
SplineSet
690 233 m 0
 736 233 779 226 782 173 c 0
 783 157 779 145 770 135 c 0
 752 114 716 109 683 108 c 0
 666 107 610 106 563 106 c 1
 563 99 563 89 563 77 c 0
 563 43 562 20 562 13 c 0
 562 -34 555 -77 502 -80 c 0
 487 -81 474 -77 464 -68 c 0
 443 -50 439 -14 437 19 c 0
 436 32 436 69 436 106 c 1
 362 107 308 108 291 108 c 0
 227 111 218 144 218 163 c 0
 218 203 248 231 294 234 c 0
 300 234 373 235 436 235 c 1
 436 249 436 258 436 266 c 1
 328 289 265 372 252 508 c 0
 247 562 272 627 318 677 c 0
 367 730 431 760 499 760 c 0
 506 760 513 759 519 759 c 0
 677 746 748 615 748 500 c 0
 748 400 665 303 564 270 c 1
 564 261 564 249 564 235 c 1
 584 234 577 234 630 233 c 0
 664 233 682 233 690 233 c 0
501 392 m 1
 540 392 566 415 582 434 c 0
 601 456 613 486 613 510 c 0
 613 561 583 616 516 626 c 0
 512 627 507 627 503 627 c 0
 437 627 380 565 380 515 c 0
 380 461 414 403 488 393 c 0
 492 393 496 392 501 392 c 1
 501 392 501 392 501 392 c 1
EndSplineSet
Substitution2: "'hwid' Half Widths lookup 7 subtable" Japan1.12066
Substitution2: "'aalt' Access All Alternates lookup 0 subtable" Japan1.12066
EndChar

StartChar: Japan1.707
Encoding: 707 176 707
Width: 1000
Flags: W
LayerCount: 2
Fore
SplineSet
196 518 m 0
 110 525 86 589 81 645 c 0
 76 700 135 786 216 771 c 0
 297 756 332 700 332 640 c 1
 346 573 267 513 196 518 c 0
243 650 m 0
 243 667 233 687 210 690 c 0
 186 693 163 672 163 651 c 0
 166 614 176 612 200 609 c 0
 227 606 243 633 243 650 c 0
EndSplineSet
Substitution2: "'vrt2' Vertical Rotation & Alternates lookup 13 subtable" Japan1.8269
Substitution2: "'vert' Vertical Alternates (obs) lookup 12 subtable" Japan1.8269
AlternateSubs2: "'aalt' Access All Alternates lookup 1 per glyph data 0" Japan1.155 Japan1.8269
EndChar

StartChar: Japan1.708
Encoding: 708 8242 708
Width: 1000
Flags: W
LayerCount: 2
Fore
SplineSet
179 738 m 0
 207 771 231 784 266 766 c 0
 302 747 304 697 278 663 c 0
 252 629 199 587 167 563 c 0
 138 540 85 568 108 625 c 0
 124 666 159 714 179 738 c 0
EndSplineSet
Substitution2: "'vrt2' Vertical Rotation & Alternates lookup 13 subtable" Japan1.8273
Substitution2: "'vert' Vertical Alternates (obs) lookup 12 subtable" Japan1.8273
AlternateSubs2: "'aalt' Access All Alternates lookup 1 per glyph data 0" Japan1.8273 Japan1.9356
EndChar

StartChar: Japan1.709
Encoding: 709 8243 709
Width: 1000
Flags: W
LayerCount: 2
Fore
SplineSet
171 738 m 0
 199 771 223 784 258 766 c 0
 294 747 296 697 270 663 c 0
 244 629 190 587 159 563 c 0
 130 540 76 568 99 625 c 0
 116 666 150 714 171 738 c 0
351 738 m 0
 379 771 403 784 438 766 c 0
 474 747 476 697 450 663 c 0
 424 629 370 587 339 563 c 0
 310 540 256 568 279 625 c 0
 296 666 330 714 351 738 c 0
EndSplineSet
Substitution2: "'vrt2' Vertical Rotation & Alternates lookup 13 subtable" Japan1.8283
Substitution2: "'vert' Vertical Alternates (obs) lookup 12 subtable" Japan1.8283
AlternateSubs2: "'aalt' Access All Alternates lookup 1 per glyph data 0" Japan1.8283 Japan1.9357
EndChar

StartChar: Japan1.710
Encoding: 710 8451 710
Width: 1000
Flags: W
LayerCount: 2
Fore
SplineSet
193 543 m 0
 114 548 92 608 87 660 c 0
 82 712 137 791 212 777 c 0
 287 763 320 712 320 655 c 0
 320 599 259 538 193 543 c 0
237 665 m 0
 237 680 228 699 206 702 c 0
 184 705 162 685 162 666 c 0
 166 644 175 630 197 627 c 0
 222 624 237 649 237 665 c 0
780 192 m 0
 806 192 825 182 841 161 c 0
 859 138 865 113 858 89 c 0
 851 62 826 37 787 21 c 0
 758 9 707 2 650 2 c 0
 564 2 486 17 441 42 c 0
 377 78 234 187 264 428 c 0
 294 661 476 751 591 755 c 0
 595 755 599 755 603 755 c 0
 719 755 823 703 854 655 c 0
 886 605 871 574 852 550 c 0
 841 535 822 527 801 527 c 0
 781 527 759 534 738 547 c 0
 709 565 672 575 632 575 c 0
 613 575 594 572 576 568 c 0
 523 555 446 490 441 402 c 0
 435 319 458 260 513 215 c 0
 548 187 613 174 658 174 c 0
 666 174 674 175 681 175 c 0
 696 177 711 180 726 183 c 0
 745 188 763 192 780 192 c 0
EndSplineSet
Substitution2: "'hwid' Half Widths lookup 7 subtable" Japan1.12065
Substitution2: "'aalt' Access All Alternates lookup 0 subtable" Japan1.12065
EndChar

StartChar: Japan1.711
Encoding: 711 65509 711
Width: 1000
Flags: W
LayerCount: 2
Fore
SplineSet
820 707 m 0
 824 685 818 661 804 641 c 0
 793 626 770 599 747 573 c 0
 733 557 718 541 708 527 c 0
 686 502 635 438 608 411 c 1
 612 411 616 411 620 411 c 0
 645 411 665 410 679 408 c 0
 712 403 730 381 730 347 c 0
 730 319 715 285 673 282 c 0
 663 281 650 281 635 281 c 0
 614 281 593 282 582 282 c 1
 582 249 l 1
 601 250 646 251 668 249 c 0
 708 246 730 218 730 192 c 0
 730 162 706 130 661 130 c 0
 631 130 599 129 584 129 c 1
 584 112 584 93 582 63 c 0
 579 22 565 -6 509 -9 c 0
 508 -9 506 -9 505 -9 c 0
 467 -9 438 19 435 60 c 0
 433 88 433 111 432 129 c 1
 412 130 362 132 340 132 c 0
 307 132 283 155 283 186 c 0
 283 214 303 245 342 249 c 0
 352 250 368 250 389 250 c 0
 407 250 424 250 434 249 c 1
 434 280 l 1
 417 280 377 281 354 281 c 0
 316 281 286 309 285 344 c 0
 284 361 292 377 306 392 c 0
 320 406 337 415 351 415 c 0
 364 415 389 414 407 414 c 1
 381 441 328 506 299 539 c 0
 288 551 278 563 268 573 c 0
 245 598 226 618 213 644 c 0
 193 683 199 720 228 749 c 0
 236 757 250 762 266 762 c 0
 289 762 323 753 344 727 c 0
 369 697 486 571 515 539 c 1
 542 568 643 679 662 705 c 0
 672 718 706 760 751 760 c 0
 764 760 776 756 787 750 c 0
 804 740 816 725 820 707 c 0
EndSplineSet
Substitution2: "'hwid' Half Widths lookup 7 subtable" Japan1.291
AlternateSubs2: "'aalt' Access All Alternates lookup 1 per glyph data 0" Japan1.61 Japan1.291
EndChar

StartChar: Japan1.712
Encoding: 712 65284 712
Width: 1000
Flags: W
LayerCount: 2
Fore
SplineSet
569 399 m 1
 655 354 750 280 733 182 c 0
 717 93 656 39 556 24 c 1
 555 16 553 9 552 6 c 0
 541 -17 516 -25 497 -25 c 0
 488 -25 480 -24 473 -20 c 0
 455 -12 443 4 438 25 c 1
 364 36 326 67 293 93 c 2
 287 97 l 2
 267 113 255 135 256 157 c 0
 256 170 261 191 286 209 c 0
 299 218 312 223 326 223 c 0
 346 223 369 212 390 200 c 0
 398 196 415 187 436 178 c 1
 437 227 437 273 438 316 c 1
 352 357 301 393 273 453 c 0
 241 521 260 607 317 657 c 0
 356 691 401 707 442 714 c 1
 442 728 447 740 457 751 c 0
 470 766 492 776 510 776 c 0
 525 776 539 769 551 757 c 0
 563 744 570 728 571 711 c 1
 586 709 600 705 613 700 c 0
 696 671 726 618 726 579 c 0
 726 532 674 515 640 529 c 0
 626 535 616 543 606 552 c 0
 596 560 586 569 570 576 c 1
 570 558 570 540 570 521 c 0
 570 481 569 439 569 399 c 1
401 528 m 0
 395 509 409 487 440 465 c 1
 440 507 441 545 441 576 c 1
 423 568 408 553 401 528 c 0
593 184 m 0
 600 198 602 210 598 221 c 0
 594 233 582 244 568 254 c 1
 567 241 567 231 567 226 c 0
 567 225 567 196 566 160 c 1
 578 165 587 172 593 184 c 0
EndSplineSet
Substitution2: "'hwid' Half Widths lookup 7 subtable" Japan1.235
AlternateSubs2: "'aalt' Access All Alternates lookup 1 per glyph data 0" Japan1.5 Japan1.235
EndChar

StartChar: Japan1.715
Encoding: 715 65285 715
Width: 1000
Flags: W
LayerCount: 2
Fore
SplineSet
787 707 m 0
 820 667 796 631 777 602 c 1
 776 600 l 2
 763 581 647 441 553 329 c 0
 503 269 460 217 444 198 c 2
 431 181 l 2
 388 128 335 63 301 30 c 0
 288 17 272 11 254 11 c 0
 233 11 214 20 203 29 c 0
 181 48 187 91 217 132 c 0
 234 155 296 232 356 305 c 0
 408 369 461 434 484 464 c 0
 516 506 574 573 616 622 c 0
 637 647 655 668 665 681 c 0
 690 711 719 729 745 729 c 0
 761 729 776 721 787 707 c 0
440 676 m 0
 474 627 480 550 453 492 c 0
 435 451 384 407 316 407 c 0
 313 407 309 407 305 408 c 0
 220 413 166 453 149 521 c 0
 132 588 157 683 238 727 c 0
 259 738 281 744 305 744 c 0
 362 744 416 710 440 676 c 0
350 556 m 0
 357 576 352 601 339 612 c 0
 333 617 324 619 315 619 c 0
 292 619 267 605 264 589 c 0
 261 576 264 556 275 542 c 0
 283 533 294 528 306 528 c 0
 336 528 347 546 350 556 c 0
844 222 m 0
 870 153 825 74 787 43 c 0
 762 22 724 10 688 10 c 0
 664 10 642 15 623 24 c 0
 571 50 529 119 529 177 c 0
 529 254 574 310 652 333 c 0
 666 337 680 339 693 339 c 0
 759 339 818 293 844 222 c 0
686 218 m 0
 657 218 646 184 646 170 c 0
 646 156 663 129 687 129 c 0
 688 129 689 129 690 129 c 0
 723 132 733 159 732 180 c 0
 731 196 714 218 686 218 c 0
EndSplineSet
Substitution2: "'hwid' Half Widths lookup 7 subtable" Japan1.236
AlternateSubs2: "'aalt' Access All Alternates lookup 1 per glyph data 0" Japan1.6 Japan1.236
EndChar

StartChar: Japan1.716
Encoding: 716 65283 716
Width: 1000
Flags: W
LayerCount: 2
Fore
SplineSet
767 478 m 0
 763 478 757 478 749 478 c 1
 740 422 730 359 721 299 c 1
 740 298 754 298 761 297 c 0
 811 294 838 256 837 212 c 0
 836 174 806 137 738 137 c 0
 729 137 713 137 694 137 c 1
 686 92 680 59 676 48 c 0
 662 -2 636 -12 600 -12 c 0
 564 -12 528 13 533 74 c 0
 534 84 538 107 542 138 c 1
 491 139 437 139 387 140 c 1
 381 102 375 75 372 65 c 0
 358 19 332 -10 292 -10 c 0
 253 -10 217 25 224 89 c 0
 225 99 228 118 232 142 c 1
 226 143 222 143 219 143 c 0
 155 148 130 183 127 224 c 0
 127 264 170 303 234 303 c 0
 240 303 248 303 258 303 c 1
 268 362 279 425 289 482 c 1
 274 483 263 483 257 483 c 0
 189 488 164 518 161 561 c 0
 157 604 200 649 261 649 c 0
 271 649 292 649 320 649 c 1
 321 657 323 663 324 667 c 0
 338 732 354 782 419 775 c 0
 473 769 487 710 476 660 c 0
 476 657 475 653 474 648 c 1
 525 647 578 647 626 646 c 1
 629 662 631 674 632 679 c 0
 643 752 686 769 722 762 c 0
 758 755 787 719 780 672 c 0
 779 667 777 656 775 642 c 0
 777 641 778 641 780 641 c 0
 833 635 860 586 856 554 c 0
 853 521 820 478 767 478 c 0
569 301 m 1
 578 359 589 422 598 479 c 1
 549 479 495 480 445 480 c 1
 436 424 426 361 416 302 c 1
 465 302 519 301 569 301 c 1
EndSplineSet
Substitution2: "'hwid' Half Widths lookup 7 subtable" Japan1.234
AlternateSubs2: "'aalt' Access All Alternates lookup 1 per glyph data 0" Japan1.4 Japan1.234
EndChar

StartChar: Japan1.717
Encoding: 717 65286 717
Width: 1000
Flags: W
LayerCount: 2
Fore
SplineSet
831 103 m 0
 843 72 823 44 801 29 c 0
 783 16 750 17 725 30 c 0
 713 36 699 47 690 56 c 1
 663 31 598 -21 515 -24 c 0
 511 -24 507 -24 503 -24 c 0
 411 -24 292 16 249 103 c 0
 218 169 220 241 254 307 c 0
 274 346 313 381 335 399 c 1
 319 416 293 448 277 482 c 0
 250 542 250 597 277 655 c 0
 310 726 391 775 479 775 c 0
 504 775 528 771 550 763 c 0
 657 725 692 628 689 551 c 0
 687 486 641 430 599 405 c 0
 585 398 569 387 558 379 c 1
 605 333 654 286 675 267 c 1
 688 277 708 291 730 291 c 2
 732 291 l 2
 769 289 804 259 809 226 c 0
 813 201 804 173 790 155 c 1
 804 142 824 122 831 103 c 0
461 487 m 1
 513 515 538 550 529 584 c 0
 523 611 497 630 468 630 c 0
 462 630 456 630 451 628 c 0
 440 625 425 615 417 599 c 0
 410 586 409 571 414 555 c 0
 424 523 448 498 461 487 c 1
430 299 m 1
 411 285 372 250 375 210 c 0
 379 159 416 125 476 118 c 0
 522 112 559 145 575 162 c 1
 430 299 l 1
EndSplineSet
Substitution2: "'hwid' Half Widths lookup 7 subtable" Japan1.237
AlternateSubs2: "'aalt' Access All Alternates lookup 1 per glyph data 0" Japan1.7 Japan1.237
EndChar

StartChar: Japan1.718
Encoding: 718 65290 718
Width: 1000
Flags: W
LayerCount: 2
Fore
SplineSet
758 296 m 2
 813 256 839 235 805 182 c 0
 804 180 802 178 801 176 c 0
 772 139 728 148 676 180 c 0
 662 189 622 217 571 254 c 1
 570 187 569 138 569 138 c 2
 568 72 566 39 501 34 c 0
 499 33 496 33 494 33 c 0
 446 33 427 73 423 131 c 0
 422 147 421 192 422 250 c 1
 368 211 330 183 330 183 c 2
 275 143 247 124 202 169 c 0
 200 171 198 173 197 175 c 0
 167 210 188 249 233 288 c 0
 249 302 305 344 374 395 c 1
 312 440 260 477 242 488 c 0
 214 506 183 534 178 563 c 0
 173 588 181 599 197 618 c 0
 239 671 285 636 331 607 c 0
 341 600 376 575 423 541 c 1
 423 592 423 632 422 647 c 0
 420 679 425 719 447 741 c 0
 465 759 479 760 504 760 c 0
 574 759 572 703 575 650 c 0
 575 639 575 599 575 546 c 1
 614 576 645 599 657 609 c 0
 682 631 718 652 749 649 c 0
 776 647 785 637 801 618 c 0
 843 565 796 531 754 497 c 0
 743 487 688 446 621 397 c 1
 697 341 758 296 758 296 c 2
EndSplineSet
Substitution2: "'hwid' Half Widths lookup 7 subtable" Japan1.241
AlternateSubs2: "'aalt' Access All Alternates lookup 1 per glyph data 0" Japan1.11 Japan1.241 Japan1.12642
EndChar

StartChar: Japan1.719
Encoding: 719 65312 719
Width: 1000
Flags: W
LayerCount: 2
Fore
SplineSet
766 672 m 0
 875 573 873 444 862 376 c 0
 850 297 794 239 720 228 c 0
 708 226 697 225 685 225 c 0
 648 225 623 235 615 239 c 1
 593 227 559 221 521 221 c 0
 494 221 466 224 443 231 c 0
 389 246 330 298 332 377 c 0
 334 487 418 542 495 546 c 0
 568 550 645 508 667 452 c 0
 684 411 681 379 679 365 c 1
 702 362 717 371 726 391 c 0
 727 394 761 480 690 552 c 0
 646 596 581 621 512 621 c 0
 491 621 472 619 454 614 c 0
 385 596 299 542 281 449 c 0
 263 353 294 257 358 209 c 0
 415 166 534 156 575 156 c 0
 590 156 611 161 633 166 c 0
 662 173 694 180 715 177 c 0
 733 174 748 164 757 148 c 0
 766 131 768 108 760 89 c 0
 750 61 705 39 628 22 c 0
 603 17 573 14 543 14 c 0
 488 14 404 23 314 65 c 0
 185 125 116 269 137 432 c 0
 154 558 232 667 346 724 c 0
 387 745 444 756 507 756 c 0
 611 756 708 724 766 672 c 0
559 371 m 0
 564 381 567 399 560 414 c 0
 556 424 549 431 538 436 c 0
 528 440 519 442 510 442 c 0
 482 442 458 423 449 393 c 0
 444 380 445 368 452 358 c 0
 460 345 478 334 497 332 c 0
 518 329 546 341 559 371 c 0
EndSplineSet
Substitution2: "'hwid' Half Widths lookup 7 subtable" Japan1.263
AlternateSubs2: "'aalt' Access All Alternates lookup 1 per glyph data 0" Japan1.33 Japan1.263
EndChar

StartChar: Japan1.721
Encoding: 721 9734 721
Width: 1000
Flags: W
LayerCount: 2
Fore
SplineSet
889 388 m 2
 725 257 l 1
 725 257 768 130 785 69 c 0
 792 47 790 31 790 21 c 0
 790 -17 759 -38 721 -38 c 2
 721 -38 721 -38 720 -38 c 0
 706 -38 692 -34 680 -25 c 2
 500 94 l 1
 341 -15 l 2
 316 -33 263 -43 239 -25 c 0
 215 -8 212 29 213 52 c 0
 215 67 274 262 274 262 c 1
 115 382 l 2
 80 408 77 442 86 471 c 0
 96 499 128 518 152 518 c 2
 353 523 l 1
 434 730 l 2
 444 758 470 777 500 777 c 1
 541 760 556 758 566 730 c 2
 642 523 l 1
 848 518 l 2
 878 514 904 499 914 471 c 0
 923 442 913 406 889 388 c 2
644 147 m 2
 644 149 644 150 644 152 c 0
 632 192 604 276 604 276 c 2
 597 297 603 319 620 332 c 2
 728 418 l 1
 594 422 l 2
 573 422 555 435 548 455 c 2
 499 586 l 1
 447 454 l 2
 440 435 422 422 401 422 c 2
 269 418 l 1
 269 418 270 418 270 417 c 2
 378 336 l 2
 395 323 402 301 395 280 c 0
 379 228 359 165 356 150 c 0
 356 149 356 149 356 148 c 1
 359 149 362 150 363 151 c 2
 471 224 l 2
 479 230 489 233 499 233 c 0
 509 233 519 231 527 225 c 2
 644 147 l 2
EndSplineSet
Substitution2: "'aalt' Access All Alternates lookup 0 subtable" Japan1.722
EndChar

StartChar: Japan1.722
Encoding: 722 9733 722
Width: 1000
Flags: W
LayerCount: 2
Fore
SplineSet
889 388 m 2
 725 257 l 1
 725 257 768 130 785 69 c 0
 792 47 790 31 790 21 c 0
 790 -17 759 -38 721 -38 c 2
 721 -38 721 -38 720 -38 c 0
 706 -38 692 -34 680 -25 c 2
 500 94 l 1
 341 -15 l 2
 316 -33 263 -43 239 -25 c 0
 215 -8 212 29 213 52 c 0
 215 67 274 262 274 262 c 1
 115 382 l 2
 80 408 77 442 86 471 c 0
 96 499 128 518 152 518 c 2
 353 523 l 1
 434 730 l 2
 444 758 470 777 500 777 c 1
 541 760 556 758 566 730 c 2
 642 523 l 1
 848 518 l 2
 878 514 904 499 914 471 c 0
 923 442 913 406 889 388 c 2
EndSplineSet
Substitution2: "'aalt' Access All Alternates lookup 0 subtable" Japan1.721
EndChar

StartChar: Japan1.723
Encoding: 723 9675 723
Width: 1000
Flags: W
LayerCount: 2
Fore
SplineSet
476 -43 m 0
 209 -24 135 177 119 349 c 0
 103 522 284 764 539 742 c 0
 778 722 898 522 898 334 c 0
 898 145 696 -59 476 -43 c 0
729 350 m 0
 729 444 672 558 540 577 c 0
 408 595 276 473 276 360 c 0
 276 246 350 141 484 124 c 0
 634 105 729 256 729 350 c 0
EndSplineSet
AlternateSubs2: "'aalt' Access All Alternates lookup 1 per glyph data 0" Japan1.117 Japan1.119 Japan1.331 Japan1.638 Japan1.724 Japan1.725 Japan1.779 Japan1.8210 Japan1.8259 Japan1.8260 Japan1.12251 Japan1.12252 Japan1.12253 Japan1.12254 Japan1.12255 Japan1.12256 Japan1.12644
EndChar

StartChar: Japan1.724
Encoding: 724 9679 724
Width: 1000
Flags: W
LayerCount: 2
Fore
SplineSet
476 -43 m 0
 209 -24 135 177 119 349 c 0
 103 522 284 764 539 742 c 0
 778 722 898 522 898 334 c 0
 898 145 696 -59 476 -43 c 0
EndSplineSet
AlternateSubs2: "'aalt' Access All Alternates lookup 1 per glyph data 0" Japan1.117 Japan1.119 Japan1.331 Japan1.638 Japan1.723 Japan1.725 Japan1.779 Japan1.8210 Japan1.8259 Japan1.8260 Japan1.12251 Japan1.12252 Japan1.12253 Japan1.12254 Japan1.12255 Japan1.12256
EndChar

StartChar: Japan1.725
Encoding: 725 9678 725
Width: 1000
Flags: W
LayerCount: 2
Fore
SplineSet
476 -43 m 0
 209 -24 135 177 119 349 c 0
 103 522 284 764 539 742 c 0
 778 722 898 522 898 334 c 0
 898 145 696 -59 476 -43 c 0
729 350 m 0
 729 444 672 558 540 577 c 0
 408 595 276 473 276 360 c 0
 276 246 350 141 484 124 c 0
 634 105 729 256 729 350 c 0
506 172 m 0
 502 172 498 172 494 172 c 0
 400 179 341 241 332 344 c 0
 328 386 345 433 378 469 c 0
 416 510 467 532 522 527 c 0
 629 518 685 429 685 345 c 0
 685 254 600 172 506 172 c 0
508 404 m 0
 489 404 476 393 469 386 c 0
 457 373 454 360 455 355 c 0
 460 298 485 297 503 295 c 0
 533 293 562 326 562 345 c 0
 562 351 560 400 512 404 c 0
 511 404 509 404 508 404 c 0
EndSplineSet
AlternateSubs2: "'aalt' Access All Alternates lookup 1 per glyph data 0" Japan1.117 Japan1.119 Japan1.331 Japan1.638 Japan1.723 Japan1.724 Japan1.779 Japan1.8210 Japan1.8259 Japan1.8260 Japan1.12251 Japan1.12252 Japan1.12253 Japan1.12254 Japan1.12255 Japan1.12256 Japan1.12645
EndChar

StartChar: Japan1.726
Encoding: 726 9671 726
Width: 1000
Flags: W
LayerCount: 2
Fore
SplineSet
122 285 m 0
 68 347 78 411 126 461 c 0
 169 507 354 687 411 741 c 0
 462 790 516 798 580 740 c 0
 644 682 836 463 882 414 c 0
 929 365 913 307 856 250 c 0
 799 193 621 18 578 -28 c 0
 534 -75 472 -71 420 -24 c 0
 368 22 159 242 122 285 c 0
468 118 m 0
 494 97 505 97 523 115 c 0
 541 133 724 311 737 323 c 0
 749 335 763 352 738 377 c 0
 713 401 556 578 541 593 c 0
 526 608 510 626 493 612 c 0
 477 598 282 414 261 393 c 0
 241 372 239 355 270 324 c 0
 289 305 442 139 468 118 c 0
EndSplineSet
AlternateSubs2: "'aalt' Access All Alternates lookup 1 per glyph data 0" Japan1.8019 Japan1.8214 Japan1.12242 Japan1.12243 Japan1.12244 Japan1.12245 Japan1.12246 Japan1.12247 Japan1.12248 Japan1.12249 Japan1.12250 Japan1.12257 Japan1.12258 Japan1.12259 Japan1.12260
EndChar

StartChar: Japan1.727
Encoding: 727 9670 727
Width: 1000
Flags: W
LayerCount: 2
Fore
SplineSet
122 285 m 0
 68 347 78 411 126 461 c 0
 169 507 354 687 411 741 c 0
 462 790 516 798 580 740 c 0
 644 682 836 463 882 414 c 0
 929 365 913 307 856 250 c 0
 799 193 621 18 578 -28 c 0
 534 -75 472 -71 420 -24 c 0
 368 22 159 242 122 285 c 0
EndSplineSet
EndChar

StartChar: Japan1.728
Encoding: 728 9633 728
Width: 1000
Flags: W
LayerCount: 2
Fore
SplineSet
136 611 m 0
 142 704 202 747 281 749 c 0
 353 751 646 747 734 745 c 0
 815 743 866 706 870 608 c 0
 874 510 865 168 863 92 c 0
 861 15 801 -19 709 -19 c 0
 618 -19 335 -17 263 -19 c 0
 190 -21 143 32 139 111 c 0
 135 190 132 547 136 611 c 0
285 181 m 0
 290 142 299 133 329 133 c 0
 359 133 657 128 678 128 c 0
 698 128 723 131 723 172 c 0
 723 213 727 502 727 527 c 0
 727 552 728 579 703 582 c 0
 678 584 368 588 334 588 c 0
 300 588 284 575 284 525 c 0
 284 493 281 220 285 181 c 0
EndSplineSet
AlternateSubs2: "'aalt' Access All Alternates lookup 1 per glyph data 0" Japan1.729 Japan1.12230 Japan1.12231 Japan1.12232 Japan1.12233 Japan1.12234 Japan1.12235 Japan1.12236 Japan1.12237 Japan1.12238 Japan1.12239
EndChar

StartChar: Japan1.729
Encoding: 729 9632 729
Width: 1000
Flags: W
LayerCount: 2
Fore
SplineSet
136 611 m 0
 142 704 202 747 281 749 c 0
 353 751 646 747 734 745 c 0
 815 743 866 706 870 608 c 0
 874 510 865 168 863 92 c 0
 861 15 801 -19 709 -19 c 0
 618 -19 335 -17 263 -19 c 0
 190 -21 143 32 139 111 c 0
 135 190 132 547 136 611 c 0
EndSplineSet
AlternateSubs2: "'aalt' Access All Alternates lookup 1 per glyph data 0" Japan1.728 Japan1.12230 Japan1.12231 Japan1.12232 Japan1.12233 Japan1.12234 Japan1.12235 Japan1.12236 Japan1.12237 Japan1.12238 Japan1.12239
EndChar

StartChar: Japan1.730
Encoding: 730 9651 730
Width: 1000
Flags: W
LayerCount: 2
Fore
SplineSet
164 -8 m 0
 83 -8 24 46 86 151 c 0
 119 207 373 674 431 729 c 0
 477 772 556 772 605 709 c 0
 664 631 881 217 923 144 c 0
 966 69 945 -8 865 -8 c 0
 785 -8 246 -8 164 -8 c 0
760 119 m 0
 789 119 790 140 772 169 c 0
 753 199 560 559 545 575 c 0
 529 590 508 598 491 583 c 0
 474 569 254 195 238 170 c 0
 211 131 232 121 257 121 c 0
 285 117 732 119 760 119 c 0
EndSplineSet
AlternateSubs2: "'aalt' Access All Alternates lookup 1 per glyph data 0" Japan1.629 Japan1.731 Japan1.12647
EndChar

StartChar: Japan1.731
Encoding: 731 9650 731
Width: 1000
Flags: W
LayerCount: 2
Fore
SplineSet
164 -8 m 0
 83 -8 24 46 86 151 c 0
 119 207 373 674 431 729 c 0
 477 772 556 772 605 709 c 0
 664 631 881 217 923 144 c 0
 966 69 945 -8 865 -8 c 0
 785 -8 246 -8 164 -8 c 0
EndSplineSet
Substitution2: "'hwid' Half Widths lookup 7 subtable" Japan1.629
AlternateSubs2: "'aalt' Access All Alternates lookup 1 per glyph data 0" Japan1.629 Japan1.730 Japan1.12648
EndChar

StartChar: Japan1.732
Encoding: 732 9661 732
Width: 1000
Flags: W
LayerCount: 2
Fore
SplineSet
851 754 m 0
 932 754 991 700 929 595 c 0
 896 539 642 73 584 17 c 0
 538 -26 459 -26 410 37 c 0
 351 115 134 529 92 603 c 0
 49 677 70 754 150 754 c 0
 230 754 769 754 851 754 c 0
255 627 m 0
 226 627 225 606 243 577 c 0
 262 547 455 187 470 172 c 0
 486 156 507 149 524 163 c 0
 541 177 761 551 777 576 c 0
 804 616 783 626 758 626 c 1
 739 615 283 627 255 627 c 0
EndSplineSet
AlternateSubs2: "'aalt' Access All Alternates lookup 1 per glyph data 0" Japan1.733 Japan1.12193
EndChar

StartChar: Japan1.733
Encoding: 733 9660 733
Width: 1000
Flags: W
LayerCount: 2
Fore
SplineSet
851 754 m 0
 932 754 991 700 929 595 c 0
 896 539 642 73 584 17 c 0
 538 -26 458 -26 410 37 c 0
 351 115 134 529 92 603 c 0
 49 677 70 754 150 754 c 0
 230 754 769 754 851 754 c 0
EndSplineSet
AlternateSubs2: "'aalt' Access All Alternates lookup 1 per glyph data 0" Japan1.732 Japan1.12193
EndChar

StartChar: Japan1.734
Encoding: 734 8251 734
Width: 1000
Flags: W
LayerCount: 2
Fore
SplineSet
277 447 m 0
 305 419 310 364 275 334 c 0
 233 298 189 312 161 335 c 0
 133 358 125 429 169 459 c 0
 213 489 250 475 277 447 c 0
450 619 m 0
 422 642 423 709 458 743 c 1
 502 773 539 759 566 731 c 0
 594 703 599 648 564 618 c 0
 522 582 478 596 450 619 c 0
452 181 m 0
 496 211 533 197 560 169 c 0
 588 141 593 86 558 56 c 0
 516 20 472 34 444 57 c 0
 416 80 408 151 452 181 c 0
839 448 m 0
 867 420 872 365 837 335 c 0
 795 299 758 301 723 336 c 0
 695 359 687 430 731 460 c 0
 775 490 812 476 839 448 c 0
593 397 m 1
 665 324 728 260 737 249 c 0
 777 204 763 173 744 155 c 0
 717 127 671 131 639 162 c 0
 633 168 613 188 586 215 c 0
 562 239 531 269 498 302 c 1
 436 241 380 186 367 174 c 0
 320 131 290 148 276 162 c 0
 247 190 249 231 280 267 c 0
 286 274 317 305 352 341 c 0
 368 356 386 374 405 394 c 1
 336 462 277 522 269 532 c 0
 243 562 221 597 247 632 c 0
 274 667 320 666 356 634 c 0
 370 622 432 560 502 489 c 1
 528 515 552 539 571 557 c 0
 595 581 612 598 617 603 c 0
 650 636 686 661 727 626 c 0
 738 615 744 603 745 590 c 0
 747 562 724 533 702 508 c 0
 689 493 628 432 593 397 c 1
EndSplineSet
Substitution2: "'aalt' Access All Alternates lookup 0 subtable" Japan1.12643
EndChar

StartChar: Japan1.735
Encoding: 735 12306 735
Width: 1000
Flags: W
LayerCount: 2
Fore
SplineSet
265 559 m 0
 216 563 165 574 158 628 c 0
 155 651 161 673 175 690 c 0
 192 710 220 723 252 725 c 0
 279 727 385 728 503 728 c 0
 621 728 727 727 753 725 c 0
 826 721 842 681 842 649 c 0
 842 601 798 563 742 563 c 0
 728 563 705 562 643 562 c 0
 531 560 403 558 320 558 c 0
 290 558 272 558 265 559 c 0
727 502 m 0
 786 502 841 493 845 426 c 0
 846 407 841 391 830 379 c 0
 807 352 760 346 719 344 c 0
 692 343 627 342 574 342 c 1
 574 284 573 198 573 137 c 0
 573 109 573 87 573 76 c 0
 573 30 549 -21 510 -25 c 0
 507 -25 505 -25 502 -25 c 0
 468 -25 426 -5 424 52 c 0
 421 96 422 255 422 343 c 1
 335 343 264 344 243 345 c 0
 163 349 151 390 151 414 c 0
 151 465 189 500 247 504 c 0
 260 505 295 505 354 505 c 0
 455 505 581 504 671 503 c 0
 713 503 718 502 727 502 c 0
EndSplineSet
Substitution2: "'hwid' Half Widths lookup 7 subtable" Japan1.12069
AlternateSubs2: "'aalt' Access All Alternates lookup 1 per glyph data 0" Japan1.8057 Japan1.8058 Japan1.12069 Japan1.12180
EndChar

StartChar: Japan1.736
Encoding: 736 8594 736
Width: 1000
Flags: W
LayerCount: 2
Fore
SplineSet
863 359 m 0
 881 340 881 308 855 288 c 0
 823 264 653 175 623 157 c 0
 592 140 560 148 560 181 c 0
 560 193 560 228 560 270 c 1
 497 272 427 274 385 271 c 0
 312 264 259 275 219 272 c 0
 176 270 124 273 124 327 c 0
 125 380 170 388 205 388 c 0
 241 388 404 387 471 389 c 0
 495 390 527 390 561 390 c 1
 561 428 561 458 561 469 c 0
 561 502 583 527 626 501 c 0
 649 488 841 383 863 359 c 0
EndSplineSet
Substitution2: "'vrt2' Vertical Rotation & Alternates lookup 13 subtable" Japan1.739
Substitution2: "'vert' Vertical Alternates (obs) lookup 12 subtable" Japan1.739
AlternateSubs2: "'aalt' Access All Alternates lookup 1 per glyph data 0" Japan1.737 Japan1.738 Japan1.739 Japan1.752 Japan1.753 Japan1.8009 Japan1.8010 Japan1.8011 Japan1.8012 Japan1.8013 Japan1.8014 Japan1.8206 Japan1.8207 Japan1.8208 Japan1.8209 Japan1.8219 Japan1.8220 Japan1.8221 Japan1.8222 Japan1.8309 Japan1.8310 Japan1.8311 Japan1.8312 Japan1.12175 Japan1.12176 Japan1.12177 Japan1.12178 Japan1.12194 Japan1.12195 Japan1.12196 Japan1.12197 Japan1.12198 Japan1.12199 Japan1.12200 Japan1.12201 Japan1.12202 Japan1.12203 Japan1.12204 Japan1.12205 Japan1.12206 Japan1.12207 Japan1.12208 Japan1.12209 Japan1.12210 Japan1.12211 Japan1.12212 Japan1.12213 Japan1.12214 Japan1.12215
EndChar

StartChar: Japan1.737
Encoding: 737 8592 737
Width: 1000
Flags: W
LayerCount: 2
Fore
SplineSet
781 388 m 0
 824 390 887 384 876 334 c 1
 875 280 830 272 795 272 c 0
 759 272 571 273 504 271 c 0
 485 270 462 270 440 270 c 1
 440 232 440 202 440 191 c 0
 440 158 417 133 374 159 c 0
 351 172 159 277 137 301 c 0
 119 320 119 352 145 372 c 0
 177 396 347 485 377 503 c 0
 408 520 440 512 440 479 c 0
 440 467 440 432 440 390 c 1
 509 388 587 386 630 389 c 0
 703 396 741 385 781 388 c 0
EndSplineSet
Substitution2: "'vrt2' Vertical Rotation & Alternates lookup 13 subtable" Japan1.738
Substitution2: "'vert' Vertical Alternates (obs) lookup 12 subtable" Japan1.738
AlternateSubs2: "'aalt' Access All Alternates lookup 1 per glyph data 0" Japan1.736 Japan1.738 Japan1.739 Japan1.752 Japan1.753 Japan1.8009 Japan1.8010 Japan1.8011 Japan1.8012 Japan1.8013 Japan1.8014 Japan1.8206 Japan1.8207 Japan1.8208 Japan1.8209 Japan1.8219 Japan1.8220 Japan1.8221 Japan1.8222 Japan1.8309 Japan1.8310 Japan1.8311 Japan1.8312 Japan1.12175 Japan1.12176 Japan1.12177 Japan1.12178 Japan1.12194 Japan1.12195 Japan1.12196 Japan1.12197 Japan1.12198 Japan1.12199 Japan1.12200 Japan1.12201 Japan1.12202 Japan1.12203 Japan1.12204 Japan1.12205 Japan1.12206 Japan1.12207 Japan1.12208 Japan1.12209 Japan1.12210 Japan1.12211 Japan1.12212 Japan1.12213 Japan1.12214 Japan1.12215
EndChar

StartChar: Japan1.738
Encoding: 738 8593 738
Width: 1000
Flags: W
LayerCount: 2
Fore
SplineSet
673 493 m 0
 690 462 682 430 649 430 c 0
 637 430 602 430 560 430 c 1
 558 358 556 274 559 230 c 0
 566 157 555 129 558 89 c 0
 560 46 557 -6 504 -6 c 0
 450 -5 442 40 442 75 c 0
 442 111 443 274 441 341 c 0
 440 365 440 397 440 430 c 1
 402 430 372 430 361 430 c 0
 328 430 303 453 329 496 c 0
 342 519 447 710 471 733 c 0
 490 751 522 751 542 725 c 0
 566 693 655 523 673 493 c 0
EndSplineSet
Substitution2: "'vrt2' Vertical Rotation & Alternates lookup 13 subtable" Japan1.736
Substitution2: "'vert' Vertical Alternates (obs) lookup 12 subtable" Japan1.736
AlternateSubs2: "'aalt' Access All Alternates lookup 1 per glyph data 0" Japan1.736 Japan1.737 Japan1.739 Japan1.752 Japan1.753 Japan1.8009 Japan1.8010 Japan1.8011 Japan1.8012 Japan1.8013 Japan1.8014 Japan1.8206 Japan1.8207 Japan1.8208 Japan1.8209 Japan1.8219 Japan1.8220 Japan1.8221 Japan1.8222 Japan1.8309 Japan1.8310 Japan1.8311 Japan1.8312 Japan1.12175 Japan1.12176 Japan1.12177 Japan1.12178 Japan1.12194 Japan1.12195 Japan1.12196 Japan1.12197 Japan1.12198 Japan1.12199 Japan1.12200 Japan1.12201 Japan1.12202 Japan1.12203 Japan1.12204 Japan1.12205 Japan1.12206 Japan1.12207 Japan1.12208 Japan1.12209 Japan1.12210 Japan1.12211 Japan1.12212 Japan1.12213 Japan1.12214 Japan1.12215
EndChar

StartChar: Japan1.739
Encoding: 739 8595 739
Width: 1000
Flags: W
LayerCount: 2
Fore
SplineSet
639 284 m 0
 672 284 697 262 671 219 c 0
 658 196 553 4 529 -18 c 0
 510 -36 478 -36 458 -10 c 0
 434 22 345 192 327 222 c 0
 310 253 318 284 351 284 c 0
 363 284 398 284 440 284 c 1
 442 357 444 441 441 485 c 0
 434 558 445 611 442 651 c 0
 440 694 446 732 496 746 c 1
 550 745 558 700 558 665 c 0
 558 629 557 441 559 374 c 0
 560 350 560 318 560 284 c 1
 598 284 628 284 639 284 c 0
EndSplineSet
Substitution2: "'vrt2' Vertical Rotation & Alternates lookup 13 subtable" Japan1.737
Substitution2: "'vert' Vertical Alternates (obs) lookup 12 subtable" Japan1.737
AlternateSubs2: "'aalt' Access All Alternates lookup 1 per glyph data 0" Japan1.736 Japan1.737 Japan1.738 Japan1.752 Japan1.753 Japan1.8009 Japan1.8010 Japan1.8011 Japan1.8012 Japan1.8013 Japan1.8014 Japan1.8206 Japan1.8207 Japan1.8208 Japan1.8209 Japan1.8219 Japan1.8220 Japan1.8221 Japan1.8222 Japan1.8309 Japan1.8310 Japan1.8311 Japan1.8312 Japan1.12175 Japan1.12176 Japan1.12177 Japan1.12178 Japan1.12194 Japan1.12195 Japan1.12196 Japan1.12197 Japan1.12198 Japan1.12199 Japan1.12200 Japan1.12201 Japan1.12202 Japan1.12203 Japan1.12204 Japan1.12205 Japan1.12206 Japan1.12207 Japan1.12208 Japan1.12209 Japan1.12210 Japan1.12211 Japan1.12212 Japan1.12213 Japan1.12214 Japan1.12215
EndChar

StartChar: Japan1.740
Encoding: 740 12307 740
Width: 1000
Flags: W
LayerCount: 2
Fore
SplineSet
652 614 m 0
 756 608 778 552 778 506 c 0
 778 439 716 386 638 386 c 0
 618 386 635 385 549 384 c 0
 391 382 535 379 419 379 c 0
 377 379 371 380 362 380 c 0
 293 386 221 402 211 478 c 0
 207 510 215 540 234 564 c 0
 258 593 298 612 344 614 c 0
 382 617 296 618 461 618 c 0
 628 618 617 617 652 614 c 0
622 274 m 0
 704 274 782 261 787 167 c 0
 789 140 782 118 766 100 c 0
 733 63 668 55 609 52 c 0
 570 50 595 49 518 49 c 0
 317 49 381 51 336 53 c 0
 222 58 205 116 205 150 c 0
 205 221 259 271 342 276 c 0
 359 277 388 278 471 278 c 0
 614 278 446 276 572 275 c 0
 631 275 609 274 622 274 c 0
EndSplineSet
Substitution2: "'vrt2' Vertical Rotation & Alternates lookup 13 subtable" Japan1.8270
Substitution2: "'vert' Vertical Alternates (obs) lookup 12 subtable" Japan1.8270
Substitution2: "'hwid' Half Widths lookup 7 subtable" Japan1.12068
AlternateSubs2: "'aalt' Access All Alternates lookup 1 per glyph data 0" Japan1.8270 Japan1.12068
EndChar

StartChar: Japan1.741
Encoding: 741 8712 741
Width: 1000
Flags: W
LayerCount: 2
Fore
SplineSet
786 180 m 0
 831 180 863 156 863 114 c 0
 863 75 831 51 778 51 c 0
 730 51 444 53 395 58 c 0
 305 66 173 128 157 338 c 1
 157 536 287 631 427 640 c 0
 516 646 733 648 777 648 c 0
 831 648 863 621 863 576 c 0
 863 575 863 575 863 574 c 0
 862 530 832 512 776 512 c 0
 765 512 749 513 729 514 c 0
 659 516 472 521 429 504 c 0
 395 491 331 470 304 408 c 1
 350 409 459 409 498 409 c 0
 617 409 763 403 787 402 c 0
 850 399 860 366 860 347 c 0
 860 307 830 279 784 276 c 0
 774 276 731 275 681 275 c 0
 596 275 419 281 343 282 c 0
 326 282 311 282 300 282 c 1
 324 216 386 192 435 186 c 0
 476 180 657 178 731 179 c 0
 756 180 775 180 786 180 c 0
EndSplineSet
EndChar

StartChar: Japan1.742
Encoding: 742 8715 742
Width: 1000
Flags: W
LayerCount: 2
Fore
SplineSet
606 642 m 0
 696 634 859 545 844 361 c 1
 844 164 714 68 574 59 c 0
 485 53 268 51 224 51 c 0
 170 51 138 78 138 123 c 0
 138 124 138 125 138 126 c 0
 139 170 169 187 225 187 c 0
 236 187 251 186 271 186 c 0
 341 183 528 179 572 195 c 0
 606 208 670 230 697 291 c 1
 651 290 541 290 502 290 c 0
 384 290 238 296 214 297 c 0
 150 300 141 333 141 352 c 0
 141 392 171 420 217 423 c 0
 227 424 270 424 320 424 c 0
 405 424 582 418 658 417 c 0
 675 417 689 417 700 417 c 1
 677 483 615 508 566 514 c 0
 525 519 343 522 269 520 c 0
 245 520 226 519 215 519 c 0
 169 519 138 544 138 585 c 0
 138 625 170 648 223 648 c 0
 271 648 557 646 606 642 c 0
EndSplineSet
EndChar

StartChar: Japan1.743
Encoding: 743 8838 743
Width: 1000
Flags: W
LayerCount: 2
Fore
SplineSet
369 199 m 0
 294 205 153 262 153 435 c 0
 153 612 284 683 397 690 c 0
 477 695 726 696 757 696 c 0
 809 696 841 670 841 629 c 2
 841 627 l 2
 839 575 792 569 756 569 c 0
 748 569 735 569 719 570 c 2
 715 570 l 2
 687 571 631 572 578 572 c 0
 447 572 411 566 402 562 c 2
 396 560 l 2
 355 546 287 521 287 440 c 0
 287 344 369 324 405 320 c 0
 433 317 581 314 670 314 c 0
 689 314 706 315 717 315 c 2
 721 315 l 2
 741 315 756 315 765 315 c 0
 811 315 841 291 841 253 c 0
 841 217 809 194 758 194 c 0
 719 194 413 195 369 199 c 0
749 138 m 0
 795 138 838 131 841 78 c 0
 842 63 838 50 829 40 c 0
 811 19 775 15 742 13 c 0
 721 12 575 12 529 12 c 0
 410 12 264 18 240 19 c 0
 177 22 167 54 167 74 c 0
 167 114 197 141 244 144 c 0
 253 145 297 145 346 145 c 0
 432 145 609 139 685 139 c 0
 718 139 742 138 749 138 c 0
EndSplineSet
EndChar

StartChar: Japan1.744
Encoding: 744 8839 744
Width: 1000
Flags: W
LayerCount: 2
Fore
SplineSet
600 320 m 0
 636 324 718 344 718 440 c 0
 718 521 650 546 609 560 c 2
 603 562 l 2
 593 566 558 572 427 572 c 0
 373 572 318 571 290 570 c 2
 286 570 l 2
 270 569 257 569 249 569 c 0
 213 569 166 575 164 627 c 2
 164 629 l 2
 164 670 196 696 248 696 c 0
 278 696 528 695 608 690 c 0
 721 683 852 612 852 435 c 0
 852 262 711 205 636 199 c 0
 592 195 286 194 247 194 c 0
 196 194 164 217 164 253 c 0
 164 291 194 315 240 315 c 0
 249 315 264 315 284 315 c 2
 288 315 l 2
 299 315 316 314 335 314 c 0
 424 314 572 317 600 320 c 0
745 143 m 0
 791 143 834 136 837 83 c 0
 838 68 834 55 825 45 c 0
 807 24 771 20 738 18 c 0
 717 17 586 12 540 12 c 0
 421 12 261 13 236 14 c 0
 173 17 163 49 163 69 c 0
 163 109 193 131 240 134 c 0
 249 135 293 135 342 135 c 0
 428 135 605 144 681 144 c 0
 714 144 738 143 745 143 c 0
EndSplineSet
EndChar

StartChar: Japan1.745
Encoding: 745 8834 745
Width: 1000
Flags: W
LayerCount: 2
Fore
SplineSet
863 114 m 0
 863 75 831 51 778 51 c 0
 730 51 444 53 395 58 c 0
 305 66 173 128 157 338 c 1
 157 536 287 631 427 640 c 0
 516 646 733 648 777 648 c 0
 831 648 863 621 863 576 c 0
 863 575 863 575 863 574 c 0
 862 530 832 512 776 512 c 0
 765 512 749 513 729 514 c 0
 659 516 472 521 429 504 c 0
 385 487 299 456 290 343 c 1
 290 230 373 194 435 186 c 0
 476 180 657 178 731 179 c 0
 756 180 775 180 786 180 c 0
 831 180 863 156 863 114 c 0
EndSplineSet
EndChar

StartChar: Japan1.746
Encoding: 746 8835 746
Width: 1000
Flags: W
LayerCount: 2
Fore
SplineSet
137 114 m 0
 137 156 169 180 214 180 c 0
 225 180 244 180 268 179 c 0
 343 178 524 180 565 186 c 0
 627 194 710 230 710 343 c 0
 714 456 615 487 571 504 c 0
 528 521 341 516 271 514 c 0
 251 513 235 512 224 512 c 0
 168 512 138 530 137 574 c 0
 137 575 137 575 137 576 c 0
 137 621 169 648 223 648 c 0
 267 648 484 646 573 640 c 0
 713 631 843 536 843 338 c 1
 857 128 695 66 605 58 c 0
 556 53 270 51 222 51 c 0
 169 51 137 75 137 114 c 0
EndSplineSet
EndChar

StartChar: Japan1.747
Encoding: 747 8746 747
Width: 1000
Flags: W
LayerCount: 2
Fore
SplineSet
746 703 m 0
 785 703 809 671 808 618 c 0
 808 570 806 284 802 235 c 0
 794 145 726 -8 522 -3 c 1
 324 -3 229 127 219 267 c 0
 213 356 211 573 211 617 c 0
 211 671 238 703 283 703 c 0
 284 703 285 703 286 703 c 0
 330 701 347 672 347 615 c 0
 347 605 347 589 346 569 c 0
 343 499 339 312 355 269 c 0
 373 225 416 118 517 130 c 1
 630 130 666 213 674 274 c 0
 679 315 682 497 681 571 c 0
 680 596 680 615 680 626 c 0
 680 671 704 703 746 703 c 0
EndSplineSet
EndChar

StartChar: Japan1.748
Encoding: 748 8745 748
Width: 1000
Flags: W
LayerCount: 2
Fore
SplineSet
726 -3 m 0
 684 -3 660 28 660 73 c 0
 660 85 660 104 661 128 c 0
 662 202 659 384 654 425 c 0
 646 486 610 569 497 569 c 0
 383 569 353 475 336 431 c 0
 319 387 323 200 326 130 c 0
 327 110 327 94 327 84 c 0
 327 27 310 -2 266 -3 c 0
 265 -3 264 -3 263 -3 c 0
 218 -3 191 29 191 83 c 0
 191 126 193 344 199 433 c 0
 209 573 304 703 502 703 c 0
 699 703 774 555 782 464 c 0
 786 415 789 129 789 82 c 0
 789 28 765 -3 726 -3 c 0
EndSplineSet
EndChar

StartChar: Japan1.749
Encoding: 749 8743 749
Width: 1000
Flags: W
LayerCount: 2
Fore
SplineSet
777 240 m 0
 801 171 825 114 817 70 c 0
 810 31 772 26 745 31 c 0
 716 36 695 71 681 111 c 2
 681 111 527 527 507 559 c 1
 489 526 340 148 313 96 c 0
 283 40 260 30 231 30 c 2
 230 30 l 2
 198 30 177 57 177 84 c 0
 177 109 215 191 237 247 c 0
 259 304 407 662 431 693 c 0
 453 721 476 735 517 730 c 0
 567 724 594 680 613 646 c 0
 633 612 759 296 777 240 c 0
EndSplineSet
EndChar

StartChar: Japan1.750
Encoding: 750 8744 750
Width: 1000
Flags: W
LayerCount: 2
Fore
SplineSet
328 650 m 2
 328 650 482 233 502 201 c 1
 520 235 669 612 696 664 c 0
 726 721 749 731 779 731 c 2
 780 731 l 2
 811 731 833 703 833 677 c 0
 833 652 804 567 772 513 c 1
 750 457 603 98 578 67 c 0
 556 40 533 25 492 30 c 0
 442 36 421 69 396 114 c 0
 377 149 251 465 232 521 c 0
 208 590 184 647 192 690 c 0
 199 729 237 735 264 730 c 0
 293 725 314 689 328 650 c 2
EndSplineSet
EndChar

StartChar: Japan1.751
Encoding: 751 65506 751
Width: 1000
Flags: W
LayerCount: 2
Fore
SplineSet
740 430 m 1
 740 430 174 430 130 430 c 0
 86 430 67 474 67 504 c 0
 67 533 83 565 127 570 c 0
 171 575 743 565 787 565 c 0
 831 565 875 524 875 466 c 0
 875 407 877 280 870 222 c 0
 865 183 831 165 802 165 c 0
 777 165 746 194 745 248 c 0
 743 315 740 430 740 430 c 1
EndSplineSet
EndChar

StartChar: Japan1.754
Encoding: 754 8704 754
Width: 1000
Flags: W
LayerCount: 2
Fore
SplineSet
832 739 m 0
 871 731 896 693 876 637 c 0
 855 581 668 207 646 151 c 0
 623 96 599 16 557 -2 c 0
 515 -19 442 -10 420 28 c 0
 397 66 145 619 128 655 c 0
 110 692 136 726 166 740 c 0
 195 754 236 746 262 699 c 0
 270 684 298 625 332 552 c 1
 672 548 l 1
 715 640 741 690 745 696 c 0
 774 737 792 748 832 739 c 0
504 184 m 1
 542 269 576 343 605 407 c 1
 400 408 l 1
 455 291 504 184 504 184 c 1
EndSplineSet
EndChar

StartChar: Japan1.755
Encoding: 755 8707 755
Width: 1000
Flags: W
LayerCount: 2
Fore
SplineSet
755 642 m 0
 758 590 755 298 754 184 c 0
 753 142 753 109 753 98 c 0
 753 45 729 19 679 18 c 0
 670 17 655 17 635 17 c 0
 556 17 320 19 288 21 c 0
 249 22 232 56 232 87 c 0
 232 125 255 148 295 149 c 0
 314 150 349 150 399 150 c 0
 433 150 565 150 583 150 c 0
 591 150 596 150 598 150 c 0
 608 150 614 156 615 170 c 0
 616 174 616 229 617 296 c 1
 529 298 334 301 310 301 c 0
 298 301 288 306 279 315 c 0
 267 327 260 347 261 365 c 0
 263 392 285 422 317 423 c 0
 322 424 334 424 353 424 c 0
 404 424 548 423 618 422 c 1
 618 491 618 550 618 558 c 0
 618 571 603 576 590 576 c 0
 552 576 329 576 295 578 c 0
 259 579 243 617 243 643 c 0
 243 667 264 705 297 707 c 0
 326 708 654 710 680 710 c 0
 713 710 753 699 755 642 c 0
EndSplineSet
EndChar

StartChar: Japan1.758
Encoding: 758 865 758
Width: 1000
Flags: W
LayerCount: 2
Fore
SplineSet
806 563 m 0
 775 590 669 661 508 668 c 0
 348 675 243 589 192 560 c 0
 141 530 108 535 91 553 c 0
 75 571 60 607 97 649 c 0
 134 691 261 800 495 798 c 0
 714 796 853 695 898 650 c 0
 943 605 943 564 911 537 c 0
 888 518 848 526 806 563 c 0
EndSplineSet
EndChar

StartChar: Japan1.760
Encoding: 760 8711 760
Width: 1000
Flags: W
LayerCount: 2
Fore
SplineSet
732 749 m 0
 813 749 853 729 810 615 c 0
 769 505 618 137 545 17 c 0
 516 -30 452 -30 421 32 c 0
 359 161 220 529 188 622 c 0
 160 704 166 749 246 749 c 0
 326 749 650 749 732 749 c 0
654 563 m 0
 673 613 655 609 619 622 c 1
 582 622 397 622 361 622 c 0
 325 622 323 602 335 566 c 0
 350 524 437 300 465 242 c 0
 478 214 507 214 520 236 c 0
 553 289 635 513 654 563 c 0
EndSplineSet
Substitution2: "'aalt' Access All Alternates lookup 0 subtable" Japan1.12183
EndChar

StartChar: Japan1.761
Encoding: 761 8801 761
Width: 1000
Flags: W
LayerCount: 2
Fore
SplineSet
739 180 m 0
 771 180 836 180 840 120 c 0
 841 104 836 91 825 80 c 0
 805 61 767 57 733 55 c 0
 709 54 538 54 519 54 c 0
 391 54 232 60 230 60 c 0
 159 63 149 96 149 116 c 0
 149 155 182 182 233 185 c 0
 242 185 281 185 336 185 c 0
 384 185 460 184 533 182 c 0
 589 181 642 180 675 180 c 2
 687 180 l 2
 714 180 733 180 739 180 c 0
739 412 m 0
 771 412 836 412 840 352 c 0
 841 337 836 323 825 313 c 0
 805 294 767 289 733 288 c 0
 709 287 538 287 519 287 c 0
 391 287 232 293 230 293 c 0
 159 295 149 329 149 348 c 0
 149 387 182 414 233 417 c 0
 242 418 281 418 336 418 c 0
 384 418 460 416 533 415 c 0
 589 414 642 413 675 413 c 2
 687 412 l 2
 714 412 733 412 739 412 c 0
739 645 m 0
 771 645 836 645 840 585 c 0
 841 570 836 556 825 546 c 0
 805 526 767 522 733 520 c 0
 709 519 538 519 519 519 c 0
 391 519 232 525 230 525 c 0
 159 528 149 561 149 581 c 0
 149 620 182 647 233 650 c 0
 242 650 281 651 336 651 c 0
 384 651 460 649 533 648 c 0
 589 646 642 645 675 645 c 2
 687 645 l 2
 714 645 733 645 739 645 c 0
EndSplineSet
EndChar

StartChar: Japan1.762
Encoding: 762 8786 762
Width: 1000
Flags: W
LayerCount: 2
Fore
SplineSet
311 597 m 0
 256 601 235 642 232 678 c 0
 228 713 272 768 324 758 c 0
 375 749 391 713 391 674 c 0
 391 636 356 594 311 597 c 0
687 -29 m 0
 632 -25 611 16 608 52 c 0
 605 87 648 142 700 132 c 0
 752 122 767 87 767 48 c 0
 767 10 732 -32 687 -29 c 0
726 532 m 0
 773 532 816 525 819 472 c 0
 820 457 816 444 807 434 c 0
 788 413 752 409 720 407 c 0
 698 406 603 406 556 406 c 0
 437 406 277 407 253 408 c 0
 189 411 180 443 180 463 c 0
 180 503 210 530 256 533 c 0
 266 534 309 534 358 534 c 0
 444 534 586 533 662 533 c 0
 695 533 719 532 726 532 c 0
726 322 m 0
 773 322 816 315 819 262 c 0
 820 247 816 234 807 224 c 0
 788 204 752 199 720 197 c 0
 698 196 603 196 556 196 c 0
 437 196 277 197 253 198 c 0
 189 201 180 234 180 253 c 0
 180 293 210 320 256 324 c 0
 266 324 309 324 358 324 c 0
 444 324 586 324 662 323 c 0
 695 323 719 322 726 322 c 0
EndSplineSet
EndChar

StartChar: Japan1.763
Encoding: 763 8810 763
Width: 1000
Flags: W
LayerCount: 2
Fore
SplineSet
621 713 m 0
 471 604 339 508 236 423 c 0
 210 401 184 383 202 362 c 0
 264 294 615 60 637 24 c 0
 665 -21 617 -61 573 -25 c 0
 531 9 245 215 143 305 c 0
 101 342 80 399 136 445 c 0
 289 573 571 774 577 779 c 0
 623 816 680 756 621 713 c 0
827 713 m 0
 677 604 545 508 443 423 c 0
 416 401 390 383 408 362 c 0
 470 294 821 60 843 24 c 0
 871 -21 823 -61 779 -25 c 0
 737 9 451 215 349 305 c 0
 307 342 286 399 342 445 c 0
 495 573 777 774 783 779 c 0
 829 816 886 756 827 713 c 0
EndSplineSet
AlternateSubs2: "'aalt' Access All Alternates lookup 1 per glyph data 0" Japan1.29 Japan1.110 Japan1.259 Japan1.506 Japan1.682 Japan1.699 Japan1.7907 Japan1.12261 Japan1.12263 Japan1.12265 Japan1.12267
EndChar

StartChar: Japan1.764
Encoding: 764 8811 764
Width: 1000
Flags: W
LayerCount: 2
Fore
SplineSet
381 713 m 0
 323 756 379 816 425 779 c 0
 432 774 713 573 867 445 c 0
 922 399 902 342 860 305 c 0
 758 215 472 9 430 -25 c 0
 386 -61 338 -21 366 24 c 0
 387 60 738 294 800 362 c 0
 819 383 792 401 766 423 c 0
 664 508 532 604 381 713 c 0
175 713 m 0
 116 756 173 816 219 779 c 0
 225 774 507 573 661 445 c 0
 716 399 696 342 654 305 c 0
 552 215 266 9 224 -25 c 0
 180 -61 132 -21 160 24 c 0
 181 60 532 294 594 362 c 0
 613 383 586 401 560 423 c 0
 458 508 326 604 175 713 c 0
EndSplineSet
AlternateSubs2: "'aalt' Access All Alternates lookup 1 per glyph data 0" Japan1.31 Japan1.111 Japan1.261 Japan1.507 Japan1.683 Japan1.700 Japan1.7908 Japan1.12262 Japan1.12264 Japan1.12266 Japan1.12268
EndChar

StartChar: Japan1.768
Encoding: 768 8757 768
Width: 1000
Flags: W
LayerCount: 2
Fore
SplineSet
500 205 m 0
 555 201 576 160 580 125 c 0
 583 89 539 34 488 44 c 0
 446 52 420 89 420 128 c 0
 420 167 455 208 500 205 c 0
777 708 m 0
 831 704 853 663 856 627 c 0
 859 592 815 537 764 546 c 0
 712 556 697 592 697 630 c 0
 697 669 732 711 777 708 c 0
224 708 m 0
 279 704 300 663 303 627 c 0
 306 592 263 537 211 546 c 0
 160 556 144 592 144 630 c 0
 144 669 179 711 224 708 c 0
EndSplineSet
EndChar

StartChar: Japan1.773
Encoding: 773 9839 773
Width: 1000
Flags: W
LayerCount: 2
Fore
SplineSet
749 331 m 0
 799 333 831 299 835 256 c 0
 839 218 814 177 746 169 c 0
 737 168 720 166 698 163 c 1
 688 104 680 61 676 48 c 0
 662 -2 636 -12 600 -12 c 0
 564 -12 529 14 533 74 c 0
 534 84 538 110 543 145 c 1
 491 139 435 133 385 127 c 1
 379 96 375 74 372 65 c 0
 358 19 332 -10 292 -10 c 0
 253 -10 217 25 224 89 c 0
 225 95 226 102 227 112 c 1
 165 110 133 143 129 181 c 0
 124 220 162 264 226 272 c 0
 232 273 242 274 254 276 c 1
 263 333 274 396 285 455 c 1
 278 454 272 454 269 453 c 0
 201 450 173 477 164 519 c 0
 155 561 192 611 252 619 c 0
 263 620 286 623 315 626 c 1
 319 645 322 659 324 667 c 0
 338 732 354 782 419 775 c 0
 473 769 487 710 476 660 c 0
 475 657 474 651 473 644 c 1
 526 650 581 656 629 661 c 1
 630 670 631 676 632 679 c 0
 643 752 687 769 722 762 c 0
 758 755 786 719 780 673 c 1
 827 667 855 626 855 596 c 0
 855 564 829 517 775 511 c 0
 771 510 763 509 754 508 c 1
 745 453 735 390 725 329 c 1
 736 330 744 330 749 331 c 0
414 294 m 1
 465 300 520 307 570 312 c 1
 580 371 591 433 600 490 c 1
 549 484 495 477 444 472 c 1
 435 415 424 353 414 294 c 1
EndSplineSet
EndChar

StartChar: Japan1.774
Encoding: 774 9837 774
Width: 1000
Flags: W
LayerCount: 2
Fore
SplineSet
291 642 m 0
 288 703 340 732 384 728 c 0
 428 723 452 676 452 637 c 0
 452 598 455 475 455 475 c 1
 469 473 620 504 702 404 c 0
 782 306 772 166 696 83 c 0
 625 4 533 -14 450 -12 c 0
 367 -9 305 -15 296 90 c 0
 286 195 293 573 291 642 c 0
440 171 m 0
 442 128 507 127 550 150 c 0
 595 174 623 237 600 280 c 0
 573 330 528 330 491 330 c 0
 453 330 437 314 437 276 c 0
 437 247 437 209 440 171 c 0
EndSplineSet
EndChar

StartChar: Japan1.775
Encoding: 775 9834 775
Width: 1000
Flags: W
LayerCount: 2
Fore
SplineSet
699 572 m 0
 828 472 821 326 795 266 c 0
 781 234 753 228 733 248 c 0
 710 271 731 360 672 425 c 0
 635 466 603 488 578 506 c 1
 579 472 579 440 580 421 c 0
 581 361 586 181 575 153 c 1
 572 114 548 65 518 32 c 0
 466 -25 368 -64 300 -44 c 0
 241 -27 193 39 210 111 c 0
 226 184 283 228 356 258 c 0
 393 274 435 276 472 267 c 1
 474 355 473 475 473 520 c 0
 474 585 477 632 475 669 c 0
 472 707 475 754 523 754 c 0
 558 753 588 710 576 709 c 1
 580 695 635 621 699 572 c 0
EndSplineSet
AlternateSubs2: "'aalt' Access All Alternates lookup 1 per glyph data 0" Japan1.12099 Japan1.12100
EndChar

StartChar: Japan1.776
Encoding: 776 8224 776
Width: 1000
Flags: W
LayerCount: 2
Fore
SplineSet
636 641 m 0
 682 641 726 634 729 581 c 0
 730 565 726 553 717 543 c 0
 698 522 662 518 630 516 c 0
 618 515 595 515 569 515 c 1
 569 328 567 79 565 57 c 0
 562 -2 530 -14 504 -14 c 0
 466 -14 436 20 436 65 c 0
 436 73 436 101 436 138 c 0
 435 216 434 382 434 514 c 1
 377 515 366 516 348 516 c 0
 284 519 274 552 274 571 c 0
 274 611 304 639 351 642 c 0
 357 643 395 643 434 643 c 1
 435 678 435 701 435 707 c 0
 438 745 448 786 490 791 c 0
 533 797 565 765 568 717 c 0
 569 708 569 681 569 642 c 1
 572 642 574 642 577 642 c 0
 610 641 629 641 636 641 c 0
EndSplineSet
Substitution2: "'aalt' Access All Alternates lookup 0 subtable" Japan1.115
EndChar

StartChar: Japan1.777
Encoding: 777 8225 777
Width: 1000
Flags: W
LayerCount: 2
Fore
SplineSet
636 270 m 0
 682 270 726 262 729 209 c 0
 730 194 726 182 717 172 c 0
 698 151 662 146 630 144 c 0
 618 144 594 143 567 143 c 1
 566 97 566 64 565 57 c 0
 562 -2 530 -14 504 -14 c 0
 466 -14 436 20 436 65 c 0
 436 73 436 101 436 138 c 0
 436 140 436 142 436 143 c 0
 377 144 366 144 348 145 c 0
 284 148 275 181 275 200 c 0
 275 240 304 268 351 271 c 0
 357 271 395 272 435 272 c 1
 435 348 434 437 434 514 c 1
 377 515 366 516 348 516 c 0
 284 519 275 552 275 571 c 0
 275 611 304 639 351 642 c 0
 357 643 395 643 434 643 c 1
 435 678 435 701 435 707 c 0
 439 745 448 786 490 791 c 0
 533 797 565 765 568 717 c 0
 569 708 569 681 569 642 c 1
 572 642 574 642 577 642 c 0
 610 641 629 641 636 641 c 0
 682 641 726 634 729 581 c 0
 730 565 726 553 717 543 c 0
 698 522 662 518 630 516 c 0
 618 515 595 515 569 515 c 1
 569 437 569 349 568 270 c 1
 571 270 574 270 577 270 c 0
 610 270 629 270 636 270 c 0
EndSplineSet
Substitution2: "'aalt' Access All Alternates lookup 0 subtable" Japan1.116
EndChar

